*%FSLAX23Y23*%
*%MOIN*%
G01*
%ADD11C,0.000*%
%ADD12C,0.001*%
%ADD13C,0.002*%
%ADD14C,0.004*%
%ADD15C,0.005*%
%ADD16C,0.006*%
%ADD17C,0.007*%
%ADD18C,0.007*%
%ADD19C,0.008*%
%ADD20C,0.010*%
%ADD21C,0.012*%
%ADD22C,0.015*%
%ADD23C,0.024*%
%ADD24C,0.025*%
%ADD25C,0.028*%
%ADD26C,0.029*%
%ADD27C,0.032*%
%ADD28C,0.035*%
%ADD29C,0.039*%
%ADD30C,0.040*%
%ADD31C,0.043*%
%ADD32C,0.047*%
%ADD33C,0.047*%
%ADD34C,0.047*%
%ADD35C,0.048*%
%ADD36C,0.051*%
%ADD37C,0.051*%
%ADD38C,0.052*%
%ADD39C,0.060*%
%ADD40C,0.062*%
%ADD41C,0.064*%
%ADD42C,0.066*%
%ADD43C,0.067*%
%ADD44O,0.080X0.024*%
%ADD45O,0.084X0.028*%
%ADD46C,0.115*%
%ADD47C,0.135*%
%ADD48C,0.236*%
%ADD49C,0.240*%
%ADD50R,0.023X0.050*%
%ADD51R,0.027X0.054*%
%ADD52R,0.037X0.014*%
%ADD53R,0.039X0.055*%
%ADD54R,0.040X0.083*%
%ADD55R,0.041X0.018*%
%ADD56R,0.043X0.059*%
%ADD57R,0.044X0.087*%
%ADD58R,0.050X0.023*%
%ADD59R,0.050X0.060*%
%ADD60R,0.051X0.075*%
%ADD61R,0.054X0.027*%
%ADD62R,0.054X0.064*%
%ADD63R,0.055X0.039*%
%ADD64R,0.055X0.079*%
%ADD65R,0.057X0.012*%
%ADD66R,0.059X0.043*%
%ADD67R,0.060X0.050*%
%ADD68R,0.060X0.060*%
%ADD69R,0.061X0.016*%
%ADD70R,0.064X0.054*%
%ADD71R,0.064X0.064*%
%ADD72R,0.070X0.098*%
%ADD73R,0.070X0.138*%
%ADD74R,0.074X0.102*%
%ADD75R,0.074X0.142*%
%ADD76R,0.079X0.079*%
%ADD77R,0.080X0.040*%
%ADD78R,0.083X0.083*%
%ADD79R,0.084X0.044*%
D26*
X11093Y8221D02*
D03*
Y8121D02*
D03*
X11138Y7506D02*
D03*
X10978Y8136D02*
D03*
X10923Y8646D02*
D03*
X10738Y8251D02*
D03*
X10763Y8106D02*
D03*
X10568Y8091D02*
D03*
X10558Y8031D02*
D03*
X10618Y8456D02*
D03*
X10538Y8676D02*
D03*
X10388Y8281D02*
D03*
X10483Y8446D02*
D03*
X10438Y8451D02*
D03*
X10388Y8676D02*
D03*
X10383Y7726D02*
D03*
X10438Y7826D02*
D03*
X10363Y8091D02*
D03*
Y8031D02*
D03*
X10358Y7676D02*
D03*
X10368Y7856D02*
D03*
X10138Y8051D02*
D03*
Y8011D02*
D03*
X10118Y8216D02*
D03*
X10208Y8251D02*
D03*
X10243Y8451D02*
D03*
X10138Y8676D02*
D03*
Y7971D02*
D03*
X10153Y7516D02*
D03*
X10213Y7676D02*
D03*
X10078Y8086D02*
D03*
X9938Y8251D02*
D03*
Y8451D02*
D03*
X9998Y7516D02*
D03*
X10078Y7931D02*
D03*
X10013Y7651D02*
D03*
X9833Y8131D02*
D03*
X9843Y8221D02*
D03*
X9738Y8456D02*
D03*
X9838D02*
D03*
Y8676D02*
D03*
X9828Y7706D02*
D03*
X9768Y7776D02*
D03*
X9578Y8221D02*
D03*
X9593Y8131D02*
D03*
X9603Y8181D02*
D03*
X9568D02*
D03*
X9538D02*
D03*
X9573Y8451D02*
D03*
X9703D02*
D03*
X9668D02*
D03*
X9633D02*
D03*
X9588Y8676D02*
D03*
X9558Y7596D02*
D03*
Y7521D02*
D03*
X9643Y7551D02*
D03*
X9613Y7646D02*
D03*
X9573Y7641D02*
D03*
X9603Y7551D02*
D03*
X9533D02*
D03*
Y7641D02*
D03*
X9718Y7826D02*
D03*
Y8001D02*
D03*
X9473Y8141D02*
D03*
Y8181D02*
D03*
Y8216D02*
D03*
X9373Y8181D02*
D03*
X9508D02*
D03*
X9333Y8676D02*
D03*
X9488Y8326D02*
D03*
X9398Y8016D02*
D03*
Y7891D02*
D03*
X9488Y7641D02*
D03*
X9483Y7551D02*
D03*
X9263Y8056D02*
D03*
X9313Y8261D02*
D03*
X9153Y7481D02*
D03*
X9163Y7791D02*
D03*
X9173Y7661D02*
D03*
X9028Y8241D02*
D03*
Y8141D02*
D03*
X9033Y8451D02*
D03*
X9133Y8676D02*
D03*
X8833Y8501D02*
D03*
X8838Y8401D02*
D03*
X8833Y8066D02*
D03*
Y8216D02*
D03*
X8873Y7821D02*
D03*
Y7666D02*
D03*
X8703Y8081D02*
D03*
D31*
X8563Y8636D02*
D03*
X11083Y8666D02*
D03*
X11113Y7471D02*
D03*
D36*
X9718Y7511D02*
D03*
X9816D02*
D03*
X9915D02*
D03*
D37*
X9055Y7881D02*
D03*
Y7960D02*
D03*
D41*
X11139Y8162D02*
D03*
Y8262D02*
D03*
Y8362D02*
D03*
Y8462D02*
D03*
Y7862D02*
D03*
Y7962D02*
D03*
Y8062D02*
D03*
D42*
X10686Y8452D02*
D03*
X8886Y8452D02*
D03*
D49*
X10927Y8451D02*
D03*
Y7546D02*
D03*
X8644Y8451D02*
D03*
Y7546D02*
D03*
D71*
X11139Y8562D02*
D03*
M02*
