*%FSLAX23Y23*%
*%MOIN*%
G01*
%ADD11C,0.000*%
%ADD12C,0.001*%
%ADD13C,0.002*%
%ADD14C,0.004*%
%ADD15C,0.005*%
%ADD16C,0.006*%
%ADD17C,0.007*%
%ADD18C,0.007*%
%ADD19C,0.008*%
%ADD20C,0.010*%
%ADD21C,0.012*%
%ADD22C,0.015*%
%ADD23C,0.024*%
%ADD24C,0.025*%
%ADD25C,0.028*%
%ADD26C,0.029*%
%ADD27C,0.032*%
%ADD28C,0.035*%
%ADD29C,0.039*%
%ADD30C,0.040*%
%ADD31C,0.043*%
%ADD32C,0.047*%
%ADD33C,0.047*%
%ADD34C,0.047*%
%ADD35C,0.048*%
%ADD36C,0.051*%
%ADD37C,0.051*%
%ADD38C,0.052*%
%ADD39C,0.060*%
%ADD40C,0.062*%
%ADD41C,0.064*%
%ADD42C,0.066*%
%ADD43C,0.067*%
%ADD44O,0.080X0.024*%
%ADD45O,0.084X0.028*%
%ADD46C,0.115*%
%ADD47C,0.135*%
%ADD48C,0.236*%
%ADD49C,0.240*%
%ADD50R,0.023X0.050*%
%ADD51R,0.027X0.054*%
%ADD52R,0.037X0.014*%
%ADD53R,0.039X0.055*%
%ADD54R,0.040X0.083*%
%ADD55R,0.041X0.018*%
%ADD56R,0.043X0.059*%
%ADD57R,0.044X0.087*%
%ADD58R,0.050X0.023*%
%ADD59R,0.050X0.060*%
%ADD60R,0.051X0.075*%
%ADD61R,0.054X0.027*%
%ADD62R,0.054X0.064*%
%ADD63R,0.055X0.039*%
%ADD64R,0.055X0.079*%
%ADD65R,0.057X0.012*%
%ADD66R,0.059X0.043*%
%ADD67R,0.060X0.050*%
%ADD68R,0.060X0.060*%
%ADD69R,0.061X0.016*%
%ADD70R,0.064X0.054*%
%ADD71R,0.064X0.064*%
%ADD72R,0.070X0.098*%
%ADD73R,0.070X0.138*%
%ADD74R,0.074X0.102*%
%ADD75R,0.074X0.142*%
%ADD76R,0.079X0.079*%
%ADD77R,0.080X0.040*%
%ADD78R,0.083X0.083*%
%ADD79R,0.084X0.044*%
D12*
X8508Y8051D02*
X8608D01*
Y7791D02*
X8508D01*
Y8741D02*
X11214D01*
X8608Y8001D02*
Y7841D01*
Y7956D02*
Y8051D01*
X8508D02*
Y8056D01*
X8608Y7856D02*
Y7791D01*
X8508D02*
Y7736D01*
Y7746D02*
Y7411D01*
Y8051D02*
Y8741D01*
X11214D02*
Y7410D01*
X11214Y7410D02*
X8508Y7411D01*
X8483D02*
X8323D01*
X8318Y8741D02*
X8483D01*
X8508Y8776D02*
Y8961D01*
X11214Y8864D02*
Y8759D01*
Y8822D02*
Y8962D01*
X8413Y8741D02*
Y8539D01*
X8432Y8684D02*
X8413Y8741D01*
X8394Y8684D01*
X8408Y8741D02*
X8418D01*
X8413Y8066D02*
Y8051D01*
X8432Y8108D01*
X8394D02*
X8413Y8051D01*
X8408D02*
X8418D01*
Y7791D02*
X8408D01*
X8418D02*
X8437Y7734D01*
X8399D02*
X8418Y7791D01*
X8437Y7468D02*
X8418Y7411D01*
X8399Y7468D01*
X8413Y7791D02*
X8423D01*
Y7411D02*
X8413D01*
X8418Y7721D02*
Y7791D01*
Y7486D02*
Y7411D01*
X8413Y8051D02*
Y8296D01*
X8368Y8051D02*
X8483D01*
Y7791D02*
X8368D01*
X8333Y8239D02*
Y8741D01*
X8352Y8684D01*
X8314D02*
X8333Y8741D01*
X8352Y7468D02*
X8333Y7411D01*
X8314Y7468D01*
X8328Y8741D02*
X8338D01*
Y7411D02*
X8328D01*
X8508Y8901D02*
X9693D01*
X10028D02*
X11213D01*
X8565Y8920D02*
X8508Y8901D01*
X8565Y8882D01*
X11156Y8920D02*
X11213Y8901D01*
X11156Y8882D01*
X8508Y8896D02*
Y8906D01*
X11213D02*
Y8896D01*
X8333Y7966D02*
Y7411D01*
D15*
X9703Y8873D02*
X9730D01*
X9703D02*
X9730Y8899D01*
Y8906D01*
X9723Y8913D01*
X9710D01*
X9703Y8906D01*
X9743Y8913D02*
X9770D01*
Y8906D01*
X9743Y8879D01*
Y8873D01*
X9783Y8906D02*
X9790Y8913D01*
X9803D01*
X9810Y8906D01*
Y8879D01*
X9803Y8873D01*
X9790D01*
X9783Y8879D01*
Y8906D01*
X9823Y8913D02*
X9850D01*
X9823D02*
Y8893D01*
X9836Y8899D01*
X9843D01*
X9850Y8893D01*
Y8879D01*
X9843Y8873D01*
X9830D01*
X9823Y8879D01*
X9863Y8873D02*
Y8899D01*
X9870D01*
X9876Y8893D01*
Y8873D01*
Y8893D01*
X9883Y8899D01*
X9890Y8893D01*
Y8873D01*
X9903D02*
X9916D01*
X9910D01*
Y8899D01*
X9903D01*
X9910Y8913D02*
X9911D01*
X9936Y8873D02*
X9950D01*
X9943D01*
Y8913D01*
X9936D01*
X8305Y8229D02*
Y8216D01*
Y8223D01*
X8345D01*
X8346D01*
X8345D02*
X8338Y8229D01*
Y8196D02*
X8345Y8189D01*
Y8176D01*
X8338Y8169D01*
X8331D01*
X8332D01*
X8331D02*
X8332D01*
X8331D02*
X8332D01*
X8331D02*
X8325Y8176D01*
Y8183D01*
Y8176D01*
X8318Y8169D01*
X8311D01*
X8305Y8176D01*
Y8189D01*
X8311Y8196D01*
X8338Y8156D02*
X8345Y8149D01*
Y8136D01*
X8338Y8129D01*
X8331D01*
X8332D01*
X8331D02*
X8332D01*
X8331D02*
X8332D01*
X8331D02*
X8325Y8136D01*
Y8143D01*
Y8136D01*
X8318Y8129D01*
X8311D01*
X8305Y8136D01*
Y8149D01*
X8311Y8156D01*
X8338Y8116D02*
X8345Y8109D01*
Y8096D01*
X8338Y8089D01*
X8311D01*
X8305Y8096D01*
Y8109D01*
X8311Y8116D01*
X8338D01*
X8331Y8076D02*
X8305D01*
X8331D02*
Y8069D01*
X8325Y8063D01*
X8305D01*
X8325D01*
X8331Y8056D01*
X8325Y8049D01*
X8305D01*
Y8036D02*
Y8023D01*
Y8029D01*
X8331D01*
Y8036D01*
X8345Y8029D02*
X8346D01*
X8305Y8003D02*
Y7989D01*
Y7996D01*
X8345D01*
Y8003D01*
X8438Y8494D02*
X8431Y8508D01*
X8418Y8521D01*
X8405D01*
X8398Y8514D01*
Y8501D01*
X8405Y8494D01*
X8411D01*
X8418Y8501D01*
Y8521D01*
X8405Y8481D02*
X8398Y8474D01*
Y8461D01*
X8405Y8454D01*
X8431D01*
X8438Y8461D01*
Y8474D01*
X8431Y8481D01*
X8425D01*
X8418Y8474D01*
Y8454D01*
X8431Y8441D02*
X8438Y8434D01*
Y8421D01*
X8431Y8414D01*
X8405D01*
X8398Y8421D01*
Y8434D01*
X8405Y8441D01*
X8431D01*
X8425Y8401D02*
X8398D01*
X8425D02*
Y8394D01*
X8418Y8388D01*
X8398D01*
X8418D01*
X8425Y8381D01*
X8418Y8374D01*
X8398D01*
Y8361D02*
Y8348D01*
Y8354D01*
X8425D01*
Y8361D01*
X8438Y8354D02*
X8439D01*
X8398Y8328D02*
Y8314D01*
Y8321D01*
X8438D01*
Y8328D01*
X8431Y7706D02*
X8438Y7699D01*
Y7686D01*
X8431Y7679D01*
X8425D01*
X8426D01*
X8425D02*
X8426D01*
X8425D02*
X8426D01*
X8425D02*
X8418Y7686D01*
Y7693D01*
Y7686D01*
X8411Y7679D01*
X8405D01*
X8398Y7686D01*
Y7699D01*
X8405Y7706D01*
X8431Y7666D02*
X8438Y7659D01*
Y7646D01*
X8431Y7639D01*
X8425D01*
X8418Y7646D01*
X8411Y7639D01*
X8405D01*
X8398Y7646D01*
Y7659D01*
X8405Y7666D01*
X8411D01*
X8418Y7659D01*
X8425Y7666D01*
X8431D01*
X8418Y7659D02*
Y7646D01*
X8431Y7626D02*
X8438Y7619D01*
Y7606D01*
X8431Y7599D01*
X8405D01*
X8398Y7606D01*
Y7619D01*
X8405Y7626D01*
X8431D01*
X8425Y7586D02*
X8398D01*
X8425D02*
Y7579D01*
X8418Y7573D01*
X8398D01*
X8418D01*
X8425Y7566D01*
X8418Y7559D01*
X8398D01*
Y7546D02*
Y7533D01*
Y7539D01*
X8425D01*
Y7546D01*
X8438Y7539D02*
X8439D01*
X8398Y7513D02*
Y7499D01*
Y7506D01*
X8438D01*
Y7513D01*
X8398Y7999D02*
Y8026D01*
X8425Y7999D01*
X8431D01*
X8438Y8006D01*
Y8019D01*
X8431Y8026D01*
Y7973D02*
X8438Y7959D01*
X8431Y7973D02*
X8418Y7986D01*
X8405D01*
X8398Y7979D01*
Y7966D01*
X8405Y7959D01*
X8411D01*
X8418Y7966D01*
Y7986D01*
X8431Y7946D02*
X8438Y7939D01*
Y7926D01*
X8431Y7919D01*
X8405D01*
X8398Y7926D01*
Y7939D01*
X8405Y7946D01*
X8431D01*
X8425Y7906D02*
X8398D01*
X8425D02*
Y7899D01*
X8418Y7893D01*
X8398D01*
X8418D01*
X8425Y7886D01*
X8418Y7879D01*
X8398D01*
Y7866D02*
Y7853D01*
Y7859D01*
X8425D01*
Y7866D01*
X8438Y7859D02*
X8439D01*
X8398Y7833D02*
Y7819D01*
Y7826D01*
X8438D01*
Y7833D01*
D02*
M02*
