*%FSLAX23Y23*%
*%MOIN*%
G01*
%ADD11C,0.000*%
%ADD12C,0.001*%
%ADD13C,0.002*%
%ADD14C,0.004*%
%ADD15C,0.005*%
%ADD16C,0.006*%
%ADD17C,0.007*%
%ADD18C,0.007*%
%ADD19C,0.008*%
%ADD20C,0.010*%
%ADD21C,0.012*%
%ADD22C,0.015*%
%ADD23C,0.024*%
%ADD24C,0.025*%
%ADD25C,0.028*%
%ADD26C,0.029*%
%ADD27C,0.032*%
%ADD28C,0.035*%
%ADD29C,0.039*%
%ADD30C,0.040*%
%ADD31C,0.043*%
%ADD32C,0.047*%
%ADD33C,0.047*%
%ADD34C,0.047*%
%ADD35C,0.048*%
%ADD36C,0.051*%
%ADD37C,0.051*%
%ADD38C,0.052*%
%ADD39C,0.060*%
%ADD40C,0.062*%
%ADD41C,0.064*%
%ADD42C,0.066*%
%ADD43C,0.067*%
%ADD44O,0.080X0.024*%
%ADD45O,0.084X0.028*%
%ADD46C,0.115*%
%ADD47C,0.135*%
%ADD48C,0.236*%
%ADD49C,0.240*%
%ADD50R,0.023X0.050*%
%ADD51R,0.027X0.054*%
%ADD52R,0.037X0.014*%
%ADD53R,0.039X0.055*%
%ADD54R,0.040X0.083*%
%ADD55R,0.041X0.018*%
%ADD56R,0.043X0.059*%
%ADD57R,0.044X0.087*%
%ADD58R,0.050X0.023*%
%ADD59R,0.050X0.060*%
%ADD60R,0.051X0.075*%
%ADD61R,0.054X0.027*%
%ADD62R,0.054X0.064*%
%ADD63R,0.055X0.039*%
%ADD64R,0.055X0.079*%
%ADD65R,0.057X0.012*%
%ADD66R,0.059X0.043*%
%ADD67R,0.060X0.050*%
%ADD68R,0.060X0.060*%
%ADD69R,0.061X0.016*%
%ADD70R,0.064X0.054*%
%ADD71R,0.064X0.064*%
%ADD72R,0.070X0.098*%
%ADD73R,0.070X0.138*%
%ADD74R,0.074X0.102*%
%ADD75R,0.074X0.142*%
%ADD76R,0.079X0.079*%
%ADD77R,0.080X0.040*%
%ADD78R,0.083X0.083*%
%ADD79R,0.084X0.044*%
D13*
X10396Y7322D02*
X10436D01*
X10416D01*
Y7262D01*
X10466D02*
X10486D01*
X10496Y7272D01*
Y7292D01*
X10486Y7302D01*
X10466D01*
X10456Y7292D01*
Y7272D01*
X10466Y7262D01*
X10516Y7242D02*
Y7302D01*
X10546D01*
X10556Y7292D01*
Y7272D01*
X10546Y7262D01*
X10516D01*
X10636D02*
Y7322D01*
Y7262D02*
X10676D01*
X10706Y7302D02*
X10726D01*
X10736Y7292D01*
Y7262D01*
X10706D01*
X10696Y7272D01*
X10706Y7282D01*
X10736D01*
X10756Y7272D02*
Y7302D01*
Y7272D02*
X10766Y7262D01*
X10796D01*
Y7252D01*
X10786Y7242D01*
X10776D01*
X10796Y7262D02*
Y7302D01*
X10826Y7262D02*
X10846D01*
X10826D02*
X10816Y7272D01*
Y7292D01*
X10826Y7302D01*
X10846D01*
X10856Y7292D01*
Y7282D01*
X10816D01*
X10876Y7262D02*
Y7302D01*
Y7282D02*
Y7262D01*
Y7282D02*
X10886Y7292D01*
X10896Y7302D01*
X10906D01*
D17*
X9188Y7516D02*
X9184D01*
X9188D02*
X9278D01*
X9274D01*
X9278D02*
X9278D01*
X9368D01*
X9374D02*
X9378D01*
X9458D01*
X10178Y7503D02*
X10208D01*
X10204D01*
X10208D02*
X10210D01*
X10248D01*
X8928Y7466D02*
X8828D01*
X9032D02*
X9129D01*
X11096Y7520D02*
X11098D01*
X11165D01*
X9548Y7462D02*
X9538D01*
X9548D02*
X9550D01*
X9578Y7490D02*
X9684D01*
X11146Y7459D02*
X11165D01*
X9538D02*
X9170D01*
X9538D02*
X9548D01*
X9552D01*
X8828D02*
X8816D01*
X8828D02*
X8928D01*
X9032D01*
X9134D01*
X9136D01*
X8828Y7463D02*
X8816D01*
X8828D02*
X8928D01*
X9032D01*
X9132D01*
X9174D02*
X9538D01*
X9548D01*
X11147D02*
X11165D01*
X8828Y7469D02*
X8816D01*
X8928D02*
X9032D01*
X9180D02*
X9538D01*
X11148D02*
X11165D01*
X8828Y7475D02*
X8816D01*
X8928D02*
X9032D01*
X9180D02*
X9536D01*
X11148D02*
X11165D01*
X8828Y7481D02*
X8816D01*
X8928D02*
X9032D01*
X9181D02*
X9530D01*
X9538D01*
X11147D02*
X11165D01*
X8828Y7487D02*
X8816D01*
X8928D02*
X9032D01*
X9180D02*
X9536D01*
X11144D02*
X11165D01*
X8828Y7493D02*
X8816D01*
X8928D02*
X9032D01*
X9180D02*
X9538D01*
X9578D02*
X9683D01*
X11140D02*
X11165D01*
X8828Y7499D02*
X8816D01*
X8928D02*
X9032D01*
X9180D02*
X9538D01*
X9578D02*
X9681D01*
X11134D02*
X11165D01*
X8828Y7505D02*
X8816D01*
X8928D02*
X9032D01*
X9180D02*
X9188D01*
X9278D01*
X9278D02*
X9368D01*
X9378D01*
X9458D01*
X9535D01*
X9581D02*
X9679D01*
X10179D02*
X10208D01*
X10210D02*
X10248D01*
X11096D02*
X11104D01*
X11122D02*
X11165D01*
X8828Y7511D02*
X8816D01*
X8928D02*
X9032D01*
X9180D02*
X9188D01*
X9278D01*
X9278D02*
X9368D01*
X9378D01*
X9458D01*
X9532D01*
X9584D02*
X9679D01*
X10181D02*
X10208D01*
X10210D02*
X10248D01*
X11098D02*
X11165D01*
X8828Y7517D02*
X8816D01*
X8928D02*
X9032D01*
X9180D02*
X9188D01*
X9368D02*
X9378D01*
X9458D02*
X9530D01*
X9586D02*
X9679D01*
X10181D02*
X10194D01*
X10228D01*
X10248D01*
X11098D02*
X11165D01*
X10344Y7676D02*
X10288D01*
X10232D01*
X9988Y7651D02*
X9943D01*
X9758Y7706D02*
X9712D01*
X9464Y7561D02*
X9418D01*
X9372D01*
X9233Y7556D02*
X9188D01*
X9200Y7661D02*
X9223D01*
X8988Y7700D02*
X8984D01*
X8988D02*
X9078D01*
X9074D01*
X9078D02*
X9078D01*
X9149D01*
X9186Y7664D02*
X9189D01*
X9298Y7708D02*
X9308D01*
X9318D01*
X9337D01*
X9338D01*
X9268Y7614D02*
X9266D01*
X9268D02*
X9269D01*
X9278D01*
X9314D01*
X9189Y7658D02*
X9186D01*
Y7614D02*
X9189D01*
X9254D01*
X9257D01*
X9188Y7596D02*
X9184D01*
X9188D02*
X9278D01*
X9274D01*
X9278D02*
X9278D01*
X9314D01*
X9352D02*
X9368D01*
X9405Y7696D02*
X9458D01*
X9401Y7701D02*
X9401D01*
X9401D02*
X9458D01*
X9471D01*
X9581Y7660D02*
X9606D01*
X9615Y7642D02*
X9618D01*
Y7560D02*
X9615D01*
X9635D02*
X9656D01*
Y7642D02*
X9652D01*
Y7560D02*
X9656D01*
X9660D01*
X9660D01*
X9581Y7642D02*
X9578D01*
X9581D02*
X9614D01*
X9581Y7560D02*
X9578D01*
X9581D02*
X9618D01*
X9635D01*
X9915Y7692D02*
X9918D01*
X9918D01*
X9988D01*
Y7610D02*
X9931D01*
X10224Y7606D02*
X10228D01*
X10295D01*
X10298D01*
X10228Y7526D02*
X10224D01*
X10228D02*
X10248D01*
X8846Y7636D02*
X8828D01*
X8900D02*
X8928D01*
X9032D02*
X9134D01*
X10009Y7606D02*
X10012D01*
X10058D01*
X10102D01*
X10099D01*
X10102D02*
X10104D01*
X10194D01*
Y7526D02*
X10179D01*
X10260Y7648D02*
X10314D01*
X10316D01*
X10217Y7693D02*
X10135D01*
X9918D02*
X9918D01*
X9918D02*
X9988D01*
X10000D01*
X11096Y7612D02*
X11098D01*
Y7610D02*
X11096D01*
X10310Y7630D02*
X10298D01*
X9918Y7700D02*
X9906D01*
X9918D02*
X9918D01*
X9352Y7686D02*
X9341D01*
X10335Y7706D02*
X10363D01*
X9257Y7616D02*
X9254D01*
X9257D02*
X9265D01*
X9269D01*
X9941Y7600D02*
X9988D01*
X10012D01*
X9581Y7576D02*
X9578D01*
Y7616D02*
X9581D01*
X9710Y7634D02*
X9718D01*
X9614Y7642D02*
X9610D01*
X9614D02*
X9618D01*
X9625D01*
X9635D01*
X9641D01*
X9656D01*
X9672D01*
X9710D01*
X9718D01*
Y7680D02*
X9710D01*
X9798D02*
X9808D01*
X9690Y7538D02*
X9683D01*
X8793Y7714D02*
X8561D01*
X10314Y7646D02*
X10325D01*
X10341D01*
X10370D01*
X11096Y7642D02*
X11098D01*
X9153Y7538D02*
X9134D01*
X8828Y7523D02*
X8816D01*
X8928D02*
X9032D01*
X9180D02*
X9188D01*
X9368D02*
X9378D01*
X9458D02*
X9530D01*
X9586D02*
X9681D01*
X10180D02*
X10194D01*
X10228D01*
X10248D01*
X8828Y7529D02*
X8816D01*
X8928D02*
X9032D01*
X9174D02*
X9188D01*
X9368D02*
X9378D01*
X9458D02*
X9531D01*
X9585D02*
X9683D01*
X10194D02*
X10228D01*
X8828Y7535D02*
X8816D01*
X8928D02*
X9032D01*
X9166D02*
X9188D01*
X9368D02*
X9378D01*
X9458D02*
X9534D01*
X9582D02*
X9687D01*
X10194D02*
X10228D01*
X8828Y7541D02*
X8816D01*
X8928D02*
X9032D01*
X9134D02*
X9188D01*
X9368D02*
X9378D01*
X9458D02*
X9538D01*
X9578D02*
X9672D01*
X10194D02*
X10228D01*
X8828Y7547D02*
X8816D01*
X8928D02*
X9032D01*
X9134D02*
X9188D01*
X9368D02*
X9378D01*
X9458D02*
X9538D01*
X9548D01*
X9568D02*
X9578D01*
X9665D01*
X10194D02*
X10228D01*
X8828Y7553D02*
X8816D01*
X8928D02*
X9032D01*
X9134D02*
X9188D01*
X9368D02*
X9378D01*
X9458D02*
X9538D01*
X9578D01*
X9581D02*
X9618D01*
X9635D01*
X9656D01*
X10194D02*
X10228D01*
X8828Y7559D02*
X8816D01*
X8928D02*
X9032D01*
X9134D02*
X9188D01*
X9368D02*
X9378D01*
X9458D02*
X9581D01*
X9618D01*
X9635D01*
X9656D01*
X10194D02*
X10228D01*
X8828Y7565D02*
X8816D01*
X8928D02*
X9032D01*
X9134D02*
X9188D01*
X9368D02*
X9378D01*
X9458D02*
X9544D01*
X9581D01*
X10194D02*
X10228D01*
X8828Y7571D02*
X8816D01*
X8928D02*
X9032D01*
X9134D02*
X9188D01*
X9368D02*
X9378D01*
X9458D02*
X9544D01*
X9571D02*
X9581D01*
X10194D02*
X10228D01*
X8828Y7577D02*
X8816D01*
X8928D02*
X9032D01*
X9134D02*
X9188D01*
X9368D02*
X9378D01*
X9458D02*
X9537D01*
X10194D02*
X10228D01*
X8828Y7583D02*
X8816D01*
X8928D02*
X9032D01*
X9134D02*
X9188D01*
X9368D02*
X9378D01*
X9458D02*
X9533D01*
X10194D02*
X10228D01*
X8828Y7589D02*
X8816D01*
X8928D02*
X9032D01*
X9134D02*
X9188D01*
X9368D02*
X9378D01*
X9458D02*
X9531D01*
X10194D02*
X10228D01*
X8828Y7595D02*
X8816D01*
X8928D02*
X9032D01*
X9134D02*
X9188D01*
X9368D02*
X9378D01*
X9458D02*
X9530D01*
X10194D02*
X10228D01*
X8828Y7601D02*
X8816D01*
X8928D02*
X9032D01*
X9134D02*
X9188D01*
X9189D02*
X9257D01*
X9269D01*
X9278D01*
X9278D02*
X9314D01*
X9352D02*
X9368D01*
X9378D01*
X9458D02*
X9530D01*
X9941D02*
X9988D01*
X10012D01*
X10194D02*
X10228D01*
X8828Y7607D02*
X8816D01*
X8928D02*
X9032D01*
X9134D02*
X9188D01*
X9189D02*
X9254D01*
X9257D02*
X9269D01*
X9278D01*
X9278D02*
X9314D01*
X9352D02*
X9368D01*
X9378D01*
X9458D02*
X9532D01*
X9935D02*
X9988D01*
X10012D01*
X10058D01*
X10102D01*
X10104D02*
X10194D01*
X10228D01*
X10294D01*
X8828Y7613D02*
X8816D01*
X8928D02*
X9032D01*
X9134D02*
X9189D01*
X9254D01*
X9257D02*
X9268D01*
X9269D02*
X9278D01*
X9314D01*
X9352D02*
X9378D01*
X9458D02*
X9536D01*
X9988D02*
X10012D01*
X10058D01*
X10102D01*
X10104D02*
X10194D01*
X10228D01*
X10292D01*
X8828Y7619D02*
X8816D01*
X8928D02*
X9032D01*
X9134D02*
X9189D01*
X9352D02*
X9378D01*
X9458D02*
X9542D01*
X9574D02*
X9581D01*
X9988D02*
X10012D01*
X10102D01*
X10104D02*
X10194D01*
X10228D01*
X10298D01*
X8828Y7625D02*
X8816D01*
X8928D02*
X9032D01*
X9134D02*
X9189D01*
X9352D02*
X9378D01*
X9458D02*
X9544D01*
X9581D01*
X9988D02*
X10298D01*
X8828Y7631D02*
X8816D01*
X8928D02*
X9032D01*
X9134D02*
X9189D01*
X9352D02*
X9378D01*
X9458D02*
X9581D01*
X9988D02*
X10298D01*
X10310D01*
X8828Y7637D02*
X8816D01*
X8828D02*
X8846D01*
X8900D02*
X8928D01*
X9032D01*
X9134D01*
X9189D01*
X9352D02*
X9378D01*
X9458D02*
X9581D01*
X9710D02*
X9718D01*
X9988D02*
X10298D01*
X10314D01*
X8828Y7643D02*
X8816D01*
X8828D02*
X8846D01*
X8900D02*
X8928D01*
X9032D01*
X9134D01*
X9189D01*
X9352D02*
X9378D01*
X9458D02*
X9581D01*
X9614D01*
X9988D02*
X10298D01*
X10314D01*
X10322D01*
X8846Y7649D02*
X8816D01*
X8900D02*
X9189D01*
X9352D02*
X9378D01*
X9458D02*
X9581D01*
X9614D01*
X9988D02*
X10255D01*
X10321D02*
X10328D01*
X10338D01*
X10373D01*
X8846Y7655D02*
X8816D01*
X8900D02*
X9189D01*
X9352D02*
X9378D01*
X9458D02*
X9581D01*
X9611D01*
X9988D02*
X10242D01*
X10334D02*
X10379D01*
X8845Y7661D02*
X8816D01*
X8901D02*
X9189D01*
X9356D02*
X9378D01*
X9458D02*
X9581D01*
X9988D02*
X10237D01*
X10339D02*
X10385D01*
X8845Y7667D02*
X8816D01*
X8901D02*
X9189D01*
X9352D02*
X9360D01*
X9378D01*
X9458D02*
X9581D01*
X9988D02*
X10234D01*
X10342D02*
X10388D01*
X8846Y7673D02*
X8816D01*
X8900D02*
X9189D01*
X9354D02*
X9373D01*
X9458D02*
X9581D01*
X9988D02*
X10233D01*
X10343D02*
X10388D01*
X8848Y7679D02*
X8816D01*
X8898D02*
X9189D01*
X9352D02*
X9367D01*
X9458D02*
X9581D01*
X9988D02*
X10233D01*
X10343D02*
X10388D01*
X8852Y7685D02*
X8816D01*
X8894D02*
X9178D01*
X9342D02*
X9352D01*
X9361D01*
X9458D02*
X9581D01*
X9710D02*
X9718D01*
X9798D02*
X9808D01*
X9988D02*
X10000D01*
X10135D01*
X10217D01*
X10234D01*
X10342D02*
X10388D01*
X8860Y7691D02*
X8816D01*
X8886D02*
X8988D01*
X9078D01*
X9078D02*
X9167D01*
X9337D02*
X9352D01*
X9458D02*
X9471D01*
X9581D01*
X9710D02*
X9718D01*
X9988D02*
X10000D01*
X10135D01*
X10217D01*
X10237D01*
X10339D02*
X10388D01*
X8988Y7697D02*
X8816D01*
X8988D02*
X9078D01*
X9078D02*
X9155D01*
X9337D02*
X9349D01*
X9405D02*
X9458D01*
X9471D01*
X9581D01*
X9710D02*
X9718D01*
X9910D02*
X9918D01*
X10000D02*
X10135D01*
X10217D02*
X10242D01*
X10334D02*
X10388D01*
X8988Y7703D02*
X8816D01*
X9471D02*
X9581D01*
X9710D02*
X9718D01*
X9904D02*
X9918D01*
X10000D02*
X10135D01*
X10217D02*
X10245D01*
X10331D02*
X10367D01*
X8988Y7709D02*
X8807D01*
X9298D02*
X9308D01*
X9318D01*
X9337D01*
X9393D02*
X9401D01*
X9471D02*
X9581D01*
X9710D02*
X9718D01*
X9898D02*
X9918D01*
X10000D02*
X10135D01*
X10217D02*
X10238D01*
X10818D02*
X10995D01*
X8988Y7715D02*
X8561D01*
X9292D02*
X9308D01*
X9331D01*
X9387D02*
X9401D01*
X9471D02*
X9581D01*
X9710D02*
X9718D01*
X9892D02*
X9918D01*
X10000D02*
X10135D01*
X10217D02*
X10235D01*
X10818D02*
X10995D01*
X9894Y7761D02*
X9848D01*
X9802D01*
X9213Y7746D02*
X9186D01*
X9094Y7881D02*
X9055D01*
X9016D01*
X9033Y7741D02*
X8988D01*
Y7782D02*
X8984D01*
X8988D02*
X9078D01*
X9074D01*
X9078D02*
X9078D01*
X9118D01*
X9421Y7874D02*
X9433D01*
X9434D02*
X9438D01*
X9464D01*
X9508D01*
X9718Y7752D02*
X9754D01*
X9782D02*
X9788D01*
X9798D01*
X9690Y7822D02*
X9650D01*
X9706Y7740D02*
X9708D01*
X9710D01*
X9536D02*
X9535D01*
X9536D02*
X9581D01*
X9512Y7886D02*
X9509D01*
X9512D02*
X9575D01*
X9630D02*
X9694D01*
X9695D01*
X9706Y7742D02*
X9708D01*
X9710D01*
X10786Y7800D02*
X10818D01*
X10995D02*
X11025D01*
X9308Y7719D02*
X9292D01*
X9308D02*
X9327D01*
X10260Y7854D02*
X10298D01*
X10316D01*
X10312Y7876D02*
X10309D01*
X10312D02*
X10384D01*
X10174Y7798D02*
X10135D01*
X10174D02*
X10194D01*
X10213D01*
X10213D01*
X10217D01*
X10000D02*
X9918D01*
Y7819D02*
X10000D01*
X10135Y7819D02*
X10193D01*
X9866Y7896D02*
X9808D01*
X10384Y7776D02*
X10388D01*
X9130Y7896D02*
X9118D01*
X9358Y7910D02*
X9378D01*
X9375Y7726D02*
X9382D01*
X9508Y7870D02*
X9528D01*
X9560D01*
X9708Y7756D02*
X9718D01*
X9748D01*
Y7796D02*
X9708D01*
X9613Y7849D02*
X9598D01*
X9594D01*
X9513Y7723D02*
X9471D01*
X8638Y7738D02*
X8561D01*
X10194Y7806D02*
X10205D01*
X10217D01*
X10217D01*
X10221D01*
X10241D01*
Y7846D02*
X10221D01*
X10217Y7756D02*
X10241D01*
Y7796D02*
X10217D01*
X10335Y7746D02*
X10363D01*
X8988Y7721D02*
X8561D01*
X9382D02*
X9401D01*
X9471D02*
X9581D01*
X9710D02*
X9718D01*
X9888D02*
X9918D01*
X10000D02*
X10135D01*
X10217D02*
X10233D01*
X10818D02*
X10995D01*
X8988Y7727D02*
X8561D01*
X9375D02*
X9382D01*
X9401D01*
X9526D02*
X9581D01*
X9710D02*
X9718D01*
X9798D02*
X9808D01*
X9888D02*
X9918D01*
X10000D02*
X10135D01*
X10217D02*
X10233D01*
X10818D02*
X10995D01*
X8988Y7733D02*
X8561D01*
X9382D02*
X9401D01*
X9536D02*
X9581D01*
X9710D02*
X9718D01*
X9798D02*
X9808D01*
X9888D02*
X9918D01*
X10000D02*
X10135D01*
X10217D02*
X10233D01*
X10818D02*
X10995D01*
X8988Y7739D02*
X8645D01*
X9384D02*
X9401D01*
X9536D02*
X9581D01*
X9710D02*
X9718D01*
X9798D02*
X9808D01*
X9888D02*
X9918D01*
X10000D02*
X10135D01*
X10217D02*
X10236D01*
X10818D02*
X10995D01*
X8988Y7745D02*
X8655D01*
X9390D02*
X9401D01*
X9710D02*
X9718D01*
X9798D02*
X9808D01*
X9888D02*
X9918D01*
X10000D02*
X10135D01*
X10217D02*
X10240D01*
X10818D02*
X10995D01*
X8988Y7751D02*
X8661D01*
X9710D02*
X9718D01*
X9798D02*
X9808D01*
X9888D02*
X9918D01*
X10000D02*
X10135D01*
X10217D02*
X10249D01*
X10327D02*
X10370D01*
X10818D02*
X10995D01*
X8988Y7757D02*
X8661D01*
X9789D02*
X9798D01*
X9808D01*
X9888D02*
X9918D01*
X10000D02*
X10135D01*
X10336D02*
X10388D01*
X10818D02*
X10995D01*
X8988Y7763D02*
X8661D01*
X9798D02*
X9808D01*
X9888D02*
X9918D01*
X10000D02*
X10135D01*
X10340D02*
X10388D01*
X10818D02*
X10995D01*
X8988Y7769D02*
X8661D01*
X9795D02*
X9808D01*
X9888D02*
X9918D01*
X10000D02*
X10135D01*
X10343D02*
X10384D01*
X10818D02*
X10995D01*
X8988Y7775D02*
X8661D01*
X9796D02*
X9808D01*
X9888D02*
X9918D01*
X10000D02*
X10135D01*
X10343D02*
X10384D01*
X10818D02*
X10995D01*
X8988Y7781D02*
X8661D01*
X9796D02*
X9808D01*
X9888D02*
X9918D01*
X10000D02*
X10135D01*
X10343D02*
X10384D01*
X10818D02*
X10995D01*
X8988Y7787D02*
X8661D01*
X8988D02*
X9078D01*
X9078D02*
X9118D01*
X9794D02*
X9808D01*
X9888D02*
X9918D01*
X10000D02*
X10135D01*
X10341D02*
X10384D01*
X10818D02*
X10995D01*
X8873Y7793D02*
X8661D01*
X8873D02*
X8988D01*
X9078D01*
X9078D02*
X9118D01*
X9790D02*
X9808D01*
X9888D02*
X9918D01*
X10000D02*
X10135D01*
X10338D02*
X10383D01*
X10818D02*
X10995D01*
X8856Y7799D02*
X8661D01*
X8890D02*
X9118D01*
X9725D02*
X9752D01*
X9788D02*
X9808D01*
X9888D02*
X9918D01*
X10000D01*
X10135D01*
X10174D01*
X10194D01*
X10212D01*
X10217D02*
X10245D01*
X10331D02*
X10380D01*
X10818D02*
X10995D01*
X8850Y7805D02*
X8661D01*
X8896D02*
X9118D01*
X9737D02*
X9788D01*
X9808D01*
X9888D02*
X9918D01*
X10000D01*
X10135D01*
X10174D01*
X10194D01*
X10206D01*
X10217D01*
X10220D02*
X10242D01*
X10334D02*
X10377D01*
X10786D02*
X10818D01*
X10995D01*
X11025D01*
X8846Y7811D02*
X8661D01*
X8900D02*
X9118D01*
X9742D02*
X9808D01*
X9888D02*
X9918D01*
X10000D01*
X10135D01*
X10135D02*
X10194D01*
X10339D02*
X10384D01*
X10786D02*
X10818D01*
X10995D01*
X11025D01*
X8845Y7817D02*
X8661D01*
X8901D02*
X9118D01*
X9745D02*
X9808D01*
X9888D02*
X9918D01*
X10000D01*
X10135D01*
X10194D01*
X10342D02*
X10384D01*
X10786D02*
X11025D01*
X8845Y7823D02*
X8661D01*
X8901D02*
X9118D01*
X9649D02*
X9690D01*
X9746D02*
X9808D01*
X9888D02*
X9918D01*
X10000D02*
X10135D01*
X10343D02*
X10384D01*
X10786D02*
X11025D01*
X8846Y7829D02*
X8661D01*
X8900D02*
X9118D01*
X9643D02*
X9690D01*
X9746D02*
X9808D01*
X9888D02*
X9918D01*
X10000D02*
X10135D01*
X10343D02*
X10384D01*
X10786D02*
X11025D01*
X8846Y7835D02*
X8661D01*
X8900D02*
X9118D01*
X9637D02*
X9691D01*
X9745D02*
X9808D01*
X9888D02*
X9918D01*
X10000D02*
X10135D01*
X10342D02*
X10384D01*
X10786D02*
X11025D01*
X8846Y7841D02*
X8661D01*
X8900D02*
X9118D01*
X9631D02*
X9694D01*
X9742D02*
X9808D01*
X9888D02*
X9918D01*
X10000D02*
X10135D01*
X10339D02*
X10384D01*
X10786D02*
X11025D01*
X8846Y7847D02*
X8661D01*
X8900D02*
X9036D01*
X9074D02*
X9118D01*
X9622D02*
X9695D01*
X9741D02*
X9808D01*
X9888D02*
X9918D01*
X10000D02*
X10135D01*
X10220D02*
X10242D01*
X10334D02*
X10384D01*
X10786D02*
X11025D01*
X8846Y7853D02*
X8661D01*
X8900D02*
X9028D01*
X9082D02*
X9118D01*
X9598D02*
X9695D01*
X9741D02*
X9808D01*
X9888D02*
X9918D01*
X10000D02*
X10135D01*
X10217D02*
X10255D01*
X10321D02*
X10384D01*
X10786D02*
X11025D01*
X8846Y7859D02*
X8661D01*
X8900D02*
X9023D01*
X9087D02*
X9118D01*
X9604D02*
X9695D01*
X9741D02*
X9808D01*
X9888D02*
X9918D01*
X10000D02*
X10135D01*
X10217D02*
X10384D01*
X10786D02*
X11025D01*
X8846Y7865D02*
X8661D01*
X8900D02*
X9019D01*
X9091D02*
X9118D01*
X9610D02*
X9695D01*
X9741D02*
X9808D01*
X9890D02*
X9918D01*
X10000D02*
X10135D01*
X10217D02*
X10312D01*
X10384D01*
X10786D02*
X11025D01*
X8846Y7871D02*
X8661D01*
X8900D02*
X9017D01*
X9093D02*
X9115D01*
X9508D02*
X9528D01*
X9560D01*
X9616D02*
X9695D01*
X9741D02*
X9808D01*
X9896D02*
X9918D01*
X10000D02*
X10135D01*
X10217D02*
X10312D01*
X10384D01*
X10786D02*
X11025D01*
X8846Y7877D02*
X8661D01*
X8900D02*
X9016D01*
X9094D02*
X9111D01*
X9118D01*
X9422D02*
X9433D01*
X9438D02*
X9464D01*
X9508D01*
X9512D02*
X9528D01*
X9566D01*
X9622D02*
X9694D01*
X9741D02*
X9808D01*
X9902D02*
X9918D01*
X10000D02*
X10135D01*
X10217D02*
X10312D01*
X10786D02*
X11025D01*
X8846Y7883D02*
X8661D01*
X8900D02*
X9016D01*
X9094D02*
X9117D01*
X9425D02*
X9433D01*
X9438D02*
X9464D01*
X9508D01*
X9512D02*
X9528D01*
X9572D01*
X9628D02*
X9694D01*
X9741D02*
X9808D01*
X9908D02*
X9918D01*
X10000D02*
X10135D01*
X10217D02*
X10312D01*
X10786D02*
X11025D01*
X8846Y7889D02*
X8661D01*
X8900D02*
X9017D01*
X9093D02*
X9118D01*
X9426D02*
X9512D01*
X9741D02*
X9808D01*
X10000D02*
X10135D01*
X10217D02*
X10312D01*
X10786D02*
X11025D01*
X8846Y7895D02*
X8661D01*
X8900D02*
X9018D01*
X9092D02*
X9118D01*
X9129D01*
X9426D02*
X9512D01*
X9741D02*
X9808D01*
X10000D02*
X10135D01*
X10217D02*
X10312D01*
X10786D02*
X11025D01*
X8846Y7901D02*
X8661D01*
X8900D02*
X9021D01*
X9089D02*
X9118D01*
X9135D01*
X9424D02*
X9512D01*
X9741D02*
X9808D01*
X9870D01*
X10000D02*
X10135D01*
X10217D02*
X10312D01*
X10786D02*
X11025D01*
X8846Y7907D02*
X8661D01*
X8900D02*
X9025D01*
X9084D02*
X9118D01*
X9141D01*
X9421D02*
X9512D01*
X9741D02*
X9808D01*
X9876D01*
X10000D02*
X10135D01*
X10217D02*
X10312D01*
X10786D02*
X11025D01*
X9098Y8096D02*
X9052D01*
X10312Y7916D02*
X10358D01*
X8905Y8066D02*
X8878D01*
X8851D01*
X9568Y8016D02*
X9614D01*
X9178Y7942D02*
X9174D01*
X9178D02*
X9198D01*
X9268D01*
X9264D01*
X9268D02*
X9268D01*
X9288D01*
X9288D01*
X9358D01*
X9198Y8032D02*
X9194D01*
X9198D02*
X9238D01*
X9288D01*
X9198Y7950D02*
X9194D01*
X9198D02*
X9268D01*
X9268D01*
X9288D01*
Y8032D02*
X9284D01*
X9288D02*
X9288D01*
X9334D01*
X9372D02*
X9375D01*
X9288Y7950D02*
X9284D01*
X9288D02*
X9288D01*
X9358D01*
X9378D01*
X9519Y8056D02*
X9522D01*
X9524D02*
X9614D01*
X9602Y7976D02*
X9539D01*
X9602D02*
X9604D01*
X9614D01*
X9432Y8056D02*
X9429D01*
X9432D02*
X9522D01*
X9524D01*
X9432Y7976D02*
X9429D01*
X9432D02*
X9492D01*
X9546Y7966D02*
X9602D01*
X9599D01*
X9602D02*
X9604D01*
X9614D01*
X9694D01*
X9695D01*
X10995Y8088D02*
X11102D01*
X11025Y7978D02*
X10995D01*
X10736Y8088D02*
X10708D01*
X10736D02*
X10787D01*
X10786Y7978D02*
X10818D01*
X8728Y8090D02*
X8686D01*
X8964Y8039D02*
X9018D01*
X10608Y8020D02*
X10644D01*
X10312Y7956D02*
X10309D01*
X10312D02*
X10384D01*
X10000Y7924D02*
X9949D01*
X10135Y7924D02*
X10217D01*
X10122Y8072D02*
X10034D01*
X10122Y8030D02*
X10122D01*
X10034Y8053D02*
X10034D01*
X10122Y8033D02*
X10122D01*
X10034Y8013D02*
X10034D01*
X10122Y7971D02*
X10122D01*
X10038Y7951D02*
X10034D01*
X10038D02*
X10122D01*
X10207D02*
X10295D01*
X9832Y8006D02*
X9829D01*
X9832D02*
X9858D01*
X9898D02*
X9922D01*
X9832Y7926D02*
X9829D01*
X9832D02*
X9895D01*
X9919Y8006D02*
X9922D01*
X9924D01*
X9964D01*
X10014D01*
X10000Y7926D02*
X9950D01*
X10000D02*
X10014D01*
X9832Y8096D02*
X9829D01*
X9832D02*
X9850D01*
X9922D01*
X9832Y8016D02*
X9829D01*
X9832D02*
X9858D01*
X9898D02*
X9922D01*
Y8096D02*
X9919D01*
X9922D02*
X9924D01*
X9936D01*
X9958D01*
X9998D02*
X10014D01*
X9922Y8016D02*
X9919D01*
X9922D02*
X9924D01*
X10014D01*
X9622Y8096D02*
X9619D01*
X9622D02*
X9681D01*
X9622Y8016D02*
X9619D01*
X9622D02*
X9694D01*
X9792Y8096D02*
X9804D01*
Y8016D02*
X9742D01*
X9334Y8066D02*
X9272D01*
X10650Y8091D02*
X10708D01*
X10736D01*
X9902Y8106D02*
X9850D01*
X9902D02*
X9922D01*
X9924D01*
X9936D01*
X9142Y8056D02*
X9116D01*
X9139D02*
X9142D01*
X9144D01*
X9234D01*
X8738Y8090D02*
X8734D01*
X8738D02*
X8818D01*
X10596D02*
X10608D01*
X10184Y8004D02*
X10172D01*
X9020Y8056D02*
X9018D01*
X10295Y8012D02*
X10343D01*
X9045Y8032D02*
X9034D01*
X9045D02*
X9061D01*
X9085D01*
X9114Y7992D02*
X9125D01*
X9141D01*
X9198D01*
Y8030D02*
X9141D01*
X9418Y7996D02*
X9432D01*
Y8036D02*
X9418D01*
X9026Y7934D02*
X8900D01*
X8873Y7988D02*
X9028D01*
X10640Y8020D02*
X10644D01*
X10694D01*
X10708D01*
X10025Y8010D02*
X10014D01*
X10025D02*
X10034D01*
X10034D01*
X10026Y7956D02*
X10014D01*
X10026D02*
X10034D01*
X10038D01*
X8748Y8022D02*
X8745D01*
X8798D02*
X8930D01*
X8946D01*
X8958D01*
X8748Y8060D02*
X8745D01*
X8798D02*
X8838D01*
X8688Y8022D02*
X8685D01*
X8688D02*
X8700D01*
X8716D01*
X8748D01*
X8798D01*
X8748Y8060D02*
X8716D01*
X8748D02*
X8798D01*
X10186Y7990D02*
X10199D01*
X10207D01*
X9155Y7920D02*
X9144D01*
X9155D02*
X9171D01*
X9178D01*
X8846Y7913D02*
X8661D01*
X8900D02*
X9032D01*
X9078D02*
X9144D01*
X9358D02*
X9381D01*
X9418D02*
X9512D01*
X9741D02*
X9832D01*
X9882D01*
X10000D02*
X10014D01*
X10135D01*
X10217D02*
X10312D01*
X10786D02*
X11025D01*
X8846Y7919D02*
X8661D01*
X8900D02*
X9045D01*
X9065D02*
X9144D01*
X9153D01*
X9358D02*
X9398D01*
X9418D01*
X9512D01*
X9741D02*
X9832D01*
X9888D01*
X10000D02*
X10014D01*
X10135D01*
X10217D02*
X10312D01*
X10786D02*
X11025D01*
X8846Y7925D02*
X8661D01*
X8900D02*
X9037D01*
X9072D02*
X9144D01*
X9159D01*
X9167D01*
X9178D01*
X9358D02*
X9512D01*
X9741D02*
X9832D01*
X9894D01*
X9950D02*
X10000D01*
X10014D01*
X10135D01*
X10217D01*
X10312D01*
X10786D02*
X11025D01*
X8846Y7931D02*
X8661D01*
X8900D02*
X9029D01*
X9081D02*
X9144D01*
X9178D01*
X9358D02*
X9512D01*
X9741D02*
X9832D01*
X10014D02*
X10135D01*
X10217D01*
X10312D01*
X10786D02*
X11025D01*
X8846Y7937D02*
X8661D01*
X9087D02*
X9178D01*
X9358D02*
X9512D01*
X9741D02*
X9832D01*
X10014D02*
X10135D01*
X10217D01*
X10312D01*
X10786D02*
X11025D01*
X8846Y7943D02*
X8661D01*
X9090D02*
X9178D01*
X9198D01*
X9268D01*
X9268D02*
X9288D01*
X9288D02*
X9358D01*
X9378D01*
X9512D01*
X9741D02*
X9832D01*
X10014D02*
X10034D01*
X10122D01*
X10207D01*
X10295D01*
X10312D01*
X10786D02*
X11025D01*
X8846Y7949D02*
X8661D01*
X9092D02*
X9178D01*
X9198D01*
X9268D01*
X9268D02*
X9288D01*
X9288D02*
X9358D01*
X9378D01*
X9510D01*
X9741D02*
X9832D01*
X10019D02*
X10034D01*
X10038D02*
X10122D01*
X10207D01*
X10295D01*
X10312D01*
X10786D02*
X11025D01*
X8846Y7955D02*
X8661D01*
X9094D02*
X9198D01*
X9378D02*
X9506D01*
X9741D02*
X9832D01*
X10014D02*
X10025D01*
X10034D01*
X10122D02*
X10207D01*
X10295D02*
X10312D01*
X10786D02*
X11025D01*
X8846Y7961D02*
X8661D01*
X9094D02*
X9198D01*
X9378D02*
X9502D01*
X9741D02*
X9832D01*
X10122D02*
X10207D01*
X10295D02*
X10312D01*
X10384D01*
X10786D02*
X11025D01*
X8846Y7967D02*
X8661D01*
X9093D02*
X9198D01*
X9378D02*
X9432D01*
X9498D01*
X9545D02*
X9602D01*
X9604D02*
X9614D01*
X9694D01*
X9741D02*
X9832D01*
X10122D02*
X10207D01*
X10295D02*
X10312D01*
X10384D01*
X10786D02*
X10818D01*
X10995D01*
X11025D01*
X8846Y7973D02*
X8661D01*
X9092D02*
X9198D01*
X9378D02*
X9432D01*
X9494D01*
X9541D02*
X9602D01*
X9604D02*
X9614D01*
X9694D01*
X9741D02*
X9832D01*
X10122D02*
X10207D01*
X10295D02*
X10384D01*
X10786D02*
X10818D01*
X10995D01*
X11025D01*
X8852Y7979D02*
X8661D01*
X9089D02*
X9114D01*
X9198D01*
X9378D02*
X9432D01*
X9614D02*
X9694D01*
X9741D02*
X9832D01*
X10122D02*
X10186D01*
X10207D01*
X10295D02*
X10384D01*
X10818D02*
X10995D01*
X8860Y7985D02*
X8661D01*
X9085D02*
X9114D01*
X9131D01*
X9135D02*
X9198D01*
X9378D02*
X9432D01*
X9614D02*
X9695D01*
X9741D02*
X9832D01*
X10122D02*
X10186D01*
X10204D01*
X10295D02*
X10384D01*
X10818D02*
X10995D01*
X9031Y7991D02*
X8661D01*
X9079D02*
X9114D01*
X9125D01*
X9141D01*
X9198D01*
X9411D02*
X9432D01*
X9614D02*
X9692D01*
X9744D02*
X9832D01*
X10122D02*
X10186D01*
X10198D01*
X10295D02*
X10384D01*
X10818D02*
X10995D01*
X9042Y7997D02*
X8661D01*
X9068D02*
X9114D01*
X9614D02*
X9690D01*
X9746D02*
X9832D01*
X10122D02*
X10172D01*
X10186D01*
X10295D02*
X10384D01*
X10818D02*
X10995D01*
X9113Y8003D02*
X8661D01*
X9614D02*
X9622D01*
X9690D01*
X9746D02*
X9804D01*
X9832D01*
X10122D02*
X10172D01*
X10186D01*
X10295D02*
X10363D01*
X10382D01*
X10818D02*
X10995D01*
X11105D02*
X11120D01*
X8688Y8009D02*
X8661D01*
X8688D02*
X8748D01*
X8798D01*
X8958D01*
X9107D01*
X9614D02*
X9622D01*
X9691D01*
X9745D02*
X9804D01*
X9832D01*
X9858D01*
X9898D02*
X9922D01*
X9924D02*
X10014D01*
X10023D01*
X10122D02*
X10172D01*
X10180D01*
X10295D02*
X10346D01*
X10818D02*
X10995D01*
X11105D02*
X11165D01*
X8688Y8015D02*
X8661D01*
X8688D02*
X8706D01*
X8710D02*
X8748D01*
X8798D01*
X8936D01*
X8940D02*
X8958D01*
X9101D01*
X9614D02*
X9622D01*
X9694D01*
X9742D02*
X9804D01*
X9832D01*
X9858D01*
X9898D02*
X9922D01*
X9924D02*
X10014D01*
X10029D01*
X10122D02*
X10172D01*
X10818D02*
X10995D01*
X11105D02*
X11165D01*
X8688Y8021D02*
X8661D01*
X8688D02*
X8700D01*
X8716D01*
X8748D01*
X8798D01*
X8930D01*
X8946D01*
X8958D01*
X9034D01*
X9095D01*
X9614D02*
X9622D01*
X9804D02*
X9832D01*
X10014D02*
X10034D01*
X10122D02*
X10168D01*
X10608D02*
X10644D01*
X10694D01*
X10708D01*
X10818D02*
X10995D01*
X11105D02*
X11119D01*
X8688Y8027D02*
X8661D01*
X8958D02*
X9018D01*
X9034D01*
X9049D01*
X9057D01*
X9089D01*
X9614D02*
X9622D01*
X9804D02*
X9832D01*
X10014D02*
X10034D01*
X10122D02*
X10164D01*
X10172D01*
X10608D02*
X10644D01*
X10694D01*
X10708D01*
X10818D02*
X10995D01*
X8688Y8033D02*
X8661D01*
X8958D02*
X9018D01*
X9034D01*
X9043D01*
X9139D02*
X9198D01*
X9238D01*
X9288D01*
X9288D02*
X9334D01*
X9614D02*
X9622D01*
X9804D02*
X9832D01*
X10014D02*
X10034D01*
X10122D02*
X10170D01*
X10608D02*
X10644D01*
X10694D01*
X10708D01*
X10818D02*
X10995D01*
X8682Y8039D02*
X8661D01*
X8964D02*
X9018D01*
X9034D01*
X9133D02*
X9198D01*
X9238D01*
X9288D01*
X9288D02*
X9334D01*
X9414D02*
X9432D01*
X9614D02*
X9622D01*
X9804D02*
X9832D01*
X10014D02*
X10034D01*
X10122D02*
X10172D01*
X10608D02*
X10708D01*
X10818D02*
X10995D01*
X8676Y8045D02*
X8661D01*
X9018D02*
X9031D01*
X9127D02*
X9142D01*
X9144D02*
X9234D01*
X9334D01*
X9378D02*
X9432D01*
X9614D02*
X9622D01*
X9804D02*
X9832D01*
X10014D02*
X10034D01*
X10122D02*
X10172D01*
X10608D02*
X10708D01*
X10818D02*
X10995D01*
X8670Y8051D02*
X8661D01*
X9121D02*
X9142D01*
X9144D02*
X9234D01*
X9334D01*
X9372D02*
X9432D01*
X9614D02*
X9622D01*
X9804D02*
X9832D01*
X10014D02*
X10034D01*
X10122D02*
X10172D01*
X10608D02*
X10708D01*
X10818D02*
X10995D01*
X9272Y8057D02*
X9234D01*
X9272D02*
X9334D01*
X9372D02*
X9432D01*
X9522D01*
X9524D02*
X9614D01*
X9622D01*
X9804D02*
X9832D01*
X10014D02*
X10034D01*
X10122D02*
X10172D01*
X10608D02*
X10708D01*
X10822D02*
X10995D01*
X8748Y8063D02*
X8714D01*
X8748D02*
X8798D01*
X8838D01*
X9234D02*
X9272D01*
X9334D01*
X9372D02*
X9432D01*
X9522D01*
X9524D02*
X9614D01*
X9622D01*
X9804D02*
X9832D01*
X10014D02*
X10034D01*
X10122D02*
X10172D01*
X10608D02*
X10708D01*
X10828D02*
X10995D01*
X8748Y8069D02*
X8708D01*
X8748D02*
X8798D01*
X8838D01*
X9234D02*
X9272D01*
X9372D02*
X9432D01*
X9522D01*
X9524D02*
X9614D01*
X9622D01*
X9804D02*
X9832D01*
X10014D02*
X10034D01*
X10122D02*
X10172D01*
X10614D02*
X10708D01*
X10834D02*
X10995D01*
X8838Y8075D02*
X8702D01*
X9234D02*
X9272D01*
X9372D02*
X9622D01*
X9804D02*
X9832D01*
X10014D02*
X10034D01*
X10122D01*
X10172D01*
X10612D02*
X10708D01*
X10840D02*
X10995D01*
X8728Y8081D02*
X8696D01*
X8728D02*
X8738D01*
X8818D01*
X8838D01*
X9234D02*
X9272D01*
X9372D02*
X9622D01*
X9804D02*
X9832D01*
X10014D02*
X10034D01*
X10122D01*
X10172D01*
X10608D02*
X10650D01*
X10708D01*
X10845D02*
X10995D01*
X8728Y8087D02*
X8690D01*
X8728D02*
X8738D01*
X8818D01*
X8838D01*
X9234D02*
X9272D01*
X9372D02*
X9622D01*
X9804D02*
X9832D01*
X10014D02*
X10172D01*
X10600D02*
X10608D01*
X10650D01*
X10708D01*
X10851D02*
X10995D01*
X8738Y8093D02*
X8728D01*
X8818D02*
X8838D01*
X9234D02*
X9272D01*
X9372D02*
X9622D01*
X9804D02*
X9832D01*
X10014D02*
X10172D01*
X10596D02*
X10608D01*
X10650D01*
X10736D02*
X10792D01*
X10851D02*
X10995D01*
X11074D01*
X11093D01*
X11105D01*
X8738Y8099D02*
X8728D01*
X8818D02*
X8838D01*
X9234D02*
X9272D01*
X9372D02*
X9622D01*
X9683D01*
X9792D02*
X9804D01*
X9814D01*
X9832D01*
X9850D01*
X9902D01*
X9922D01*
X9924D02*
X9936D01*
X9958D01*
X9998D02*
X10014D01*
X10072D01*
X10162D01*
X10164D02*
X10172D01*
X10595D02*
X10608D01*
X10650D01*
X10736D02*
X10798D01*
X10851D02*
X10995D01*
X11074D01*
X8738Y8105D02*
X8728D01*
X8818D02*
X8838D01*
X9234D02*
X9272D01*
X9372D02*
X9382D01*
X9464D01*
X9482D01*
X9564D01*
X9622D01*
X9642D01*
X9689D01*
X9792D02*
X9804D01*
X9814D01*
X9823D01*
X9850D02*
X9902D01*
X9922D01*
X9924D02*
X9936D01*
X9958D01*
X9998D02*
X10014D01*
X10072D01*
X10162D01*
X10164D02*
X10172D01*
X10592D02*
X10650D01*
X10736D02*
X10804D01*
X10851D02*
X11070D01*
X11116D02*
X11125D01*
X11153D02*
X11165D01*
X9125Y8171D02*
X9098D01*
X9071D01*
X9683Y8141D02*
X9710D01*
X9683D02*
X9656D01*
X10693Y8126D02*
X10728D01*
X10693D02*
X10658D01*
X10978Y8191D02*
X11024D01*
X9313Y8111D02*
X9268D01*
X8910Y8216D02*
X8888D01*
X8866D01*
X9423Y8179D02*
X9450D01*
X9423D02*
X9396D01*
X8734Y8136D02*
X8688D01*
X8642D01*
X10072Y8151D02*
X10118D01*
X10072Y8192D02*
X10069D01*
X10072D02*
X10162D01*
X10072Y8110D02*
X10069D01*
X10072D02*
X10162D01*
Y8192D02*
X10159D01*
X10162D02*
X10164D01*
X10186D01*
X10162Y8110D02*
X10159D01*
X10162D02*
X10164D01*
X10172D01*
X10701Y8273D02*
X10715D01*
X10672D02*
X10601D01*
X10568D02*
X10558D01*
X10568D02*
X10572D01*
X10361D02*
X10308D01*
X10172D02*
X10101D01*
X10072D02*
X10001D01*
X9915D02*
X9901D01*
X9961D02*
X9972D01*
X9872D02*
X9801D01*
X9772D02*
X9700D01*
X9672D02*
X9608D01*
X9568D02*
X9524D01*
X9465D02*
X9400D01*
X9465D02*
X9466D01*
X9372D02*
X9338D01*
X9200D02*
X9198D01*
X9200D02*
X9213D01*
X9213D01*
X9238D01*
X9272D01*
X9172D02*
X9163D01*
X8902D02*
X8900D01*
X8902D02*
X8922D01*
X8934D01*
X8958D01*
X8972D01*
X8818D02*
X8800D01*
X8818D02*
X8854D01*
X8872D01*
X8648Y8182D02*
X8644D01*
Y8272D02*
X8648D01*
X8728D01*
X8648Y8180D02*
X8644D01*
X8963Y8168D02*
X8964D01*
X8998D01*
X9002D01*
X9008D01*
X9008D01*
X9018D01*
X9382Y8114D02*
X9387D01*
X9389D01*
X9432D01*
X9464D01*
X9482Y8168D02*
X9564D01*
Y8114D02*
X9482D01*
X8854Y8264D02*
X8850D01*
X8854D02*
X8872D01*
X8900D01*
X8902D01*
X8922D01*
X8930D02*
X8934D01*
X8948D01*
X8958D01*
X8958D01*
X8968D01*
X8964Y8168D02*
X8963D01*
X8964D02*
X8998D01*
X9002D01*
X8923Y8238D02*
X8922D01*
X9272Y8246D02*
X9278D01*
X9289D01*
X9337D02*
X9354D01*
X10839Y8150D02*
X10842D01*
X10932D01*
X10929D01*
X10932D02*
X10934D01*
X11024D01*
X10737Y8199D02*
X10736D01*
X10737D02*
X10823D01*
X10737Y8129D02*
X10736D01*
Y8161D02*
X10650D01*
X10736D02*
X10737D01*
X10714Y8236D02*
X10650D01*
Y8166D02*
X10736D01*
X10737D01*
X10616Y8206D02*
X10568D01*
Y8126D02*
X10638D01*
X9937Y8214D02*
X9936D01*
X9937D02*
X10023D01*
X9937Y8144D02*
X9936D01*
X9937D02*
X9958D01*
X9998D02*
X10023D01*
X9936Y8176D02*
X9863D01*
X9936D02*
X9937D01*
X9862Y8251D02*
X9850D01*
X9862D02*
X9910D01*
X9936Y8181D02*
X9869D01*
X9936D02*
X9937D01*
X9699Y8114D02*
X9642D01*
X9792D02*
X9811D01*
X9058Y8136D02*
X9056D01*
X9058D02*
X9121D01*
X9128D01*
X9175D02*
X9234D01*
X9128Y8144D02*
X9058D01*
X9198Y8273D02*
X9200D01*
X9212D02*
X9214D01*
X9184Y8144D02*
X9168D01*
X9184D02*
X9234D01*
X9238D01*
X8638Y8272D02*
X8561D01*
X8734Y8182D02*
X8738D01*
Y8272D02*
X8734D01*
X8738D02*
X8764D01*
X8800D01*
X8818D01*
X8738Y8180D02*
X8734D01*
X10558Y8266D02*
X10568D01*
X10415Y8156D02*
X10411D01*
X10415D02*
X10418D01*
X10190Y8272D02*
X10186D01*
X9725Y8200D02*
X9724D01*
X9580Y8236D02*
X9568D01*
X9375Y8126D02*
X9372D01*
X8925Y8240D02*
X8922D01*
X8638Y8283D02*
X8561D01*
X8638D02*
X8648D01*
X8728D01*
X8738D01*
X8788D01*
X10754Y8228D02*
X10842D01*
X11024D02*
X11043D01*
X10868Y8274D02*
X10772D01*
X10868D02*
X10908D01*
X11033D01*
X10634Y8220D02*
X10630D01*
X10646Y8182D02*
X10650D01*
X10618Y8220D02*
X10615D01*
X10618D02*
X10630D01*
X10634D01*
X10646D01*
X10650D01*
X9380Y8122D02*
X9372D01*
X9380D02*
X9382D01*
X9238Y8136D02*
X9235D01*
X9238D02*
X9250D01*
X9266D01*
X9272D01*
Y8240D02*
X9246D01*
X9354Y8239D02*
X9382D01*
X9008Y8172D02*
X9002D01*
X9008D02*
X9011D01*
X9018D01*
X9022D01*
X9036Y8196D02*
X9058D01*
X9000Y8296D02*
X8988D01*
X9000D02*
X9000D01*
X9072D02*
X9100D01*
X8854Y8260D02*
X8818D01*
X8648Y8206D02*
X8638D01*
X8728D02*
X8738D01*
X8648Y8246D02*
X8638D01*
X8728D02*
X8738D01*
X8646Y8130D02*
X8638D01*
X8646D02*
X8648D01*
X8818Y8142D02*
X8820D01*
X8836D01*
X8838D01*
X8738Y8111D02*
X8728D01*
X8818D02*
X8838D01*
X9234D02*
X9272D01*
X9372D02*
X9382D01*
X9432D01*
X9464D01*
X9482D01*
X9564D01*
X9642D01*
X9695D01*
X9792D02*
X9813D01*
X9936D02*
X9958D01*
X9998D02*
X10072D01*
X10164D02*
X10172D01*
X10588D02*
X10650D01*
X10736D02*
X10805D01*
X10851D02*
X11067D01*
X11119D02*
X11165D01*
X8738Y8117D02*
X8728D01*
X8818D02*
X8838D01*
X9234D02*
X9272D01*
X9372D02*
X9382D01*
X9464D02*
X9482D01*
X9564D02*
X9642D01*
X9936D02*
X9958D01*
X9998D02*
X10072D01*
X10578D02*
X10638D01*
X10650D01*
X10737D02*
X10804D01*
X10851D02*
X11065D01*
X11121D02*
X11131D01*
X11147D02*
X11165D01*
X8738Y8123D02*
X8728D01*
X8818D02*
X8838D01*
X9234D02*
X9272D01*
X9464D02*
X9482D01*
X9564D02*
X9642D01*
X9936D02*
X9958D01*
X9998D02*
X10072D01*
X10568D02*
X10638D01*
X10650D01*
X10737D02*
X10798D01*
X10851D02*
X11065D01*
X8738Y8129D02*
X8728D01*
X8818D02*
X8838D01*
X9238D02*
X9257D01*
X9259D02*
X9272D01*
X9464D02*
X9482D01*
X9564D02*
X9642D01*
X9936D02*
X9958D01*
X9998D02*
X10072D01*
X10638D02*
X10650D01*
X10737D02*
X10792D01*
X10851D02*
X11066D01*
X8738Y8135D02*
X8728D01*
X8818D02*
X8826D01*
X8830D02*
X8838D01*
X9238D02*
X9251D01*
X9265D01*
X9272D01*
X9464D02*
X9482D01*
X9564D02*
X9642D01*
X9937D02*
X9958D01*
X9998D02*
X10023D01*
X10072D01*
X10638D02*
X10650D01*
X10851D02*
X11069D01*
X8648Y8141D02*
X8638D01*
X8728D02*
X8738D01*
X8820D02*
X8836D01*
X9058D02*
X9125D01*
X9171D02*
X9234D01*
X9464D02*
X9482D01*
X9564D02*
X9642D01*
X9937D02*
X9958D01*
X9998D02*
X10023D01*
X10072D01*
X10638D02*
X10650D01*
X10845D02*
X10932D01*
X10934D02*
X11024D01*
X11073D01*
X8648Y8147D02*
X8638D01*
X8728D02*
X8738D01*
X9464D02*
X9482D01*
X9564D02*
X9642D01*
X10023D02*
X10072D01*
X10638D02*
X10650D01*
X10842D02*
X10932D01*
X10934D02*
X11024D01*
X11074D01*
X8648Y8153D02*
X8638D01*
X8728D02*
X8738D01*
X9464D02*
X9482D01*
X9564D02*
X9642D01*
X10023D02*
X10072D01*
X10638D02*
X10650D01*
X10834D02*
X10842D01*
X11024D02*
X11074D01*
X8648Y8159D02*
X8638D01*
X8728D02*
X8738D01*
X9049D02*
X9058D01*
X9464D02*
X9482D01*
X9564D02*
X9642D01*
X10023D02*
X10072D01*
X10408D02*
X10418D01*
X10638D02*
X10650D01*
X10828D02*
X10842D01*
X11024D02*
X11074D01*
X8648Y8165D02*
X8638D01*
X8728D02*
X8738D01*
X9048D02*
X9058D01*
X9464D02*
X9482D01*
X9564D02*
X9642D01*
X10023D02*
X10072D01*
X10402D02*
X10418D01*
X10638D02*
X10650D01*
X10736D01*
X10823D02*
X10842D01*
X11024D02*
X11074D01*
X8648Y8171D02*
X8638D01*
X8728D02*
X8738D01*
X9011D02*
X9018D01*
X9022D02*
X9048D01*
X9058D01*
X9464D02*
X9482D01*
X9564D01*
X9642D01*
X10023D02*
X10072D01*
X10396D02*
X10418D01*
X10638D02*
X10650D01*
X10823D02*
X10842D01*
X11024D02*
X11074D01*
X8648Y8177D02*
X8638D01*
X8728D02*
X8738D01*
X9022D02*
X9058D01*
X9464D02*
X9482D01*
X9564D01*
X9639D01*
X9864D02*
X9936D01*
X10023D02*
X10072D01*
X10390D02*
X10418D01*
X10642D02*
X10650D01*
X10823D02*
X10842D01*
X11024D02*
X11074D01*
X8648Y8183D02*
X8638D01*
X8728D02*
X8738D01*
X9023D02*
X9058D01*
X9464D02*
X9482D01*
X9564D01*
X9633D01*
X10023D02*
X10072D01*
X10384D02*
X10418D01*
X10823D02*
X10842D01*
X11024D02*
X11074D01*
X8648Y8189D02*
X8638D01*
X8728D02*
X8738D01*
X9029D02*
X9058D01*
X9464D02*
X9482D01*
X9564D01*
X9627D01*
X10023D02*
X10072D01*
X10378D02*
X10418D01*
X10823D02*
X10842D01*
X11024D02*
X11074D01*
X8648Y8195D02*
X8638D01*
X8728D02*
X8738D01*
X9035D02*
X9058D01*
X9464D02*
X9482D01*
X9564D02*
X9621D01*
X10023D02*
X10072D01*
X10162D01*
X10164D02*
X10186D01*
X10372D02*
X10418D01*
X10823D02*
X10842D01*
X11024D02*
X11074D01*
X8648Y8201D02*
X8638D01*
X8728D02*
X8738D01*
X9464D02*
X9482D01*
X9564D02*
X9615D01*
X10023D02*
X10072D01*
X10162D01*
X10164D02*
X10186D01*
X10366D02*
X10418D01*
X10737D02*
X10823D01*
X10842D01*
X11024D02*
X11073D01*
X9482Y8207D02*
X9464D01*
X9564D02*
X9609D01*
X9724D02*
X9731D01*
X10023D02*
X10186D01*
X10360D02*
X10418D01*
X10568D02*
X10616D01*
X10737D02*
X10823D01*
X10842D01*
X11024D02*
X11069D01*
X9482Y8213D02*
X9464D01*
X9564D02*
X9603D01*
X9724D02*
X9737D01*
X10023D02*
X10186D01*
X10354D02*
X10418D01*
X10568D02*
X10618D01*
X10736D02*
X10842D01*
X11024D02*
X11066D01*
X9482Y8219D02*
X9464D01*
X9564D02*
X9597D01*
X9724D02*
X9742D01*
X9937D02*
X10023D01*
X10186D01*
X10348D02*
X10418D01*
X10568D02*
X10618D01*
X10628D01*
X10736D02*
X10842D01*
X11024D02*
X11065D01*
X9482Y8225D02*
X9464D01*
X9568D02*
X9591D01*
X9724D02*
X9742D01*
X9948D02*
X10023D01*
X10186D01*
X10342D02*
X10416D01*
X10568D02*
X10618D01*
X10634D01*
X10634D02*
X10642D01*
X10650D01*
X10748D02*
X10842D01*
X11024D02*
X11065D01*
X9482Y8231D02*
X9464D01*
X9568D02*
X9585D01*
X9724D02*
X9742D01*
X9958D02*
X10186D01*
X10336D02*
X10410D01*
X10568D02*
X10618D01*
X10634D01*
X10650D01*
X11054D02*
X11067D01*
X9482Y8237D02*
X9464D01*
X9568D02*
X9579D01*
X9635D02*
X9642D01*
X9724D02*
X9742D01*
X9962D02*
X10184D01*
X10330D02*
X10404D01*
X10568D02*
X10650D01*
X10714D01*
X11062D02*
X11070D01*
X9272Y8243D02*
X9244D01*
X9354D02*
X9382D01*
X9464D01*
X9482D01*
X9490D01*
X9536D02*
X9564D01*
X9629D02*
X9642D01*
X9724D01*
X9742D01*
X9778D01*
X9824D01*
X9965D02*
X10181D01*
X10324D02*
X10398D01*
X10573D02*
X10650D01*
X10711D01*
X8648Y8249D02*
X8638D01*
X8728D02*
X8738D01*
X8922D02*
X8933D01*
X9238D02*
X9272D01*
X9278D02*
X9288D01*
X9338D02*
X9354D01*
X9382D01*
X9464D01*
X9482D01*
X9536D02*
X9564D01*
X9623D02*
X9642D01*
X9724D01*
X9742D01*
X9778D01*
X9824D01*
X9843D01*
X9850D01*
X9966D02*
X10180D01*
X10318D02*
X10392D01*
X10573D02*
X10710D01*
X11074D02*
X11093D01*
X8648Y8255D02*
X8638D01*
X8728D02*
X8738D01*
X8922D02*
X8934D01*
X9238D02*
X9272D01*
X9286D01*
X9340D02*
X9354D01*
X9382D01*
X9464D01*
X9480D01*
X9536D02*
X9561D01*
X9617D02*
X9642D01*
X9724D01*
X9742D01*
X9824D01*
X9850D01*
X9910D01*
X9966D02*
X10180D01*
X10312D02*
X10378D01*
X10568D02*
X10710D01*
X11080D02*
X11094D01*
X8648Y8261D02*
X8638D01*
X8728D02*
X8738D01*
X8818D02*
X8854D01*
X8922D02*
X8934D01*
X9238D02*
X9272D01*
X9285D01*
X9341D02*
X9372D01*
X9400D01*
X9472D01*
X9536D02*
X9565D01*
X9611D02*
X9672D01*
X9700D01*
X9772D01*
X9801D01*
X9850D01*
X9872D01*
X9901D01*
X9912D01*
X9964D02*
X9972D01*
X10001D01*
X10072D01*
X10101D01*
X10172D01*
X10182D01*
X10308D02*
X10368D01*
X10572D02*
X10601D01*
X10672D01*
X10701D01*
X10712D01*
X11086D02*
X11094D01*
X8648Y8267D02*
X8638D01*
X8728D02*
X8738D01*
X8818D02*
X8854D01*
X8872D01*
X8900D01*
X8902D02*
X8922D01*
X8934D01*
X8951D01*
X8958D02*
X8971D01*
X9238D02*
X9272D01*
X9286D01*
X9340D02*
X9372D01*
X9400D01*
X9470D01*
X9530D02*
X9568D01*
X9608D02*
X9672D01*
X9700D01*
X9772D01*
X9801D01*
X9872D01*
X9901D01*
X9915D01*
X9961D02*
X9972D01*
X10001D01*
X10072D01*
X10101D01*
X10172D01*
X10185D01*
X10308D02*
X10364D01*
X10558D02*
X10568D01*
X10572D02*
X10601D01*
X10672D01*
X10701D01*
X10715D01*
X8638Y8273D02*
X8561D01*
X8638D02*
X8648D01*
X8728D01*
X8738D01*
X8764D01*
X8800D01*
X8818D01*
X8854D01*
X8872D01*
X8900D01*
X8902D02*
X8922D01*
X8934D01*
X8958D01*
X8972D01*
X9164D02*
X9172D01*
X9198D01*
X9200D02*
X9212D01*
X9214D02*
X9238D01*
X9272D01*
X9288D01*
X9338D02*
X9372D01*
X9400D01*
X9465D01*
X9525D02*
X9568D01*
X9608D02*
X9672D01*
X9700D01*
X9772D01*
X9801D01*
X9872D01*
X9901D01*
X9915D01*
X9961D02*
X9972D01*
X10001D01*
X10072D01*
X10101D01*
X10172D01*
X10186D01*
X10308D02*
X10361D01*
X10558D02*
X10568D01*
X10572D02*
X10601D01*
X10672D01*
X10701D01*
X10715D01*
X8638Y8279D02*
X8561D01*
X8638D02*
X8648D01*
X8728D01*
X8738D01*
X8800D01*
X8872D02*
X8900D01*
X8972D02*
X8983D01*
X9172D02*
X9200D01*
X9272D02*
X9292D01*
X9372D02*
X9400D01*
X9672D02*
X9700D01*
X9772D02*
X9801D01*
X9872D02*
X9901D01*
X9972D02*
X10001D01*
X10072D02*
X10101D01*
X10172D02*
X10186D01*
X10201D01*
X10572D02*
X10601D01*
X10672D02*
X10701D01*
X10772D02*
X10868D01*
X10908D01*
X11038D01*
X8900Y8285D02*
X8872D01*
X8972D02*
X8988D01*
X9172D02*
X9200D01*
X9272D02*
X9294D01*
X9372D02*
X9400D01*
X9672D02*
X9700D01*
X9772D02*
X9801D01*
X9872D02*
X9901D01*
X9972D02*
X10001D01*
X10072D02*
X10101D01*
X10172D02*
X10186D01*
X10201D01*
X10572D02*
X10601D01*
X10672D02*
X10701D01*
X10772D02*
X11044D01*
X8900Y8291D02*
X8872D01*
X8972D02*
X8988D01*
X9172D02*
X9200D01*
X9272D02*
X9294D01*
X9372D02*
X9400D01*
X9672D02*
X9700D01*
X9772D02*
X9801D01*
X9872D02*
X9901D01*
X9972D02*
X10001D01*
X10072D02*
X10101D01*
X10172D02*
X10201D01*
X10572D02*
X10601D01*
X10672D02*
X10701D01*
X10772D02*
X11050D01*
X8900Y8297D02*
X8872D01*
X8972D02*
X8988D01*
X9000D01*
X9072D02*
X9100D01*
X9172D02*
X9200D01*
X9272D02*
X9300D01*
X9372D02*
X9400D01*
X9672D02*
X9700D01*
X9772D02*
X9801D01*
X9872D02*
X9901D01*
X9972D02*
X10001D01*
X10072D02*
X10101D01*
X10172D02*
X10201D01*
X10572D02*
X10601D01*
X10672D02*
X10701D01*
X10772D02*
X11056D01*
X8900Y8303D02*
X8872D01*
X8972D02*
X8988D01*
X9000D01*
X9072D02*
X9100D01*
X9172D02*
X9200D01*
X9272D02*
X9300D01*
X9372D02*
X9400D01*
X9672D02*
X9700D01*
X9772D02*
X9801D01*
X9872D02*
X9901D01*
X9972D02*
X10001D01*
X10072D02*
X10101D01*
X10172D02*
X10201D01*
X10572D02*
X10601D01*
X10672D02*
X10701D01*
X10772D02*
X11062D01*
X8872Y8330D02*
X8836D01*
X10336D02*
X10372D01*
X10701Y8387D02*
X10772D01*
X10618D02*
X10601D01*
X10658D02*
X10672D01*
X10572D02*
X10502D01*
X10418D02*
X10401D01*
X10372D02*
X10308D01*
X10224D02*
X10201D01*
X10172D02*
X10101D01*
X10072D02*
X10001D01*
X9915D02*
X9901D01*
X9961D02*
X9972D01*
X9818D02*
X9801D01*
X9858D02*
X9872D01*
X9718D02*
X9700D01*
X9758D02*
X9772D01*
X9614D02*
X9608D01*
X9652D02*
X9672D01*
X9568D02*
X9511D01*
X9465D02*
X9400D01*
X9372D02*
X9300D01*
X9272D02*
X9200D01*
X9172D02*
X9100D01*
X9014D02*
X9000D01*
X9052D02*
X9072D01*
X8972D02*
X8900D01*
X8872D02*
X8811D01*
X10214Y8482D02*
X10224D01*
X10225D01*
X10296Y8466D02*
X10308D01*
X9605Y8450D02*
X9601D01*
X8817Y8478D02*
X8811D01*
X11100Y8334D02*
X11103D01*
X11103D01*
X11175D02*
X11178D01*
X11188D01*
X8900Y8309D02*
X8872D01*
X8972D02*
X9000D01*
X9072D02*
X9100D01*
X9172D02*
X9200D01*
X9272D02*
X9300D01*
X9372D02*
X9400D01*
X9672D02*
X9700D01*
X9772D02*
X9801D01*
X9872D02*
X9901D01*
X9972D02*
X10001D01*
X10072D02*
X10101D01*
X10172D02*
X10201D01*
X10372D02*
X10388D01*
X10401D01*
X10572D02*
X10601D01*
X10672D02*
X10701D01*
X10772D02*
X11068D01*
X8900Y8315D02*
X8872D01*
X8972D02*
X9000D01*
X9072D02*
X9100D01*
X9172D02*
X9200D01*
X9272D02*
X9300D01*
X9372D02*
X9400D01*
X9672D02*
X9700D01*
X9772D02*
X9801D01*
X9872D02*
X9901D01*
X9972D02*
X10001D01*
X10072D02*
X10101D01*
X10172D02*
X10201D01*
X10372D02*
X10401D01*
X10572D02*
X10601D01*
X10672D02*
X10701D01*
X10772D02*
X11074D01*
X8900Y8321D02*
X8872D01*
X8972D02*
X9000D01*
X9072D02*
X9100D01*
X9172D02*
X9200D01*
X9272D02*
X9300D01*
X9372D02*
X9400D01*
X9672D02*
X9700D01*
X9772D02*
X9801D01*
X9872D02*
X9901D01*
X9972D02*
X10001D01*
X10072D02*
X10101D01*
X10172D02*
X10201D01*
X10372D02*
X10401D01*
X10572D02*
X10601D01*
X10672D02*
X10701D01*
X10772D02*
X10897D01*
X10958D02*
X11080D01*
X8900Y8327D02*
X8872D01*
X8972D02*
X9000D01*
X9072D02*
X9100D01*
X9172D02*
X9200D01*
X9272D02*
X9300D01*
X9372D02*
X9400D01*
X9672D02*
X9700D01*
X9772D02*
X9801D01*
X9872D02*
X9901D01*
X9972D02*
X10001D01*
X10072D02*
X10101D01*
X10172D02*
X10201D01*
X10372D02*
X10401D01*
X10572D02*
X10601D01*
X10672D02*
X10701D01*
X10772D02*
X10878D01*
X10977D02*
X11086D01*
X8900Y8333D02*
X8872D01*
X8972D02*
X9000D01*
X9072D02*
X9100D01*
X9172D02*
X9200D01*
X9272D02*
X9300D01*
X9372D02*
X9400D01*
X9672D02*
X9700D01*
X9772D02*
X9801D01*
X9872D02*
X9901D01*
X9972D02*
X10001D01*
X10072D02*
X10101D01*
X10172D02*
X10201D01*
X10372D02*
X10401D01*
X10572D02*
X10601D01*
X10672D02*
X10701D01*
X10772D02*
X10865D01*
X10990D02*
X11096D01*
X8900Y8339D02*
X8872D01*
X8972D02*
X9000D01*
X9072D02*
X9100D01*
X9172D02*
X9200D01*
X9272D02*
X9300D01*
X9372D02*
X9400D01*
X9672D02*
X9700D01*
X9772D02*
X9801D01*
X9872D02*
X9901D01*
X9972D02*
X10001D01*
X10072D02*
X10101D01*
X10172D02*
X10201D01*
X10372D02*
X10401D01*
X10572D02*
X10601D01*
X10672D02*
X10701D01*
X10772D02*
X10855D01*
X11000D02*
X11100D01*
X11178D02*
X11188D01*
X8900Y8345D02*
X8872D01*
X8972D02*
X9000D01*
X9072D02*
X9100D01*
X9172D02*
X9200D01*
X9272D02*
X9300D01*
X9372D02*
X9400D01*
X9672D02*
X9700D01*
X9772D02*
X9801D01*
X9872D02*
X9901D01*
X9972D02*
X10001D01*
X10072D02*
X10101D01*
X10172D02*
X10201D01*
X10372D02*
X10401D01*
X10572D02*
X10601D01*
X10672D02*
X10701D01*
X10772D02*
X10846D01*
X11009D02*
X11097D01*
X8900Y8351D02*
X8872D01*
X8972D02*
X9000D01*
X9072D02*
X9100D01*
X9172D02*
X9200D01*
X9272D02*
X9300D01*
X9372D02*
X9400D01*
X9672D02*
X9700D01*
X9772D02*
X9801D01*
X9872D02*
X9901D01*
X9972D02*
X10001D01*
X10072D02*
X10101D01*
X10172D02*
X10201D01*
X10372D02*
X10401D01*
X10572D02*
X10601D01*
X10672D02*
X10701D01*
X10772D02*
X10839D01*
X11016D02*
X11095D01*
X8900Y8357D02*
X8872D01*
X8972D02*
X9000D01*
X9072D02*
X9100D01*
X9172D02*
X9200D01*
X9272D02*
X9300D01*
X9372D02*
X9400D01*
X9672D02*
X9700D01*
X9772D02*
X9801D01*
X9872D02*
X9901D01*
X9972D02*
X10001D01*
X10072D02*
X10101D01*
X10172D02*
X10201D01*
X10372D02*
X10401D01*
X10572D02*
X10601D01*
X10672D02*
X10701D01*
X10772D02*
X10832D01*
X11022D02*
X11094D01*
X8900Y8363D02*
X8872D01*
X8972D02*
X9000D01*
X9072D02*
X9100D01*
X9172D02*
X9200D01*
X9272D02*
X9300D01*
X9372D02*
X9400D01*
X9672D02*
X9700D01*
X9772D02*
X9801D01*
X9872D02*
X9901D01*
X9972D02*
X10001D01*
X10072D02*
X10101D01*
X10172D02*
X10201D01*
X10372D02*
X10401D01*
X10572D02*
X10601D01*
X10672D02*
X10701D01*
X10772D02*
X10827D01*
X11028D02*
X11094D01*
X8900Y8369D02*
X8872D01*
X8972D02*
X9000D01*
X9072D02*
X9100D01*
X9172D02*
X9200D01*
X9272D02*
X9300D01*
X9372D02*
X9400D01*
X9672D02*
X9700D01*
X9772D02*
X9801D01*
X9872D02*
X9901D01*
X9972D02*
X10001D01*
X10072D02*
X10101D01*
X10172D02*
X10201D01*
X10372D02*
X10401D01*
X10572D02*
X10601D01*
X10672D02*
X10701D01*
X10772D02*
X10822D01*
X11033D02*
X11094D01*
X8900Y8375D02*
X8872D01*
X8972D02*
X9000D01*
X9072D02*
X9100D01*
X9172D02*
X9200D01*
X9272D02*
X9300D01*
X9372D02*
X9400D01*
X9672D02*
X9700D01*
X9772D02*
X9801D01*
X9872D02*
X9901D01*
X9972D02*
X10001D01*
X10072D02*
X10101D01*
X10172D02*
X10201D01*
X10372D02*
X10401D01*
X10572D02*
X10601D01*
X10672D02*
X10701D01*
X10772D02*
X10817D01*
X11037D02*
X11096D01*
X8900Y8381D02*
X8872D01*
X8972D02*
X9000D01*
X9072D02*
X9100D01*
X9172D02*
X9200D01*
X9272D02*
X9300D01*
X9372D02*
X9400D01*
X9672D02*
X9700D01*
X9772D02*
X9801D01*
X9872D02*
X9901D01*
X9972D02*
X10001D01*
X10072D02*
X10101D01*
X10172D02*
X10201D01*
X10372D02*
X10401D01*
X10572D02*
X10601D01*
X10672D02*
X10701D01*
X10772D02*
X10814D01*
X11041D02*
X11098D01*
X11180D02*
X11188D01*
X8872Y8387D02*
X8811D01*
X8872D02*
X8900D01*
X8972D01*
X9000D01*
X9014D01*
X9052D02*
X9072D01*
X9100D01*
X9172D01*
X9200D01*
X9272D01*
X9300D01*
X9372D01*
X9400D01*
X9465D01*
X9511D02*
X9568D01*
X9652D02*
X9672D01*
X9700D01*
X9718D01*
X9758D02*
X9772D01*
X9801D01*
X9818D01*
X9858D02*
X9872D01*
X9901D01*
X9915D01*
X9961D02*
X9972D01*
X10001D01*
X10072D01*
X10101D01*
X10172D01*
X10201D01*
X10224D01*
X10308D02*
X10372D01*
X10401D01*
X10418D01*
X10502D02*
X10572D01*
X10601D01*
X10618D01*
X10658D02*
X10672D01*
X10701D01*
X10772D01*
X10810D01*
X11045D02*
X11101D01*
X11177D02*
X11188D01*
X8872Y8393D02*
X8811D01*
X8872D02*
X8900D01*
X8972D01*
X9000D01*
X9014D01*
X9052D02*
X9072D01*
X9100D01*
X9172D01*
X9200D01*
X9272D01*
X9300D01*
X9372D01*
X9400D01*
X9465D01*
X9511D02*
X9568D01*
X9652D02*
X9672D01*
X9700D01*
X9718D01*
X9758D02*
X9772D01*
X9801D01*
X9818D01*
X9858D02*
X9872D01*
X9901D01*
X9915D01*
X9961D02*
X9972D01*
X10001D01*
X10072D01*
X10101D01*
X10172D01*
X10201D01*
X10224D01*
X10308D02*
X10372D01*
X10401D01*
X10418D01*
X10502D02*
X10572D01*
X10601D01*
X10618D01*
X10658D02*
X10672D01*
X10701D01*
X10772D01*
X10807D01*
X11048D02*
X11106D01*
X11172D02*
X11188D01*
X8872Y8399D02*
X8811D01*
X8872D02*
X8900D01*
X8972D01*
X9000D01*
X9014D01*
X9052D02*
X9072D01*
X9100D01*
X9172D01*
X9200D01*
X9272D01*
X9300D01*
X9372D01*
X9400D01*
X9465D01*
X9511D02*
X9568D01*
X9652D02*
X9672D01*
X9700D01*
X9718D01*
X9758D02*
X9772D01*
X9801D01*
X9818D01*
X9858D02*
X9872D01*
X9901D01*
X9915D01*
X9961D02*
X9972D01*
X10001D01*
X10072D01*
X10101D01*
X10172D01*
X10201D01*
X10224D01*
X10308D02*
X10372D01*
X10401D01*
X10418D01*
X10502D02*
X10572D01*
X10601D01*
X10618D01*
X10658D02*
X10672D01*
X10701D01*
X10772D01*
X10804D01*
X11050D02*
X11113D01*
X11165D02*
X11188D01*
X9014Y8405D02*
X8811D01*
X9052D02*
X9465D01*
X9511D02*
X9568D01*
X9652D02*
X9718D01*
X9758D02*
X9818D01*
X9858D02*
X9915D01*
X9961D02*
X10224D01*
X10308D02*
X10418D01*
X10502D02*
X10618D01*
X10658D02*
X10802D01*
X11053D02*
X11125D01*
X11153D02*
X11188D01*
X8864Y8411D02*
X8811D01*
X8908D02*
X9014D01*
X9052D02*
X9465D01*
X9511D02*
X9568D01*
X9656D02*
X9718D01*
X9758D02*
X9818D01*
X9858D02*
X9915D01*
X9961D02*
X10224D01*
X10308D02*
X10418D01*
X10502D02*
X10618D01*
X10709D02*
X10800D01*
X11055D02*
X11188D01*
X8855Y8417D02*
X8811D01*
X8917D02*
X9014D01*
X9052D02*
X9465D01*
X9511D02*
X9568D01*
X9662D02*
X9718D01*
X9758D02*
X9818D01*
X9858D02*
X9915D01*
X9961D02*
X10224D01*
X10308D02*
X10418D01*
X10502D02*
X10618D01*
X10717D02*
X10798D01*
X11056D02*
X11131D01*
X11147D02*
X11188D01*
X8849Y8423D02*
X8811D01*
X8922D02*
X9014D01*
X9052D02*
X9465D01*
X9511D02*
X9568D01*
X9668D02*
X9703D01*
X9718D01*
X9758D02*
X9818D01*
X9858D02*
X9915D01*
X9961D02*
X10224D01*
X10308D02*
X10418D01*
X10502D02*
X10618D01*
X10723D02*
X10797D01*
X11058D02*
X11115D01*
X11163D02*
X11188D01*
X8845Y8429D02*
X8811D01*
X8926D02*
X9014D01*
X9052D02*
X9465D01*
X9511D02*
X9556D01*
X9758D02*
X9818D01*
X9858D02*
X9915D01*
X9961D02*
X10224D01*
X10308D02*
X10418D01*
X10505D02*
X10611D01*
X10727D02*
X10796D01*
X11059D02*
X11107D01*
X11171D02*
X11188D01*
X8843Y8435D02*
X8811D01*
X8929D02*
X9010D01*
X9056D02*
X9465D01*
X9511D02*
X9550D01*
X9758D02*
X9818D01*
X9858D02*
X9915D01*
X9961D02*
X10220D01*
X10308D02*
X10415D01*
X10509D02*
X10599D01*
X10730D02*
X10795D01*
X11060D02*
X11102D01*
X11176D02*
X11188D01*
X8841Y8441D02*
X8811D01*
X8931D02*
X9007D01*
X9059D02*
X9465D01*
X9511D02*
X9547D01*
X9762D02*
X9814D01*
X9862D02*
X9912D01*
X9964D02*
X10217D01*
X10311D02*
X10412D01*
X10511D02*
X10594D01*
X10731D02*
X10794D01*
X11061D02*
X11099D01*
X11180D02*
X11188D01*
X8840Y8447D02*
X8811D01*
X8932D02*
X9005D01*
X9061D02*
X9465D01*
X9511D02*
X9545D01*
X9765D02*
X9811D01*
X9865D02*
X9910D01*
X9966D02*
X10215D01*
X10308D02*
X10315D01*
X10410D01*
X10511D02*
X10591D01*
X10732D02*
X10794D01*
X11061D02*
X11096D01*
X8839Y8453D02*
X8811D01*
X8932D02*
X9005D01*
X9061D02*
X9465D01*
X9511D02*
X9545D01*
X9766D02*
X9810D01*
X9866D02*
X9910D01*
X9966D02*
X10215D01*
X10309D02*
X10410D01*
X10510D02*
X10590D01*
X10733D02*
X10794D01*
X11061D02*
X11094D01*
X8840Y8459D02*
X8811D01*
X8932D02*
X9006D01*
X9060D02*
X9465D01*
X9511D02*
X9546D01*
X9766D02*
X9810D01*
X9866D02*
X9911D01*
X9965D02*
X10216D01*
X10308D02*
X10411D01*
X10508D02*
X10590D01*
X10732D02*
X10794D01*
X11061D02*
X11094D01*
X8841Y8465D02*
X8811D01*
X8930D02*
X9009D01*
X9057D02*
X9465D01*
X9511D02*
X9549D01*
X9597D02*
X9609D01*
X9765D02*
X9811D01*
X9865D02*
X9914D01*
X9962D02*
X10219D01*
X10297D02*
X10308D01*
X10414D01*
X10504D02*
X10591D01*
X10731D02*
X10794D01*
X11060D02*
X11094D01*
X8843Y8471D02*
X8811D01*
X8928D02*
X9013D01*
X9053D02*
X9465D01*
X9511D02*
X9553D01*
X9593D02*
X9613D01*
X9762D02*
X9814D01*
X9862D02*
X9918D01*
X9958D02*
X10214D01*
X10223D01*
X10291D02*
X10308D01*
X10418D01*
X10502D02*
X10594D01*
X10729D02*
X10795D01*
X11059D02*
X11095D01*
X8819Y8477D02*
X8811D01*
X8925D02*
X9014D01*
X9023D01*
X9043D02*
X9052D01*
X9465D01*
X9511D02*
X9563D01*
X9583D02*
X9614D01*
X9678D02*
X9693D01*
X9758D02*
X9818D01*
X9858D02*
X9928D01*
X9948D02*
X10214D01*
X10224D01*
X10285D02*
X10308D01*
X10418D01*
X10428D01*
X10448D02*
X10458D01*
X10464D02*
X10502D01*
X10599D01*
X10637D02*
X10647D01*
X10725D02*
X10796D01*
X11058D02*
X11096D01*
X9014Y8483D02*
X8920D01*
X9014D02*
X9052D01*
X9465D01*
X9511D02*
X9614D01*
X9652D02*
X9705D01*
X9758D02*
X9818D01*
X9831D01*
X9845D02*
X9858D01*
X10214D01*
X10223D01*
X10279D02*
X10418D01*
X10458D01*
X10611D01*
X10625D02*
X10652D01*
X10721D02*
X10798D01*
X11057D02*
X11099D01*
X11179D02*
X11188D01*
X9465Y8489D02*
X8914D01*
X9511D02*
X9614D01*
X9652D02*
X9710D01*
X9759D02*
X10214D01*
X10273D02*
X10658D01*
X10714D02*
X10799D01*
X11055D02*
X11103D01*
X11175D02*
X11188D01*
X8869Y8495D02*
X8860D01*
X8903D02*
X9465D01*
X9511D02*
X9614D01*
X9652D02*
X9714D01*
X9752D02*
X10211D01*
X10267D02*
X10669D01*
X10703D02*
X10801D01*
X11053D02*
X11108D01*
X11170D02*
X11188D01*
X9171Y8575D02*
X9135D01*
X9100D01*
X9335D02*
X9371D01*
X9335D02*
X9300D01*
X9836D02*
X9872D01*
X9836D02*
X9801D01*
X10136D02*
X10172D01*
X10136D02*
X10101D01*
X10536D02*
X10572D01*
X10536D02*
X10500D01*
X10983Y8641D02*
X11028D01*
X10983D02*
X10938D01*
X10218Y8666D02*
X10172D01*
X9953D02*
X9908D01*
X11094Y8607D02*
X11185D01*
X11188D01*
X11185Y8516D02*
X11094D01*
X11185D02*
X11188D01*
X9998Y8626D02*
X9994D01*
X10072D02*
X10088D01*
X9998D02*
X9971D01*
X9998D02*
X9998D01*
X10000D01*
X10271D02*
X10301D01*
X10172D02*
X10169D01*
X10172D02*
X10172D01*
X10200D01*
X10938Y8686D02*
X11028D01*
Y8596D02*
X10938D01*
X10825Y8686D02*
X10802D01*
X10871D02*
X10894D01*
Y8596D02*
X10802D01*
X10715Y8632D02*
X10700D01*
X10761D02*
X10771D01*
Y8518D02*
X10700D01*
X10615Y8632D02*
X10601D01*
X10661D02*
X10672D01*
Y8518D02*
X10601D01*
X10572Y8632D02*
X10500D01*
Y8518D02*
X10572D01*
X10471Y8632D02*
X10400D01*
Y8518D02*
X10471D01*
X10372Y8632D02*
X10354D01*
X10372Y8518D02*
X10301D01*
X10214D02*
X10200D01*
X10252D02*
X10271D01*
X10172Y8632D02*
X10101D01*
X10172D02*
X10172D01*
X10172Y8518D02*
X10101D01*
X9998Y8632D02*
X9998D01*
X9998D02*
X10000D01*
Y8518D02*
X10072D01*
X9908Y8632D02*
X9900D01*
Y8518D02*
X9971D01*
X9872Y8632D02*
X9801D01*
Y8518D02*
X9872D01*
X9771Y8632D02*
X9700D01*
Y8518D02*
X9714D01*
X9752D02*
X9771D01*
X9671Y8632D02*
X9600D01*
Y8518D02*
X9614D01*
X9652D02*
X9671D01*
X9572Y8632D02*
X9511D01*
Y8518D02*
X9572D01*
X9465Y8632D02*
X9400D01*
Y8518D02*
X9465D01*
X9371Y8632D02*
X9300D01*
Y8518D02*
X9371D01*
X9271Y8632D02*
X9200D01*
Y8518D02*
X9271D01*
X9171Y8632D02*
X9100D01*
Y8518D02*
X9171D01*
X9072Y8632D02*
X9000D01*
Y8518D02*
X9072D01*
X8971Y8632D02*
X8900D01*
Y8518D02*
X8971D01*
X8871Y8632D02*
X8800D01*
X8855Y8518D02*
X8871D01*
X10761Y8688D02*
X10802D01*
X10825D01*
X10715D02*
X10661D01*
X9908D02*
X9511D01*
X10088D02*
X10172D01*
X10354D02*
X10615D01*
X8800Y8524D02*
X8788D01*
X8861Y8501D02*
X9465D01*
X9511D02*
X9614D01*
X9652D02*
X9714D01*
X9752D02*
X10205D01*
X10214D01*
X10261D02*
X10803D01*
X11051D02*
X11116D01*
X11162D02*
X11188D01*
X8871Y8507D02*
X8860D01*
X8871D02*
X8900D01*
X8971D01*
X9000D01*
X9072D01*
X9100D01*
X9171D01*
X9200D01*
X9271D01*
X9300D01*
X9371D01*
X9400D01*
X9465D01*
X9511D02*
X9572D01*
X9600D01*
X9614D01*
X9652D02*
X9671D01*
X9700D01*
X9714D01*
X9752D02*
X9771D01*
X9801D01*
X9872D01*
X9900D01*
X9971D01*
X10000D01*
X10072D01*
X10101D01*
X10172D01*
X10200D01*
X10211D01*
X10255D02*
X10271D01*
X10301D01*
X10372D01*
X10400D01*
X10471D01*
X10500D01*
X10572D01*
X10601D01*
X10672D01*
X10700D01*
X10771D01*
X10806D01*
X11049D02*
X11094D01*
X11134D01*
X11144D02*
X11185D01*
X8871Y8513D02*
X8858D01*
X8871D02*
X8900D01*
X8971D01*
X9000D01*
X9072D01*
X9100D01*
X9171D01*
X9200D01*
X9271D01*
X9300D01*
X9371D01*
X9400D01*
X9465D01*
X9511D02*
X9572D01*
X9600D01*
X9614D01*
X9652D02*
X9671D01*
X9700D01*
X9714D01*
X9752D02*
X9771D01*
X9801D01*
X9872D01*
X9900D01*
X9971D01*
X10000D01*
X10072D01*
X10101D01*
X10172D01*
X10200D01*
X10214D01*
X10252D02*
X10271D01*
X10301D01*
X10372D01*
X10400D01*
X10471D01*
X10500D01*
X10572D01*
X10601D01*
X10672D01*
X10700D01*
X10771D01*
X10809D01*
X11046D02*
X11094D01*
X11185D01*
X8774Y8519D02*
X8759D01*
X8871D02*
X8900D01*
X8971D02*
X9000D01*
X9072D02*
X9100D01*
X9171D02*
X9200D01*
X9271D02*
X9300D01*
X9371D02*
X9400D01*
X9572D02*
X9600D01*
X9671D02*
X9700D01*
X9771D02*
X9801D01*
X9872D02*
X9900D01*
X9971D02*
X10000D01*
X10072D02*
X10101D01*
X10172D02*
X10200D01*
X10271D02*
X10301D01*
X10372D02*
X10400D01*
X10471D02*
X10500D01*
X10572D02*
X10601D01*
X10672D02*
X10700D01*
X10771D02*
X10812D01*
X11042D02*
X11094D01*
X8800Y8525D02*
X8755D01*
X8871D02*
X8900D01*
X8971D02*
X9000D01*
X9072D02*
X9100D01*
X9171D02*
X9200D01*
X9271D02*
X9300D01*
X9371D02*
X9400D01*
X9572D02*
X9600D01*
X9671D02*
X9700D01*
X9771D02*
X9801D01*
X9872D02*
X9900D01*
X9971D02*
X10000D01*
X10072D02*
X10101D01*
X10172D02*
X10200D01*
X10271D02*
X10301D01*
X10372D02*
X10400D01*
X10471D02*
X10500D01*
X10572D02*
X10601D01*
X10672D02*
X10700D01*
X10771D02*
X10816D01*
X11039D02*
X11094D01*
X8800Y8531D02*
X8751D01*
X8871D02*
X8900D01*
X8971D02*
X9000D01*
X9072D02*
X9100D01*
X9171D02*
X9200D01*
X9271D02*
X9300D01*
X9371D02*
X9400D01*
X9572D02*
X9600D01*
X9671D02*
X9700D01*
X9771D02*
X9801D01*
X9872D02*
X9900D01*
X9971D02*
X10000D01*
X10072D02*
X10101D01*
X10172D02*
X10200D01*
X10271D02*
X10301D01*
X10372D02*
X10400D01*
X10471D02*
X10500D01*
X10572D02*
X10601D01*
X10672D02*
X10700D01*
X10771D02*
X10820D01*
X11034D02*
X11094D01*
X8800Y8537D02*
X8746D01*
X8871D02*
X8900D01*
X8971D02*
X9000D01*
X9072D02*
X9100D01*
X9171D02*
X9200D01*
X9271D02*
X9300D01*
X9371D02*
X9400D01*
X9572D02*
X9600D01*
X9671D02*
X9700D01*
X9771D02*
X9801D01*
X9872D02*
X9900D01*
X9971D02*
X10000D01*
X10072D02*
X10101D01*
X10172D02*
X10200D01*
X10271D02*
X10301D01*
X10372D02*
X10400D01*
X10471D02*
X10500D01*
X10572D02*
X10601D01*
X10672D02*
X10700D01*
X10771D02*
X10825D01*
X11030D02*
X11094D01*
X8547Y8543D02*
X8538D01*
X8741D02*
X8800D01*
X8871D02*
X8900D01*
X8971D02*
X9000D01*
X9072D02*
X9100D01*
X9171D02*
X9200D01*
X9271D02*
X9300D01*
X9371D02*
X9400D01*
X9572D02*
X9600D01*
X9671D02*
X9700D01*
X9771D02*
X9801D01*
X9872D02*
X9900D01*
X9971D02*
X10000D01*
X10072D02*
X10101D01*
X10172D02*
X10200D01*
X10271D02*
X10301D01*
X10372D02*
X10400D01*
X10471D02*
X10500D01*
X10572D02*
X10601D01*
X10672D02*
X10700D01*
X10771D02*
X10830D01*
X11024D02*
X11094D01*
X8553Y8549D02*
X8538D01*
X8735D02*
X8800D01*
X8871D02*
X8900D01*
X8971D02*
X9000D01*
X9072D02*
X9100D01*
X9171D02*
X9200D01*
X9271D02*
X9300D01*
X9371D02*
X9400D01*
X9572D02*
X9600D01*
X9671D02*
X9700D01*
X9771D02*
X9801D01*
X9872D02*
X9900D01*
X9971D02*
X10000D01*
X10072D02*
X10101D01*
X10172D02*
X10200D01*
X10271D02*
X10301D01*
X10372D02*
X10400D01*
X10471D02*
X10500D01*
X10572D02*
X10601D01*
X10672D02*
X10700D01*
X10771D02*
X10836D01*
X11018D02*
X11094D01*
X8560Y8555D02*
X8538D01*
X8728D02*
X8800D01*
X8871D02*
X8900D01*
X8971D02*
X9000D01*
X9072D02*
X9100D01*
X9171D02*
X9200D01*
X9271D02*
X9300D01*
X9371D02*
X9400D01*
X9572D02*
X9600D01*
X9671D02*
X9700D01*
X9771D02*
X9801D01*
X9872D02*
X9900D01*
X9971D02*
X10000D01*
X10072D02*
X10101D01*
X10172D02*
X10200D01*
X10271D02*
X10301D01*
X10372D02*
X10400D01*
X10471D02*
X10500D01*
X10572D02*
X10601D01*
X10672D02*
X10700D01*
X10771D02*
X10843D01*
X11011D02*
X11094D01*
X8568Y8561D02*
X8538D01*
X8720D02*
X8800D01*
X8871D02*
X8900D01*
X8971D02*
X9000D01*
X9072D02*
X9100D01*
X9171D02*
X9200D01*
X9271D02*
X9300D01*
X9371D02*
X9400D01*
X9572D02*
X9600D01*
X9671D02*
X9700D01*
X9771D02*
X9801D01*
X9872D02*
X9900D01*
X9971D02*
X10000D01*
X10072D02*
X10101D01*
X10172D02*
X10200D01*
X10271D02*
X10301D01*
X10372D02*
X10400D01*
X10471D02*
X10500D01*
X10572D02*
X10601D01*
X10672D02*
X10700D01*
X10771D02*
X10851D01*
X11003D02*
X11094D01*
X8577Y8567D02*
X8538D01*
X8710D02*
X8800D01*
X8871D02*
X8900D01*
X8971D02*
X9000D01*
X9072D02*
X9100D01*
X9171D02*
X9200D01*
X9271D02*
X9300D01*
X9371D02*
X9400D01*
X9572D02*
X9600D01*
X9671D02*
X9700D01*
X9771D02*
X9801D01*
X9872D02*
X9900D01*
X9971D02*
X10000D01*
X10072D02*
X10101D01*
X10172D02*
X10200D01*
X10271D02*
X10301D01*
X10372D02*
X10400D01*
X10471D02*
X10500D01*
X10572D02*
X10601D01*
X10672D02*
X10700D01*
X10771D02*
X10861D01*
X10994D02*
X11094D01*
X8589Y8573D02*
X8538D01*
X8698D02*
X8800D01*
X8871D02*
X8900D01*
X8971D02*
X9000D01*
X9072D02*
X9100D01*
X9171D02*
X9200D01*
X9271D02*
X9300D01*
X9371D02*
X9400D01*
X9572D02*
X9600D01*
X9671D02*
X9700D01*
X9771D02*
X9801D01*
X9872D02*
X9900D01*
X9971D02*
X10000D01*
X10072D02*
X10101D01*
X10172D02*
X10200D01*
X10271D02*
X10301D01*
X10372D02*
X10400D01*
X10471D02*
X10500D01*
X10572D02*
X10601D01*
X10672D02*
X10700D01*
X10771D02*
X10873D01*
X10982D02*
X11094D01*
X8605Y8579D02*
X8538D01*
X8682D02*
X8800D01*
X8871D02*
X8900D01*
X8971D02*
X9000D01*
X9072D02*
X9100D01*
X9171D02*
X9200D01*
X9271D02*
X9300D01*
X9371D02*
X9400D01*
X9572D02*
X9600D01*
X9671D02*
X9700D01*
X9771D02*
X9801D01*
X9872D02*
X9900D01*
X9971D02*
X10000D01*
X10072D02*
X10101D01*
X10172D02*
X10200D01*
X10271D02*
X10301D01*
X10372D02*
X10400D01*
X10471D02*
X10500D01*
X10572D02*
X10601D01*
X10672D02*
X10700D01*
X10771D02*
X10889D01*
X10966D02*
X11094D01*
X8800Y8585D02*
X8538D01*
X8871D02*
X8900D01*
X8971D02*
X9000D01*
X9072D02*
X9100D01*
X9171D02*
X9200D01*
X9271D02*
X9300D01*
X9371D02*
X9400D01*
X9572D02*
X9600D01*
X9671D02*
X9700D01*
X9771D02*
X9801D01*
X9872D02*
X9900D01*
X9971D02*
X10000D01*
X10072D02*
X10101D01*
X10172D02*
X10200D01*
X10271D02*
X10301D01*
X10372D02*
X10400D01*
X10471D02*
X10500D01*
X10572D02*
X10601D01*
X10672D02*
X10700D01*
X10771D02*
X10802D01*
X10894D01*
X10938D01*
X11028D01*
X11094D01*
X8800Y8591D02*
X8538D01*
X8871D02*
X8900D01*
X8971D02*
X9000D01*
X9072D02*
X9100D01*
X9171D02*
X9200D01*
X9271D02*
X9300D01*
X9371D02*
X9400D01*
X9572D02*
X9600D01*
X9671D02*
X9700D01*
X9771D02*
X9801D01*
X9872D02*
X9900D01*
X9971D02*
X10000D01*
X10072D02*
X10101D01*
X10172D02*
X10200D01*
X10271D02*
X10301D01*
X10372D02*
X10400D01*
X10471D02*
X10500D01*
X10572D02*
X10601D01*
X10672D02*
X10700D01*
X10771D02*
X10802D01*
X10894D01*
X10938D01*
X11028D01*
X11094D01*
X8800Y8597D02*
X8538D01*
X8871D02*
X8900D01*
X8971D02*
X9000D01*
X9072D02*
X9100D01*
X9171D02*
X9200D01*
X9271D02*
X9300D01*
X9371D02*
X9400D01*
X9572D02*
X9600D01*
X9671D02*
X9700D01*
X9771D02*
X9801D01*
X9872D02*
X9900D01*
X9971D02*
X10000D01*
X10072D02*
X10101D01*
X10172D02*
X10200D01*
X10271D02*
X10301D01*
X10372D02*
X10400D01*
X10471D02*
X10500D01*
X10572D02*
X10601D01*
X10672D02*
X10700D01*
X10771D02*
X10802D01*
X10894D02*
X10938D01*
X11028D02*
X11094D01*
X8551Y8603D02*
X8538D01*
X8575D02*
X8800D01*
X8871D02*
X8900D01*
X8971D02*
X9000D01*
X9072D02*
X9100D01*
X9171D02*
X9200D01*
X9271D02*
X9300D01*
X9371D02*
X9400D01*
X9572D02*
X9600D01*
X9671D02*
X9700D01*
X9771D02*
X9801D01*
X9872D02*
X9900D01*
X9971D02*
X10000D01*
X10072D02*
X10101D01*
X10172D02*
X10200D01*
X10271D02*
X10301D01*
X10372D02*
X10400D01*
X10471D02*
X10500D01*
X10572D02*
X10601D01*
X10672D02*
X10700D01*
X10771D02*
X10802D01*
X10894D02*
X10938D01*
X11028D02*
X11094D01*
X8800Y8609D02*
X8586D01*
X8871D02*
X8900D01*
X8971D02*
X9000D01*
X9072D02*
X9100D01*
X9171D02*
X9200D01*
X9271D02*
X9300D01*
X9371D02*
X9400D01*
X9572D02*
X9600D01*
X9671D02*
X9700D01*
X9771D02*
X9801D01*
X9872D02*
X9900D01*
X9971D02*
X10000D01*
X10072D02*
X10101D01*
X10172D02*
X10200D01*
X10271D02*
X10301D01*
X10372D02*
X10400D01*
X10471D02*
X10500D01*
X10572D02*
X10601D01*
X10672D02*
X10700D01*
X10771D02*
X10802D01*
X10894D02*
X10938D01*
X11028D02*
X11094D01*
X11185D01*
X8800Y8615D02*
X8591D01*
X8871D02*
X8900D01*
X8971D02*
X9000D01*
X9072D02*
X9100D01*
X9171D02*
X9200D01*
X9271D02*
X9300D01*
X9371D02*
X9400D01*
X9572D02*
X9600D01*
X9671D02*
X9700D01*
X9771D02*
X9801D01*
X9872D02*
X9900D01*
X9971D02*
X9998D01*
X10072D02*
X10088D01*
X10101D01*
X10172D02*
X10200D01*
X10271D02*
X10301D01*
X10372D02*
X10400D01*
X10471D02*
X10500D01*
X10572D02*
X10601D01*
X10672D02*
X10700D01*
X10771D02*
X10802D01*
X10894D02*
X10938D01*
X11028D02*
X11094D01*
X11185D01*
X8800Y8621D02*
X8595D01*
X8871D02*
X8900D01*
X8971D02*
X9000D01*
X9072D02*
X9100D01*
X9171D02*
X9200D01*
X9271D02*
X9300D01*
X9371D02*
X9400D01*
X9572D02*
X9600D01*
X9671D02*
X9700D01*
X9771D02*
X9801D01*
X9872D02*
X9900D01*
X9971D02*
X9998D01*
X10072D02*
X10088D01*
X10101D01*
X10172D02*
X10200D01*
X10271D02*
X10301D01*
X10372D02*
X10400D01*
X10471D02*
X10500D01*
X10572D02*
X10601D01*
X10672D02*
X10700D01*
X10771D02*
X10802D01*
X10894D02*
X10938D01*
X11028D02*
X11188D01*
X8800Y8627D02*
X8597D01*
X8871D02*
X8900D01*
X8971D02*
X9000D01*
X9072D02*
X9100D01*
X9171D02*
X9200D01*
X9271D02*
X9300D01*
X9371D02*
X9400D01*
X9572D02*
X9600D01*
X9671D02*
X9700D01*
X9771D02*
X9801D01*
X9872D02*
X9900D01*
X10088D02*
X10101D01*
X10372D02*
X10400D01*
X10471D02*
X10500D01*
X10572D02*
X10601D01*
X10672D02*
X10700D01*
X10771D02*
X10802D01*
X10894D02*
X10938D01*
X11028D02*
X11188D01*
X8800Y8633D02*
X8598D01*
X8800D02*
X8871D01*
X8900D01*
X8971D01*
X9000D01*
X9072D01*
X9100D01*
X9171D01*
X9200D01*
X9271D01*
X9300D01*
X9371D01*
X9400D01*
X9465D01*
X9511D02*
X9572D01*
X9600D01*
X9671D01*
X9700D01*
X9771D01*
X9801D01*
X9872D01*
X9900D01*
X9908D01*
X10088D02*
X10101D01*
X10172D01*
X10354D02*
X10372D01*
X10400D01*
X10471D01*
X10500D01*
X10572D01*
X10601D01*
X10615D01*
X10661D02*
X10672D01*
X10700D01*
X10715D01*
X10761D02*
X10771D01*
X10802D01*
X10894D02*
X10938D01*
X11028D02*
X11071D01*
X11095D02*
X11188D01*
X8800Y8639D02*
X8598D01*
X8800D02*
X8871D01*
X8900D01*
X8971D01*
X9000D01*
X9072D01*
X9100D01*
X9171D01*
X9200D01*
X9271D01*
X9300D01*
X9371D01*
X9400D01*
X9465D01*
X9511D02*
X9572D01*
X9600D01*
X9671D01*
X9700D01*
X9771D01*
X9801D01*
X9872D01*
X9900D01*
X9908D01*
X10088D02*
X10101D01*
X10172D01*
X10354D02*
X10372D01*
X10400D01*
X10471D01*
X10500D01*
X10572D01*
X10601D01*
X10615D01*
X10661D02*
X10672D01*
X10700D01*
X10715D01*
X10761D02*
X10771D01*
X10802D01*
X10894D02*
X10938D01*
X11028D02*
X11060D01*
X11106D02*
X11188D01*
X9465Y8645D02*
X8597D01*
X9511D02*
X9908D01*
X10088D02*
X10172D01*
X10354D02*
X10615D01*
X10661D02*
X10715D01*
X10761D02*
X10802D01*
X10894D02*
X10938D01*
X11028D02*
X11055D01*
X11111D02*
X11188D01*
X9465Y8651D02*
X8595D01*
X9511D02*
X9908D01*
X10088D02*
X10172D01*
X10354D02*
X10615D01*
X10661D02*
X10715D01*
X10761D02*
X10802D01*
X10894D02*
X10938D01*
X11028D02*
X11051D01*
X11115D02*
X11188D01*
X9465Y8657D02*
X8591D01*
X9511D02*
X9908D01*
X10088D02*
X10172D01*
X10354D02*
X10615D01*
X10661D02*
X10715D01*
X10761D02*
X10802D01*
X10894D02*
X10938D01*
X11028D02*
X11049D01*
X11117D02*
X11188D01*
X9465Y8663D02*
X8586D01*
X9511D02*
X9908D01*
X10088D02*
X10172D01*
X10354D02*
X10615D01*
X10661D02*
X10715D01*
X10761D02*
X10802D01*
X10894D02*
X10938D01*
X11028D02*
X11048D01*
X11118D02*
X11188D01*
X8551Y8669D02*
X8538D01*
X8575D02*
X9465D01*
X9511D02*
X9908D01*
X10088D02*
X10172D01*
X10354D02*
X10615D01*
X10661D02*
X10715D01*
X10761D02*
X10802D01*
X10894D02*
X10938D01*
X11028D02*
X11048D01*
X11118D02*
X11188D01*
X9465Y8675D02*
X8538D01*
X9511D02*
X9908D01*
X10088D02*
X10172D01*
X10354D02*
X10615D01*
X10661D02*
X10715D01*
X10761D02*
X10802D01*
X10894D02*
X10938D01*
X11028D02*
X11049D01*
X11117D02*
X11188D01*
X9465Y8681D02*
X8538D01*
X9511D02*
X9908D01*
X10088D02*
X10172D01*
X10354D02*
X10615D01*
X10661D02*
X10715D01*
X10761D02*
X10802D01*
X10894D02*
X10938D01*
X11028D02*
X11051D01*
X11115D02*
X11188D01*
X9465Y8687D02*
X8538D01*
X9511D02*
X9908D01*
X10088D02*
X10172D01*
X10354D02*
X10615D01*
X10661D02*
X10715D01*
X10761D02*
X10802D01*
X10825D01*
X10871D02*
X10894D01*
X10938D01*
X11028D01*
X11055D01*
X11111D02*
X11188D01*
X9465Y8693D02*
X8538D01*
X10871D02*
X10894D01*
X10938D01*
X11028D01*
X11060D01*
X11106D02*
X11188D01*
X9465Y8711D02*
X8538D01*
X10871D02*
X11188D01*
X9465Y8699D02*
X8538D01*
X10871D02*
X10894D01*
X10938D01*
X11028D01*
X11071D01*
X11095D02*
X11188D01*
X9465Y8705D02*
X8538D01*
X10871D02*
X11188D01*
X8538Y8611D02*
Y8533D01*
Y8661D02*
Y8711D01*
X8543Y8607D02*
Y8539D01*
Y8665D02*
Y8711D01*
X8688Y8176D02*
Y8136D01*
Y8096D01*
X8648Y8129D02*
Y8130D01*
Y8180D01*
X8728Y8090D02*
Y8087D01*
Y8090D02*
Y8180D01*
X8648D02*
Y8177D01*
Y8180D02*
Y8182D01*
Y8206D01*
Y8246D02*
Y8272D01*
X8728Y8180D02*
Y8177D01*
Y8180D02*
Y8182D01*
Y8206D01*
Y8246D02*
Y8272D01*
X8638Y8138D02*
Y8130D01*
Y8138D02*
Y8180D01*
Y8177D01*
Y8180D02*
Y8182D01*
Y8206D01*
Y8246D02*
Y8272D01*
X8738Y8090D02*
Y8087D01*
Y8090D02*
Y8180D01*
Y8177D01*
Y8180D02*
Y8182D01*
Y8206D01*
Y8246D02*
Y8272D01*
X8661Y7761D02*
Y7758D01*
Y7761D02*
Y7891D01*
Y7888D01*
Y7891D02*
Y7896D01*
Y8060D01*
X8561Y8272D02*
Y8276D01*
Y8272D01*
Y8276D02*
Y8281D01*
Y8283D01*
X8688Y8033D02*
Y8022D01*
X8741D02*
Y7714D01*
Y8060D02*
Y8090D01*
Y8272D02*
Y8283D01*
Y8543D02*
Y8711D01*
X8735Y8022D02*
Y7714D01*
Y8060D02*
Y8090D01*
Y8180D01*
Y8182D02*
Y8206D01*
Y8246D02*
Y8272D01*
Y8283D01*
Y8549D02*
Y8711D01*
X8729Y8022D02*
Y7714D01*
Y8060D02*
Y8090D01*
Y8180D01*
Y8182D02*
Y8206D01*
Y8246D02*
Y8272D01*
Y8283D01*
Y8554D02*
Y8711D01*
X8723Y8022D02*
Y7714D01*
Y8060D02*
Y8090D01*
Y8272D02*
Y8283D01*
Y8559D02*
Y8711D01*
X8717Y8022D02*
Y7714D01*
Y8060D02*
Y8090D01*
Y8272D02*
Y8283D01*
Y8563D02*
Y8711D01*
X8711Y8016D02*
Y7714D01*
Y8066D02*
Y8090D01*
Y8272D02*
Y8283D01*
Y8567D02*
Y8711D01*
X8705Y8016D02*
Y7714D01*
Y8072D02*
Y8090D01*
Y8272D02*
Y8283D01*
Y8570D02*
Y8711D01*
X8699Y8022D02*
Y7714D01*
Y8078D02*
Y8090D01*
Y8272D02*
Y8283D01*
Y8573D02*
Y8711D01*
X8693Y8022D02*
Y7714D01*
Y8272D02*
Y8283D01*
Y8575D02*
Y8711D01*
X8687Y8022D02*
Y7714D01*
Y8022D02*
Y8034D01*
Y8272D02*
Y8283D01*
Y8578D02*
Y8711D01*
X8681Y8022D02*
Y7714D01*
Y8022D02*
Y8040D01*
Y8272D02*
Y8283D01*
Y8579D02*
Y8711D01*
X8675Y8046D02*
Y7714D01*
Y8272D02*
Y8283D01*
Y8581D02*
Y8711D01*
X8669Y8052D02*
Y7714D01*
Y8272D02*
Y8283D01*
Y8582D02*
Y8711D01*
X8663Y8058D02*
Y7714D01*
Y8272D02*
Y8283D01*
Y8583D02*
Y8711D01*
X8657Y7748D02*
Y7714D01*
Y8272D02*
Y8283D01*
Y8584D02*
Y8711D01*
X8651Y7742D02*
Y7714D01*
Y8272D02*
Y8283D01*
Y8584D02*
Y8711D01*
X8645Y7738D02*
Y7714D01*
Y8132D02*
Y8180D01*
Y8182D02*
Y8206D01*
Y8246D02*
Y8272D01*
Y8283D01*
Y8585D02*
Y8711D01*
X8639Y7738D02*
Y7714D01*
Y8130D02*
Y8138D01*
Y8180D01*
Y8182D02*
Y8206D01*
Y8246D02*
Y8272D01*
Y8283D01*
Y8585D02*
Y8711D01*
X8633Y7738D02*
Y7714D01*
Y8272D02*
Y8283D01*
Y8584D02*
Y8711D01*
X8627Y7738D02*
Y7714D01*
Y8272D02*
Y8283D01*
Y8584D02*
Y8711D01*
X8621Y7738D02*
Y7714D01*
Y8272D02*
Y8283D01*
Y8583D02*
Y8711D01*
X8615Y7738D02*
Y7714D01*
Y8272D02*
Y8283D01*
Y8582D02*
Y8711D01*
X8609Y7738D02*
Y7714D01*
Y8272D02*
Y8283D01*
Y8580D02*
Y8711D01*
X8603Y7738D02*
Y7714D01*
Y8272D02*
Y8283D01*
Y8578D02*
Y8711D01*
X8597Y7738D02*
Y7714D01*
Y8272D02*
Y8283D01*
Y8576D02*
Y8627D01*
Y8645D02*
Y8711D01*
X8591Y7738D02*
Y7714D01*
Y8272D02*
Y8283D01*
Y8574D02*
Y8615D01*
Y8657D02*
Y8711D01*
X8585Y7738D02*
Y7714D01*
Y8272D02*
Y8283D01*
Y8571D02*
Y8609D01*
Y8663D02*
Y8711D01*
X8579Y7738D02*
Y7714D01*
Y8272D02*
Y8283D01*
Y8568D02*
Y8605D01*
Y8667D02*
Y8711D01*
X8573Y7738D02*
Y7714D01*
Y8272D02*
Y8283D01*
Y8564D02*
Y8602D01*
Y8670D02*
Y8711D01*
X8567Y7738D02*
Y7714D01*
Y8272D02*
Y8283D01*
Y8560D02*
Y8601D01*
Y8671D02*
Y8711D01*
X8561Y7738D02*
Y7714D01*
Y8272D02*
Y8281D01*
Y8556D02*
Y8601D01*
Y8671D02*
Y8711D01*
X8555Y8602D02*
Y8551D01*
Y8670D02*
Y8711D01*
X8549Y8604D02*
Y8545D01*
Y8668D02*
Y8711D01*
X8686Y8090D02*
X8696Y8081D01*
X8648Y8129D02*
X8646Y8130D01*
X8696Y8081D02*
X8716Y8060D01*
X8696Y8081D02*
X8688Y8088D01*
X8686Y8090D01*
X8700Y8022D02*
X8708Y8013D01*
X8700Y8022D02*
X8688Y8033D01*
X8668Y8053D01*
X8663Y8058D01*
X8661Y8060D01*
X8708Y8013D02*
X8716Y8022D01*
X8836Y8330D02*
Y8387D01*
Y8330D02*
Y8273D01*
X8900Y8518D02*
Y8632D01*
X8800D02*
Y8524D01*
X8871Y8518D02*
Y8632D01*
X8900Y8387D02*
Y8273D01*
X8800D02*
Y8272D01*
Y8273D02*
Y8283D01*
Y8287D01*
X8872Y8273D02*
Y8387D01*
X8828Y7636D02*
Y7466D01*
X8928D02*
Y7636D01*
X8838Y8110D02*
Y8114D01*
Y8131D02*
Y8142D01*
Y8143D01*
Y8077D02*
Y8060D01*
Y8073D02*
Y8077D01*
Y8093D01*
Y8114D01*
Y8131D01*
X8854Y8260D02*
Y8264D01*
X8922D02*
Y8240D01*
X8934Y8250D02*
Y8264D01*
X8922Y8238D02*
Y8238D01*
Y8238D02*
Y8240D01*
X8818Y8090D02*
Y8087D01*
Y8090D02*
Y8142D01*
Y8260D02*
Y8272D01*
Y8273D01*
X8846Y7661D02*
Y7636D01*
X8900D02*
Y7661D01*
X8846Y7826D02*
Y7961D01*
X8900Y7934D02*
Y7826D01*
X8816Y7466D02*
Y7459D01*
Y7466D02*
Y7631D01*
Y7636D01*
Y7691D01*
X8811Y8387D02*
Y8478D01*
X8933Y7466D02*
Y7459D01*
Y7466D02*
Y7636D01*
Y7934D01*
Y7988D02*
Y8018D01*
Y8249D02*
Y8264D01*
Y8273D01*
Y8387D02*
Y8518D01*
Y8632D02*
Y8711D01*
X8927Y7466D02*
Y7459D01*
Y7636D02*
Y7934D01*
Y7988D02*
Y8022D01*
Y8243D02*
Y8264D01*
Y8273D01*
Y8387D02*
Y8430D01*
Y8474D02*
Y8518D01*
Y8632D02*
Y8711D01*
X8921Y7466D02*
Y7459D01*
Y7636D02*
Y7934D01*
Y7988D02*
Y8022D01*
Y8264D02*
Y8273D01*
Y8387D02*
Y8421D01*
Y8482D02*
Y8518D01*
Y8632D02*
Y8711D01*
X8915Y7466D02*
Y7459D01*
Y7636D02*
Y7934D01*
Y7988D02*
Y8022D01*
Y8264D02*
Y8273D01*
Y8387D02*
Y8416D01*
Y8488D02*
Y8518D01*
Y8632D02*
Y8711D01*
X8909Y7466D02*
Y7459D01*
Y7636D02*
Y7934D01*
Y7988D02*
Y8022D01*
Y8264D02*
Y8273D01*
Y8387D02*
Y8412D01*
Y8492D02*
Y8518D01*
Y8632D02*
Y8711D01*
X8903Y7466D02*
Y7459D01*
Y7636D02*
Y7934D01*
Y7988D02*
Y8022D01*
Y8264D02*
Y8273D01*
Y8387D02*
Y8409D01*
Y8495D02*
Y8518D01*
Y8632D02*
Y8711D01*
X8897Y7466D02*
Y7459D01*
Y7680D02*
Y7807D01*
Y7988D02*
Y8022D01*
Y8264D02*
Y8273D01*
Y8387D01*
Y8407D01*
Y8497D02*
Y8518D01*
Y8632D01*
Y8711D01*
X8891Y7466D02*
Y7459D01*
Y7687D02*
Y7800D01*
Y7988D02*
Y8022D01*
Y8264D02*
Y8273D01*
Y8387D01*
Y8406D01*
Y8498D02*
Y8518D01*
Y8632D01*
Y8711D01*
X8885Y7466D02*
Y7459D01*
Y7691D02*
Y7796D01*
Y7988D02*
Y8022D01*
Y8264D02*
Y8405D01*
Y8498D02*
Y8711D01*
X8879Y7466D02*
Y7459D01*
Y7693D02*
Y7794D01*
Y7988D02*
Y8022D01*
Y8264D02*
Y8273D01*
Y8387D01*
Y8406D01*
Y8498D02*
Y8518D01*
Y8632D01*
Y8711D01*
X8873Y7466D02*
Y7459D01*
Y7694D02*
Y7793D01*
Y7988D02*
Y8022D01*
Y8264D02*
Y8273D01*
Y8387D01*
Y8407D01*
Y8497D02*
Y8518D01*
Y8632D01*
Y8711D01*
X8867Y7466D02*
Y7459D01*
Y7693D02*
Y7794D01*
Y7988D02*
Y8022D01*
Y8264D02*
Y8273D01*
Y8387D02*
Y8409D01*
Y8494D02*
Y8518D01*
Y8632D02*
Y8711D01*
X8861Y7466D02*
Y7459D01*
Y7691D02*
Y7796D01*
Y7988D02*
Y8022D01*
Y8264D02*
Y8273D01*
Y8387D02*
Y8413D01*
Y8491D02*
Y8501D01*
Y8518D01*
Y8632D02*
Y8711D01*
X8855Y7466D02*
Y7459D01*
Y7687D02*
Y7800D01*
Y7982D02*
Y8022D01*
Y8264D02*
Y8273D01*
Y8387D02*
Y8417D01*
Y8632D02*
Y8711D01*
X8849Y7466D02*
Y7459D01*
Y7680D02*
Y7807D01*
Y7974D02*
Y8022D01*
Y8264D02*
Y8273D01*
Y8387D02*
Y8424D01*
Y8632D02*
Y8711D01*
X8843Y7466D02*
Y7459D01*
Y7636D02*
Y8022D01*
Y8264D02*
Y8273D01*
Y8387D02*
Y8434D01*
Y8632D02*
Y8711D01*
X8837Y7466D02*
Y7459D01*
Y7636D02*
Y8022D01*
Y8060D02*
Y8077D01*
Y8093D01*
Y8114D01*
Y8131D01*
Y8142D01*
Y8260D02*
Y8273D01*
Y8387D02*
Y8473D01*
Y8632D02*
Y8711D01*
X8831Y7466D02*
Y7459D01*
Y7636D02*
Y8022D01*
Y8060D02*
Y8077D01*
Y8090D01*
Y8093D02*
Y8114D01*
Y8131D01*
Y8260D02*
Y8272D01*
Y8387D02*
Y8473D01*
Y8632D02*
Y8711D01*
X8825Y7466D02*
Y7459D01*
Y7466D02*
Y7636D01*
Y8022D01*
Y8060D02*
Y8077D01*
Y8090D01*
Y8093D02*
Y8114D01*
Y8131D01*
Y8260D02*
Y8272D01*
Y8387D02*
Y8474D01*
Y8632D02*
Y8711D01*
X8819Y7466D02*
Y7459D01*
Y7466D02*
Y7636D01*
Y8022D01*
Y8060D02*
Y8090D01*
Y8142D01*
Y8260D02*
Y8272D01*
Y8387D02*
Y8477D01*
Y8632D02*
Y8711D01*
X8813Y8022D02*
Y7702D01*
Y8060D02*
Y8090D01*
Y8387D02*
Y8478D01*
Y8632D02*
Y8711D01*
X8807Y8022D02*
Y7709D01*
Y8060D02*
Y8090D01*
Y8632D02*
Y8711D01*
X8801Y8022D02*
Y7714D01*
Y8060D02*
Y8090D01*
Y8632D02*
Y8711D01*
X8795Y8022D02*
Y7714D01*
Y8060D02*
Y8090D01*
Y8273D02*
Y8283D01*
Y8524D02*
Y8632D01*
Y8711D01*
X8789Y8022D02*
Y7714D01*
Y8060D02*
Y8090D01*
Y8273D02*
Y8283D01*
Y8524D02*
Y8632D01*
Y8711D01*
X8783Y8022D02*
Y7714D01*
Y8060D02*
Y8090D01*
Y8272D02*
Y8283D01*
Y8524D02*
Y8711D01*
X8777Y8022D02*
Y7714D01*
Y8060D02*
Y8090D01*
Y8272D02*
Y8283D01*
Y8524D02*
Y8711D01*
X8771Y8022D02*
Y7714D01*
Y8060D02*
Y8090D01*
Y8272D02*
Y8283D01*
Y8516D02*
Y8711D01*
X8765Y8022D02*
Y7714D01*
Y8060D02*
Y8090D01*
Y8272D02*
Y8283D01*
Y8507D02*
Y8711D01*
X8759Y8022D02*
Y7714D01*
Y8060D02*
Y8090D01*
Y8272D02*
Y8283D01*
Y8519D02*
Y8711D01*
X8753Y8022D02*
Y7714D01*
Y8060D02*
Y8090D01*
Y8272D02*
Y8283D01*
Y8528D02*
Y8711D01*
X8747Y8022D02*
Y7714D01*
Y8060D02*
Y8090D01*
Y8272D02*
Y8283D01*
Y8536D02*
Y8711D01*
X8930Y8022D02*
X8938Y8013D01*
X8828Y8133D02*
X8836Y8142D01*
X8838Y8143D01*
X8828Y8133D02*
X8820Y8142D01*
X8922Y8238D02*
X8923Y8238D01*
X8925Y8240D01*
X8934Y8250D01*
X9098Y8171D02*
Y8131D01*
Y8136D02*
Y8096D01*
X9055Y7920D02*
Y7881D01*
Y7842D01*
X9033Y7782D02*
Y7741D01*
Y7700D01*
X8988D02*
Y7782D01*
X9100Y8518D02*
Y8632D01*
X9000D02*
Y8518D01*
X9072D02*
Y8632D01*
X8971D02*
Y8518D01*
X9100Y8387D02*
Y8296D01*
X9000D02*
Y8296D01*
Y8387D01*
X9072D02*
Y8296D01*
X8972Y8273D02*
Y8387D01*
X9032Y7636D02*
Y7466D01*
X9018Y8167D02*
Y8168D01*
Y8172D01*
Y8056D02*
Y8039D01*
Y8056D02*
Y8058D01*
X9002Y8168D02*
Y8168D01*
Y8172D01*
X9052Y8122D02*
Y8079D01*
Y8122D02*
Y8127D01*
X9058Y8141D02*
Y8144D01*
Y8160D01*
Y8182D01*
Y8178D01*
Y8182D02*
Y8196D01*
X9118Y7868D02*
Y7782D01*
Y7868D02*
Y7884D01*
Y7896D01*
X9128Y8136D02*
Y8144D01*
Y8144D01*
X9048Y8121D02*
Y8084D01*
X9014Y8387D02*
Y8431D01*
X9052D02*
Y8387D01*
X9022Y8183D02*
Y8172D01*
X8988Y8284D02*
Y8296D01*
X9034Y8043D02*
Y8032D01*
X9114Y8003D02*
Y7992D01*
X8958Y8022D02*
Y8033D01*
X9131Y7700D02*
Y7636D01*
Y7897D02*
Y7920D01*
Y7985D01*
Y8041D02*
Y8056D01*
Y8387D02*
Y8518D01*
Y8632D02*
Y8711D01*
X9125Y7466D02*
Y7459D01*
Y7636D02*
Y7700D01*
Y7896D02*
Y7991D01*
Y8047D02*
Y8056D01*
Y8387D02*
Y8518D01*
Y8632D02*
Y8711D01*
X9119Y7466D02*
Y7459D01*
Y7636D02*
Y7700D01*
Y7885D02*
Y7896D01*
Y7992D01*
Y8136D02*
Y8144D01*
Y8387D02*
Y8518D01*
Y8632D02*
Y8711D01*
X9113Y7466D02*
Y7459D01*
Y7636D02*
Y7700D01*
Y7782D02*
Y7873D01*
Y7879D02*
Y7896D01*
Y7992D01*
Y8003D01*
Y8136D02*
Y8144D01*
Y8387D02*
Y8518D01*
Y8632D02*
Y8711D01*
X9107Y7466D02*
Y7459D01*
Y7636D02*
Y7700D01*
Y7782D02*
Y7896D01*
Y7992D01*
Y8009D01*
Y8136D02*
Y8144D01*
Y8387D02*
Y8518D01*
Y8632D02*
Y8711D01*
X9101Y7466D02*
Y7459D01*
Y7636D02*
Y7700D01*
Y7782D02*
Y7992D01*
Y8015D01*
Y8136D02*
Y8144D01*
Y8387D02*
Y8518D01*
Y8632D02*
Y8711D01*
X9095Y7466D02*
Y7459D01*
Y7636D02*
Y7700D01*
Y7782D02*
Y8021D01*
Y8136D02*
Y8144D01*
Y8296D02*
Y8387D01*
Y8518D01*
Y8632D01*
Y8711D01*
X9089Y7466D02*
Y7459D01*
Y7636D02*
Y7700D01*
Y7782D02*
Y7862D01*
Y7901D02*
Y7941D01*
Y7979D02*
Y8027D01*
Y8136D02*
Y8144D01*
Y8296D02*
Y8387D01*
Y8518D01*
Y8632D01*
Y8711D01*
X9083Y7466D02*
Y7459D01*
Y7636D02*
Y7700D01*
Y7782D02*
Y7854D01*
Y7909D02*
Y7933D01*
Y7987D02*
Y8032D01*
Y8136D02*
Y8144D01*
Y8296D02*
Y8387D01*
Y8518D01*
Y8632D01*
Y8711D01*
X9077Y7466D02*
Y7459D01*
Y7636D02*
Y7700D01*
Y7782D02*
Y7849D01*
Y7914D02*
Y7928D01*
Y7992D02*
Y8032D01*
Y8136D02*
Y8144D01*
Y8296D02*
Y8387D01*
Y8518D01*
Y8632D01*
Y8711D01*
X9071Y7466D02*
Y7459D01*
Y7636D02*
Y7700D01*
Y7782D02*
Y7846D01*
Y7917D02*
Y7924D01*
Y7996D02*
Y8032D01*
Y8136D02*
Y8144D01*
Y8387D02*
Y8518D01*
Y8632D02*
Y8711D01*
X9065Y7466D02*
Y7459D01*
Y7636D02*
Y7700D01*
Y7782D02*
Y7843D01*
Y7998D02*
Y8032D01*
Y8136D02*
Y8144D01*
Y8387D02*
Y8470D01*
Y8518D01*
Y8632D02*
Y8711D01*
X9059Y7466D02*
Y7459D01*
Y7636D02*
Y7700D01*
Y7782D02*
Y7842D01*
Y7999D02*
Y8029D01*
Y8136D02*
Y8144D01*
Y8387D02*
Y8441D01*
Y8461D02*
Y8470D01*
Y8518D01*
Y8632D02*
Y8711D01*
X9053Y7466D02*
Y7459D01*
Y7636D02*
Y7700D01*
Y7782D02*
Y7842D01*
Y7999D02*
Y8023D01*
Y8032D01*
Y8160D02*
Y8182D01*
Y8196D01*
Y8387D02*
Y8431D01*
Y8471D02*
Y8518D01*
Y8632D02*
Y8711D01*
X9047Y7466D02*
Y7459D01*
Y7636D02*
Y7700D01*
Y7782D02*
Y7843D01*
Y7998D02*
Y8029D01*
Y8162D02*
Y8182D01*
Y8196D01*
Y8475D02*
Y8518D01*
Y8632D02*
Y8711D01*
X9041Y7466D02*
Y7459D01*
Y7636D02*
Y7700D01*
Y7782D02*
Y7845D01*
Y7997D02*
Y8032D01*
Y8166D02*
Y8196D01*
Y8478D02*
Y8518D01*
Y8632D02*
Y8711D01*
X9035Y7466D02*
Y7459D01*
Y7636D02*
Y7700D01*
Y7782D02*
Y7848D01*
Y7915D02*
Y7926D01*
Y7994D02*
Y8032D01*
Y8041D01*
Y8172D02*
Y8195D01*
Y8479D02*
Y8518D01*
Y8632D02*
Y8711D01*
X9029Y7466D02*
Y7459D01*
Y7466D02*
Y7636D01*
Y7700D01*
Y7782D02*
Y7852D01*
Y7911D02*
Y7931D01*
Y7989D02*
Y8032D01*
Y8039D01*
Y8047D01*
Y8172D02*
Y8189D01*
Y8479D02*
Y8518D01*
Y8632D02*
Y8711D01*
X9023Y7466D02*
Y7459D01*
Y7466D02*
Y7636D01*
Y7700D01*
Y7782D02*
Y7859D01*
Y7904D02*
Y7934D01*
Y7988D02*
Y8032D01*
Y8039D01*
Y8053D01*
Y8172D02*
Y8183D01*
Y8477D02*
Y8518D01*
Y8632D02*
Y8711D01*
X9017Y7700D02*
Y7459D01*
Y7782D02*
Y7872D01*
Y7891D02*
Y7934D01*
Y7988D02*
Y8039D01*
Y8474D02*
Y8518D01*
Y8632D02*
Y8711D01*
X9011Y7700D02*
Y7459D01*
Y7782D02*
Y7934D01*
Y7988D02*
Y8039D01*
Y8387D02*
Y8434D01*
Y8470D02*
Y8518D01*
Y8632D02*
Y8711D01*
X9005Y7700D02*
Y7459D01*
Y7782D02*
Y7934D01*
Y7988D02*
Y8039D01*
Y8387D02*
Y8451D01*
Y8470D01*
Y8518D01*
Y8632D02*
Y8711D01*
X8999Y7700D02*
Y7459D01*
Y7782D02*
Y7934D01*
Y7988D02*
Y8039D01*
Y8296D02*
Y8387D01*
Y8518D01*
Y8632D01*
Y8711D01*
X8993Y7700D02*
Y7459D01*
Y7782D02*
Y7934D01*
Y7988D02*
Y8039D01*
Y8296D02*
Y8387D01*
Y8518D01*
Y8632D01*
Y8711D01*
X8987Y7700D02*
Y7459D01*
Y7700D02*
Y7782D01*
Y7934D01*
Y7988D02*
Y8039D01*
Y8283D02*
Y8296D01*
Y8711D01*
X8981Y7700D02*
Y7459D01*
Y7700D02*
Y7782D01*
Y7934D01*
Y7988D02*
Y8039D01*
Y8277D02*
Y8296D01*
Y8387D01*
Y8518D01*
Y8632D01*
Y8711D01*
X8975Y7700D02*
Y7459D01*
Y7700D02*
Y7782D01*
Y7934D01*
Y7988D02*
Y8039D01*
Y8273D02*
Y8387D01*
Y8518D01*
Y8632D01*
Y8711D01*
X8969Y7934D02*
Y7459D01*
Y7988D02*
Y8022D01*
Y8039D01*
Y8265D02*
Y8273D01*
Y8387D02*
Y8518D01*
Y8632D02*
Y8711D01*
X8963Y7934D02*
Y7459D01*
Y7988D02*
Y8022D01*
Y8038D01*
Y8264D02*
Y8273D01*
Y8387D02*
Y8518D01*
Y8632D02*
Y8711D01*
X8957Y7934D02*
Y7459D01*
Y7988D02*
Y8022D01*
Y8032D01*
Y8265D02*
Y8273D01*
Y8387D02*
Y8518D01*
Y8632D02*
Y8711D01*
X8951Y7934D02*
Y7459D01*
Y7988D02*
Y8022D01*
Y8387D02*
Y8518D01*
Y8632D02*
Y8711D01*
X8945Y7934D02*
Y7459D01*
Y7988D02*
Y8020D01*
Y8264D02*
Y8273D01*
Y8387D02*
Y8518D01*
Y8632D02*
Y8711D01*
X8939Y7466D02*
Y7459D01*
Y7466D02*
Y7636D01*
Y7934D01*
Y7988D02*
Y8014D01*
Y8022D01*
Y8264D02*
Y8273D01*
Y8387D02*
Y8518D01*
Y8632D02*
Y8711D01*
X9116Y7882D02*
X9110Y7876D01*
X9116Y7882D02*
X9118Y7884D01*
X9130Y7896D01*
X9144Y7909D01*
X9110Y7876D02*
X9118Y7868D01*
X9008Y8168D02*
X9008Y8168D01*
X9008Y8169D01*
X9011Y8172D01*
X9018Y8179D01*
X9021Y8182D01*
X9022Y8183D01*
X9036Y8196D01*
X8998Y8168D02*
X8998Y8168D01*
X8968Y8264D02*
X8972Y8267D01*
X8978Y8273D01*
X8988Y8284D01*
X9000Y8296D01*
X9000Y8296D01*
X8946Y8022D02*
X8938Y8013D01*
X8946Y8022D02*
X8958Y8033D01*
X8964Y8039D01*
X9048Y8084D02*
X9052Y8079D01*
X9048Y8029D02*
X9053Y8023D01*
X9048Y8029D02*
X9045Y8032D01*
X9037Y8039D01*
X9034Y8043D01*
X9021Y8056D01*
X9020Y8056D01*
X9018Y8058D01*
X9053Y8023D02*
X9061Y8032D01*
X9116Y8056D02*
X9140Y8032D01*
X9128Y7988D02*
X9133Y7983D01*
X9128Y7988D02*
X9125Y7992D01*
X9114Y8003D01*
X9112Y8004D01*
X9086Y8030D01*
X9085Y8032D01*
X9133Y7983D02*
X9141Y7992D01*
X8963Y8168D02*
X8963Y8168D01*
X8948Y8264D02*
X8952Y8268D01*
X8953Y8269D01*
X8958Y8264D01*
X9313Y8111D02*
Y8070D01*
X9135Y8575D02*
Y8632D01*
Y8575D02*
Y8518D01*
X9233Y7596D02*
Y7556D01*
Y7516D01*
X9178Y7920D02*
Y7942D01*
X9198Y7950D02*
Y7992D01*
Y8030D02*
Y8032D01*
X9189Y7664D02*
Y7660D01*
X9269Y7612D02*
Y7610D01*
Y7612D02*
Y7614D01*
Y7616D01*
X9189Y7614D02*
Y7610D01*
Y7614D02*
Y7638D01*
X9257Y7614D02*
Y7610D01*
Y7614D02*
Y7616D01*
X9189Y7635D02*
Y7638D01*
Y7658D01*
Y7664D01*
Y7679D01*
X9188Y7596D02*
Y7516D01*
X9300Y8518D02*
Y8632D01*
X9200D02*
Y8518D01*
X9271D02*
Y8632D01*
X9171D02*
Y8518D01*
X9300Y8387D02*
Y8286D01*
X9200Y8273D02*
Y8273D01*
Y8273D02*
Y8387D01*
X9272D02*
Y8273D01*
X9172D02*
Y8273D01*
Y8273D02*
Y8387D01*
X9134Y7636D02*
Y7538D01*
X9272Y8062D02*
Y8066D01*
Y8136D01*
Y8240D02*
Y8246D01*
X9234Y8136D02*
Y8056D01*
X9238Y8248D02*
Y8273D01*
Y8273D01*
Y8144D02*
Y8141D01*
X9314Y7614D02*
Y7596D01*
X9292Y7714D02*
Y7719D01*
X9180Y7511D02*
Y7486D01*
X9168Y8144D02*
Y8144D01*
X9238Y8136D02*
Y8133D01*
Y8136D02*
Y8144D01*
Y8148D01*
X9144Y7920D02*
Y7909D01*
X9254Y7616D02*
Y7614D01*
X9329Y7516D02*
Y7459D01*
Y7708D02*
Y7717D01*
Y7942D02*
Y7950D01*
Y8032D02*
Y8066D01*
Y8387D02*
Y8518D01*
Y8632D02*
Y8711D01*
X9323Y7516D02*
Y7459D01*
Y7708D02*
Y7719D01*
Y7942D02*
Y7950D01*
Y8032D02*
Y8066D01*
Y8387D02*
Y8518D01*
Y8632D02*
Y8711D01*
X9317Y7516D02*
Y7459D01*
Y7710D02*
Y7719D01*
Y7942D02*
Y7950D01*
Y8032D02*
Y8066D01*
Y8387D02*
Y8518D01*
Y8632D02*
Y8711D01*
X9311Y7516D02*
Y7459D01*
Y7596D02*
Y7614D01*
Y7712D02*
Y7719D01*
Y7942D02*
Y7950D01*
Y8032D02*
Y8066D01*
Y8387D02*
Y8518D01*
Y8632D02*
Y8711D01*
X9305Y7516D02*
Y7459D01*
Y7596D02*
Y7614D01*
Y7708D02*
Y7719D01*
Y7942D02*
Y7950D01*
Y8032D02*
Y8066D01*
Y8387D02*
Y8518D01*
Y8632D02*
Y8711D01*
X9299Y7516D02*
Y7459D01*
Y7596D02*
Y7614D01*
Y7708D02*
Y7719D01*
Y7942D02*
Y7950D01*
Y8032D02*
Y8066D01*
Y8285D02*
Y8387D01*
Y8518D01*
Y8632D01*
Y8711D01*
X9293Y7516D02*
Y7459D01*
Y7596D02*
Y7614D01*
Y7942D02*
Y7950D01*
Y8032D02*
Y8066D01*
Y8281D02*
Y8387D01*
Y8518D01*
Y8632D01*
Y8711D01*
X9287Y7516D02*
Y7459D01*
Y7596D02*
Y7614D01*
Y7942D02*
Y7950D01*
Y8032D02*
Y8066D01*
Y8271D02*
Y8280D01*
Y8518D01*
Y8632D01*
Y8711D01*
X9281Y7516D02*
Y7459D01*
Y7596D02*
Y7614D01*
Y7942D02*
Y7950D01*
Y8032D02*
Y8066D01*
Y8246D02*
Y8273D01*
Y8280D01*
Y8387D01*
Y8518D01*
Y8632D01*
Y8711D01*
X9275Y7516D02*
Y7459D01*
Y7596D02*
Y7610D01*
Y7942D02*
Y7950D01*
Y8032D02*
Y8066D01*
Y8246D02*
Y8273D01*
Y8387D01*
Y8518D01*
Y8632D01*
Y8711D01*
X9269Y7516D02*
Y7459D01*
Y7596D02*
Y7612D01*
Y7942D02*
Y7950D01*
Y8032D02*
Y8066D01*
Y8136D01*
Y8246D02*
Y8273D01*
Y8387D02*
Y8518D01*
Y8632D02*
Y8711D01*
X9263Y7516D02*
Y7459D01*
Y7596D02*
Y7614D01*
Y7942D02*
Y7950D01*
Y8032D02*
Y8066D01*
Y8133D01*
Y8246D02*
Y8273D01*
Y8387D02*
Y8518D01*
Y8632D02*
Y8711D01*
X9257Y7516D02*
Y7459D01*
Y7596D02*
Y7614D01*
Y7616D02*
Y7624D01*
Y7942D02*
Y7950D01*
Y8032D02*
Y8129D01*
Y8136D01*
Y8240D02*
Y8273D01*
Y8387D02*
Y8518D01*
Y8632D02*
Y8711D01*
X9251Y7516D02*
Y7459D01*
Y7596D02*
Y7614D01*
Y7942D02*
Y7950D01*
Y8032D02*
Y8135D01*
Y8240D02*
Y8273D01*
Y8387D02*
Y8518D01*
Y8632D02*
Y8711D01*
X9245Y7516D02*
Y7459D01*
Y7596D02*
Y7614D01*
Y7942D02*
Y7950D01*
Y8032D02*
Y8056D01*
Y8136D01*
Y8242D02*
Y8273D01*
Y8387D02*
Y8518D01*
Y8632D02*
Y8711D01*
X9239Y7516D02*
Y7459D01*
Y7596D02*
Y7614D01*
Y7942D02*
Y7950D01*
Y8032D02*
Y8056D01*
Y8136D01*
Y8144D01*
Y8248D02*
Y8273D01*
Y8387D02*
Y8518D01*
Y8632D02*
Y8711D01*
X9233Y7516D02*
Y7459D01*
Y7596D02*
Y7614D01*
Y7942D02*
Y7950D01*
Y8032D02*
Y8056D01*
Y8136D02*
Y8144D01*
Y8387D02*
Y8518D01*
Y8632D02*
Y8711D01*
X9227Y7516D02*
Y7459D01*
Y7596D02*
Y7614D01*
Y7942D02*
Y7950D01*
Y8032D02*
Y8056D01*
Y8136D02*
Y8144D01*
Y8387D02*
Y8518D01*
Y8632D02*
Y8711D01*
X9221Y7516D02*
Y7459D01*
Y7596D02*
Y7614D01*
Y7942D02*
Y7950D01*
Y8032D02*
Y8056D01*
Y8136D02*
Y8144D01*
Y8387D02*
Y8518D01*
Y8632D02*
Y8711D01*
X9215Y7516D02*
Y7459D01*
Y7596D02*
Y7614D01*
Y7942D02*
Y7950D01*
Y8032D02*
Y8056D01*
Y8136D02*
Y8144D01*
Y8387D02*
Y8518D01*
Y8632D02*
Y8711D01*
X9209Y7516D02*
Y7459D01*
Y7596D02*
Y7614D01*
Y7942D02*
Y7950D01*
Y8032D02*
Y8056D01*
Y8136D02*
Y8144D01*
Y8387D02*
Y8518D01*
Y8632D02*
Y8711D01*
X9203Y7516D02*
Y7459D01*
Y7596D02*
Y7614D01*
Y7942D02*
Y7950D01*
Y8032D02*
Y8056D01*
Y8136D02*
Y8144D01*
Y8387D02*
Y8518D01*
Y8632D02*
Y8711D01*
X9197Y7516D02*
Y7459D01*
Y7596D02*
Y7614D01*
Y7942D02*
Y7950D01*
Y7992D01*
Y8032D02*
Y8056D01*
Y8136D02*
Y8144D01*
Y8273D02*
Y8387D01*
Y8518D01*
Y8632D01*
Y8711D01*
X9191Y7516D02*
Y7459D01*
Y7596D02*
Y7614D01*
Y7942D02*
Y7950D01*
Y7992D01*
Y8032D02*
Y8056D01*
Y8136D02*
Y8144D01*
Y8273D02*
Y8387D01*
Y8518D01*
Y8632D01*
Y8711D01*
X9185Y7516D02*
Y7459D01*
Y7516D02*
Y7596D01*
Y7614D01*
Y7638D01*
Y7658D01*
Y7664D02*
Y7681D01*
Y7942D02*
Y7950D01*
Y7992D01*
Y8032D02*
Y8056D01*
Y8136D02*
Y8144D01*
Y8273D02*
Y8711D01*
X9179Y7471D02*
Y7459D01*
Y7520D02*
Y7596D01*
Y7614D01*
Y7638D01*
Y7658D01*
Y7664D02*
Y7684D01*
Y7942D02*
Y7992D01*
Y8030D02*
Y8056D01*
Y8136D02*
Y8144D01*
Y8273D02*
Y8387D01*
Y8518D01*
Y8632D01*
Y8711D01*
X9173Y7688D02*
Y7530D01*
Y7920D02*
Y7942D01*
Y7992D01*
Y8030D02*
Y8056D01*
Y8273D02*
Y8387D01*
Y8518D01*
Y8632D01*
Y8711D01*
X9167Y7691D02*
Y7535D01*
Y7925D02*
Y7942D01*
Y7992D01*
Y8030D02*
Y8056D01*
Y8387D02*
Y8518D01*
Y8632D02*
Y8711D01*
X9161Y7694D02*
Y7538D01*
Y7927D02*
Y7992D01*
Y8030D02*
Y8056D01*
Y8387D02*
Y8518D01*
Y8632D02*
Y8711D01*
X9155Y7697D02*
Y7538D01*
Y7921D02*
Y7992D01*
Y8030D02*
Y8056D01*
Y8387D02*
Y8518D01*
Y8632D02*
Y8711D01*
X9149Y7700D02*
Y7538D01*
Y7920D02*
Y7992D01*
Y8030D02*
Y8056D01*
Y8387D02*
Y8518D01*
Y8632D02*
Y8711D01*
X9143Y7636D02*
Y7538D01*
Y7636D02*
Y7700D01*
Y7909D02*
Y7920D01*
Y7992D01*
Y8030D02*
Y8056D01*
Y8387D02*
Y8518D01*
Y8632D02*
Y8711D01*
X9137Y7636D02*
Y7538D01*
Y7636D02*
Y7700D01*
Y7903D02*
Y7920D01*
Y7987D01*
Y8035D02*
Y8056D01*
Y8387D02*
Y8518D01*
Y8632D02*
Y8711D01*
X9155Y7920D02*
X9144Y7909D01*
X9155Y7920D02*
X9158Y7923D01*
X9163Y7929D01*
X9171Y7920D01*
X9313Y7714D02*
X9318Y7708D01*
X9308Y7709D02*
X9308Y7708D01*
X9308Y7709D02*
X9313Y7714D01*
X9298Y7708D02*
X9292Y7714D01*
X9269Y7612D02*
X9273Y7608D01*
X9269Y7612D02*
X9268Y7614D01*
X9265Y7616D01*
X9257Y7624D01*
X9273Y7608D02*
X9278Y7613D01*
X9278Y7614D01*
X9278Y7614D01*
X9337Y7709D02*
X9327Y7719D01*
X9258Y8128D02*
X9250Y8136D01*
X9242Y8144D01*
X9238Y8148D01*
X9258Y8128D02*
X9266Y8136D01*
X9246Y8240D02*
X9240Y8246D01*
X9238Y8248D01*
X9214Y8273D02*
X9213Y8273D01*
X9168Y8144D02*
X9175Y8136D01*
X9140Y8032D02*
X9141Y8030D01*
X9164Y8273D02*
X9163Y8273D01*
X9149Y7700D02*
X9158Y7696D01*
X9168Y7690D01*
X9172Y7688D01*
X9181Y7684D01*
X9189Y7679D01*
X9335Y8575D02*
Y8632D01*
Y8575D02*
Y8518D01*
X9418Y7602D02*
Y7561D01*
Y7520D01*
X9358Y7910D02*
Y7942D01*
X9378Y7947D02*
Y7950D01*
Y7986D01*
Y7996D01*
X9337Y7708D02*
Y7690D01*
Y7708D02*
Y7709D01*
X9368Y7596D02*
Y7516D01*
X9432Y7976D02*
Y7996D01*
Y8036D02*
Y8056D01*
X9378Y7516D02*
Y7512D01*
Y7516D02*
Y7596D01*
Y7606D01*
X9458Y7516D02*
Y7512D01*
Y7516D02*
Y7606D01*
X9378D02*
Y7602D01*
Y7606D02*
Y7606D01*
Y7669D01*
X9458Y7606D02*
Y7602D01*
Y7606D02*
Y7606D01*
Y7696D01*
X9401Y7701D02*
Y7701D01*
X9471D02*
Y7723D01*
X9433Y7809D02*
Y7874D01*
X9438D02*
Y7814D01*
X9508Y7870D02*
Y7874D01*
X9512Y7886D02*
Y7946D01*
X9400Y8518D02*
Y8632D01*
X9371D02*
Y8518D01*
X9400Y8387D02*
Y8273D01*
X9372D02*
Y8387D01*
X9382Y8243D02*
Y8239D01*
X9464Y8189D02*
Y8186D01*
Y8206D02*
Y8243D01*
X9382Y8114D02*
Y8111D01*
Y8114D02*
Y8119D01*
Y8122D01*
X9464Y8114D02*
Y8111D01*
Y8114D02*
Y8152D01*
Y8148D01*
Y8152D02*
Y8168D01*
Y8189D01*
Y8206D01*
X9482Y8189D02*
Y8243D01*
Y8168D02*
Y8114D01*
X9354Y8239D02*
Y8246D01*
X9352Y7658D02*
Y7596D01*
Y7658D02*
Y7674D01*
Y7686D01*
X9421Y7874D02*
Y7875D01*
X9372Y8123D02*
Y8126D01*
X9334Y8066D02*
Y8032D01*
X9372D02*
Y8036D01*
Y8114D01*
Y8122D01*
Y8126D01*
Y8129D01*
X9465Y8387D02*
Y8401D01*
X9511D02*
Y8387D01*
X9465Y8398D02*
Y8401D01*
Y8411D01*
Y8518D01*
Y8632D02*
Y8711D01*
X9511Y8401D02*
Y8398D01*
Y8401D02*
Y8411D01*
Y8518D01*
Y8632D02*
Y8688D01*
X9382Y7738D02*
Y7726D01*
X9521Y7723D02*
Y7459D01*
Y7870D02*
Y7886D01*
Y8056D02*
Y8114D01*
Y8168D02*
Y8189D01*
Y8387D02*
Y8518D01*
Y8632D02*
Y8688D01*
X9515Y7723D02*
Y7459D01*
Y7874D02*
Y7886D01*
Y8056D02*
Y8114D01*
Y8168D02*
Y8189D01*
Y8387D02*
Y8518D01*
Y8632D02*
Y8688D01*
X9509Y7723D02*
Y7459D01*
Y7874D02*
Y7886D01*
Y7951D01*
Y8056D02*
Y8114D01*
Y8168D02*
Y8189D01*
X9503Y7723D02*
Y7459D01*
Y7874D02*
Y7886D01*
Y7960D01*
Y8056D02*
Y8114D01*
Y8168D02*
Y8189D01*
X9497Y7723D02*
Y7459D01*
Y7874D02*
Y7968D01*
Y8056D02*
Y8114D01*
Y8168D02*
Y8189D01*
X9491Y7723D02*
Y7459D01*
Y7874D02*
Y7976D01*
Y8056D02*
Y8114D01*
Y8168D02*
Y8189D01*
X9485Y7723D02*
Y7459D01*
Y7874D02*
Y7976D01*
Y8056D02*
Y8114D01*
Y8168D02*
Y8189D01*
X9479Y7701D02*
Y7459D01*
Y7701D02*
Y7723D01*
Y7874D02*
Y7976D01*
Y8056D02*
Y8114D01*
Y8168D01*
Y8189D01*
Y8243D01*
Y8256D01*
X9473Y7701D02*
Y7459D01*
Y7701D02*
Y7723D01*
Y7874D02*
Y7976D01*
Y8056D02*
Y8114D01*
Y8152D01*
Y8168D01*
Y8189D01*
Y8206D01*
Y8243D01*
Y8263D01*
X9467Y7516D02*
Y7459D01*
Y7516D02*
Y7606D01*
Y7606D02*
Y7696D01*
Y7874D02*
Y7976D01*
Y8056D02*
Y8114D01*
Y8152D01*
Y8168D01*
Y8189D01*
Y8206D01*
Y8243D01*
Y8272D01*
X9461Y7516D02*
Y7459D01*
Y7516D02*
Y7606D01*
Y7606D02*
Y7696D01*
Y7874D02*
Y7976D01*
Y8056D02*
Y8114D01*
Y8243D02*
Y8273D01*
Y8387D02*
Y8518D01*
Y8632D02*
Y8711D01*
X9455Y7516D02*
Y7459D01*
Y7874D02*
Y7976D01*
Y8056D02*
Y8114D01*
Y8243D02*
Y8273D01*
Y8387D02*
Y8518D01*
Y8632D02*
Y8711D01*
X9449Y7516D02*
Y7459D01*
Y7874D02*
Y7976D01*
Y8056D02*
Y8114D01*
Y8243D02*
Y8273D01*
Y8387D02*
Y8518D01*
Y8632D02*
Y8711D01*
X9443Y7516D02*
Y7459D01*
Y7874D02*
Y7976D01*
Y8056D02*
Y8114D01*
Y8243D02*
Y8273D01*
Y8387D02*
Y8518D01*
Y8632D02*
Y8711D01*
X9437Y7516D02*
Y7459D01*
Y7813D02*
Y7874D01*
Y7976D01*
Y8056D02*
Y8114D01*
Y8243D02*
Y8273D01*
Y8387D02*
Y8518D01*
Y8632D02*
Y8711D01*
X9431Y7516D02*
Y7459D01*
Y7874D02*
Y7976D01*
Y7996D01*
Y8036D02*
Y8056D01*
Y8114D01*
Y8243D02*
Y8273D01*
Y8387D02*
Y8518D01*
Y8632D02*
Y8711D01*
X9425Y7516D02*
Y7459D01*
Y7874D02*
Y7884D01*
Y7898D02*
Y7910D01*
Y7976D01*
Y7996D01*
Y8036D02*
Y8056D01*
Y8114D01*
Y8243D02*
Y8273D01*
Y8387D02*
Y8518D01*
Y8632D02*
Y8711D01*
X9419Y7516D02*
Y7459D01*
Y7910D02*
Y7996D01*
Y8036D02*
Y8114D01*
Y8243D02*
Y8273D01*
Y8387D02*
Y8518D01*
Y8632D02*
Y8711D01*
X9413Y7516D02*
Y7459D01*
Y7915D02*
Y7992D01*
Y8040D02*
Y8114D01*
Y8243D02*
Y8273D01*
Y8387D02*
Y8518D01*
Y8632D02*
Y8711D01*
X9407Y7516D02*
Y7459D01*
Y7918D02*
Y7989D01*
Y8043D02*
Y8114D01*
Y8243D02*
Y8273D01*
Y8387D02*
Y8518D01*
Y8632D02*
Y8711D01*
X9401Y7516D02*
Y7459D01*
Y7701D02*
Y7756D01*
Y7919D02*
Y7988D01*
Y8044D02*
Y8114D01*
Y8243D02*
Y8273D01*
Y8387D02*
Y8518D01*
Y8632D02*
Y8711D01*
X9395Y7516D02*
Y7459D01*
Y7707D02*
Y7726D01*
Y7750D01*
Y7919D02*
Y7988D01*
Y8044D02*
Y8114D01*
Y8243D02*
Y8273D01*
Y8387D01*
Y8518D01*
Y8632D01*
Y8711D01*
X9389Y7516D02*
Y7459D01*
Y7713D02*
Y7726D01*
Y7744D01*
Y7918D02*
Y7950D01*
Y7989D01*
Y8043D02*
Y8114D01*
Y8243D02*
Y8273D01*
Y8387D01*
Y8518D01*
Y8632D01*
Y8711D01*
X9383Y7516D02*
Y7459D01*
Y7719D02*
Y7726D01*
Y7738D01*
Y7915D02*
Y7950D01*
Y7986D01*
Y8040D02*
Y8114D01*
Y8243D02*
Y8273D01*
Y8387D01*
Y8518D01*
Y8632D01*
Y8711D01*
X9377Y7516D02*
Y7459D01*
Y7516D02*
Y7596D01*
Y7606D01*
Y7606D02*
Y7669D01*
Y7910D02*
Y7950D01*
Y8036D02*
Y8114D01*
Y8122D01*
Y8243D02*
Y8273D01*
Y8387D01*
Y8518D01*
Y8632D01*
Y8711D01*
X9371Y7516D02*
Y7459D01*
Y7516D02*
Y7596D01*
Y7606D01*
Y7606D02*
Y7675D01*
Y7910D02*
Y7942D01*
Y7950D01*
Y8243D02*
Y8273D01*
Y8387D02*
Y8518D01*
Y8632D01*
Y8711D01*
X9365Y7516D02*
Y7459D01*
Y7596D02*
Y7606D01*
Y7606D02*
Y7681D01*
Y7910D02*
Y7942D01*
Y7950D01*
Y8239D02*
Y8246D01*
Y8273D01*
Y8387D02*
Y8518D01*
Y8632D02*
Y8711D01*
X9359Y7516D02*
Y7459D01*
Y7596D02*
Y7664D01*
Y7668D02*
Y7686D01*
Y7910D02*
Y7942D01*
Y7950D01*
Y8239D02*
Y8246D01*
Y8273D01*
Y8387D02*
Y8518D01*
Y8632D02*
Y8711D01*
X9353Y7516D02*
Y7459D01*
Y7596D02*
Y7658D01*
Y7674D01*
Y7686D01*
Y7693D01*
Y7942D02*
Y7950D01*
Y8239D02*
Y8246D01*
Y8273D01*
Y8387D02*
Y8518D01*
Y8632D02*
Y8711D01*
X9347Y7516D02*
Y7459D01*
Y7686D02*
Y7699D01*
Y7942D02*
Y7950D01*
Y8246D02*
Y8273D01*
Y8387D02*
Y8518D01*
Y8632D02*
Y8711D01*
X9341Y7516D02*
Y7459D01*
Y7686D02*
Y7705D01*
Y7942D02*
Y7950D01*
Y8246D02*
Y8261D01*
Y8273D01*
Y8387D02*
Y8518D01*
Y8632D02*
Y8711D01*
X9335Y7516D02*
Y7459D01*
Y7942D02*
Y7950D01*
Y8387D02*
Y8518D01*
Y8632D02*
Y8711D01*
X9438Y7814D02*
X9433Y7809D01*
X9382Y7738D02*
X9373Y7728D01*
X9382Y7738D02*
X9384Y7739D01*
X9401Y7756D01*
X9388Y8113D02*
X9387Y8114D01*
X9382Y8119D01*
X9380Y8122D01*
X9375Y8126D01*
X9372Y8129D01*
X9498Y7966D02*
X9512Y7946D01*
X9498Y7966D02*
X9498Y7967D01*
X9492Y7976D01*
X9531Y8266D02*
X9524Y8273D01*
X9490Y8243D02*
X9490Y8243D01*
X9490Y8243D02*
X9482Y8252D01*
X9470Y8266D01*
X9470Y8266D01*
X9354Y7673D02*
X9361Y7666D01*
X9354Y7673D02*
X9352Y7674D01*
X9341Y7686D01*
X9337Y7690D01*
X9353Y7658D02*
X9352Y7658D01*
X9353Y7658D02*
X9361Y7666D01*
X9401Y7701D02*
X9405Y7696D01*
X9401Y7701D02*
X9401Y7701D01*
X9393Y7708D01*
X9384Y7718D01*
X9382Y7719D01*
X9382Y7719D01*
X9379Y7723D01*
X9378Y7724D01*
X9375Y7726D01*
X9373Y7728D01*
X9361Y7686D02*
X9378Y7669D01*
X9361Y7686D02*
X9360Y7686D01*
X9354Y7693D01*
X9352Y7694D01*
X9350Y7696D01*
X9345Y7701D01*
X9340Y7706D01*
X9338Y7708D01*
X9337Y7709D01*
X9683Y8101D02*
Y8141D01*
X9536Y8330D02*
Y8387D01*
Y8330D02*
Y8273D01*
X9645Y7601D02*
Y7560D01*
X9573Y7740D02*
Y7781D01*
X9568Y8016D02*
Y8056D01*
Y8016D02*
Y7976D01*
X9614D02*
Y8016D01*
Y8056D01*
X9718Y7642D02*
Y7634D01*
Y7680D02*
Y7740D01*
Y7742D01*
Y7752D01*
X9708Y7742D02*
Y7740D01*
Y7742D02*
Y7752D01*
Y7756D01*
Y7796D02*
Y7800D01*
X9694Y7886D02*
Y7966D01*
X9710Y7740D02*
Y7680D01*
Y7740D02*
Y7742D01*
X9581Y7687D02*
Y7685D01*
X9710Y7642D02*
Y7634D01*
X9700Y8518D02*
Y8632D01*
X9600D02*
Y8518D01*
X9671D02*
Y8632D01*
X9572D02*
Y8518D01*
X9700Y8387D02*
Y8273D01*
X9672D02*
Y8387D01*
X9622Y8056D02*
Y8016D01*
Y8056D02*
Y8096D01*
X9564Y8189D02*
Y8236D01*
Y8243D01*
Y8168D02*
Y8114D01*
X9642Y8229D02*
Y8243D01*
Y8114D02*
Y8111D01*
Y8114D02*
Y8152D01*
Y8148D01*
Y8152D02*
Y8168D01*
Y8174D01*
X9718Y8387D02*
Y8428D01*
X9714Y8493D02*
Y8518D01*
X9538Y7462D02*
Y7459D01*
Y7462D02*
Y7473D01*
Y7489D01*
Y7490D01*
Y7501D01*
X9578D02*
Y7490D01*
X9706Y7740D02*
Y7742D01*
X9614Y8428D02*
Y8429D01*
Y8471D02*
Y8518D01*
X9652D02*
Y8474D01*
X9614Y8408D02*
Y8387D01*
Y8408D02*
Y8424D01*
Y8429D01*
Y8431D01*
X9652Y8408D02*
Y8387D01*
X9568Y8252D02*
Y8248D01*
Y8387D02*
Y8423D01*
X9608Y8414D02*
Y8387D01*
Y8414D02*
Y8418D01*
Y8423D01*
Y8432D01*
Y8436D01*
Y8439D01*
Y8439D01*
X9568Y8236D02*
Y8233D01*
Y8236D02*
Y8243D01*
Y8248D01*
Y8252D01*
Y8264D01*
Y8273D01*
X9608D02*
Y8264D01*
X9536Y8251D02*
Y8243D01*
X9614Y7653D02*
Y7642D01*
X9548Y7462D02*
Y7459D01*
Y7462D02*
Y7463D01*
X9719Y8243D02*
Y8273D01*
Y8632D02*
Y8688D01*
X9713Y7642D02*
Y7634D01*
Y7680D02*
Y7740D01*
Y7742D02*
Y7752D01*
Y8243D02*
Y8273D01*
Y8387D02*
Y8425D01*
Y8493D02*
Y8518D01*
Y8632D02*
Y8688D01*
X9707Y8273D02*
Y8243D01*
Y8387D02*
Y8423D01*
Y8486D02*
Y8518D01*
Y8632D02*
Y8688D01*
X9701Y8273D02*
Y8243D01*
Y8387D02*
Y8423D01*
Y8479D02*
Y8518D01*
Y8632D02*
Y8688D01*
X9695Y7886D02*
Y7842D01*
Y7886D02*
Y7966D01*
Y7985D01*
Y8243D02*
Y8273D01*
Y8387D01*
Y8424D01*
Y8478D02*
Y8518D01*
Y8632D01*
Y8688D01*
X9689Y7886D02*
Y7822D01*
Y7966D02*
Y8016D01*
Y8105D02*
Y8114D01*
Y8243D02*
Y8273D01*
Y8387D01*
Y8427D01*
Y8475D02*
Y8518D01*
Y8632D01*
Y8688D01*
X9683Y7538D02*
Y7528D01*
Y7822D02*
Y7886D01*
Y7966D02*
Y8016D01*
Y8099D02*
Y8114D01*
Y8243D02*
Y8273D01*
Y8387D01*
Y8427D01*
Y8475D02*
Y8518D01*
Y8632D01*
Y8688D01*
X9677Y7538D02*
Y7490D01*
Y7822D02*
Y7886D01*
Y7966D02*
Y8016D01*
Y8096D02*
Y8114D01*
Y8243D02*
Y8273D01*
Y8387D01*
Y8424D01*
Y8478D02*
Y8518D01*
Y8632D01*
Y8688D01*
X9671Y7538D02*
Y7490D01*
Y7822D02*
Y7886D01*
Y7966D02*
Y8016D01*
Y8096D02*
Y8114D01*
Y8243D02*
Y8273D01*
Y8387D02*
Y8423D01*
Y8479D02*
Y8518D01*
Y8632D02*
Y8688D01*
X9665Y7547D02*
Y7490D01*
Y7822D02*
Y7886D01*
Y7966D02*
Y8016D01*
Y8096D02*
Y8114D01*
Y8243D02*
Y8273D01*
Y8387D02*
Y8420D01*
Y8479D02*
Y8518D01*
Y8632D02*
Y8688D01*
X9659Y7560D02*
Y7490D01*
Y7822D02*
Y7886D01*
Y7966D02*
Y8016D01*
Y8096D02*
Y8114D01*
Y8243D02*
Y8273D01*
Y8387D02*
Y8414D01*
Y8478D02*
Y8518D01*
Y8632D02*
Y8688D01*
X9653Y7560D02*
Y7490D01*
Y7822D02*
Y7886D01*
Y7966D02*
Y8016D01*
Y8096D02*
Y8114D01*
Y8243D02*
Y8273D01*
Y8387D02*
Y8408D01*
Y8475D02*
Y8518D01*
Y8632D02*
Y8688D01*
X9647Y7560D02*
Y7490D01*
Y7825D02*
Y7886D01*
Y7966D02*
Y8016D01*
Y8096D02*
Y8114D01*
Y8243D02*
Y8273D01*
Y8632D02*
Y8688D01*
X9641Y7560D02*
Y7490D01*
Y7831D02*
Y7886D01*
Y7966D02*
Y8016D01*
Y8096D02*
Y8114D01*
Y8152D01*
Y8168D01*
Y8175D01*
Y8231D02*
Y8243D01*
Y8273D01*
Y8632D02*
Y8688D01*
X9635Y7560D02*
Y7490D01*
Y7837D02*
Y7886D01*
Y7966D02*
Y8016D01*
Y8096D02*
Y8114D01*
Y8152D01*
Y8168D01*
Y8181D01*
Y8243D02*
Y8273D01*
Y8632D02*
Y8688D01*
X9629Y7560D02*
Y7490D01*
Y7843D02*
Y7884D01*
Y7966D02*
Y8016D01*
Y8096D02*
Y8187D01*
Y8243D02*
Y8273D01*
Y8632D02*
Y8688D01*
X9623Y7560D02*
Y7490D01*
Y7849D02*
Y7878D01*
Y7966D02*
Y7976D01*
Y8016D01*
Y8096D02*
Y8193D01*
Y8249D02*
Y8273D01*
Y8632D02*
Y8688D01*
X9617Y7560D02*
Y7490D01*
Y7642D02*
Y7649D01*
Y7849D02*
Y7872D01*
Y7966D02*
Y7976D01*
Y8016D01*
Y8056D01*
Y8096D01*
Y8199D01*
Y8255D02*
Y8273D01*
Y8632D02*
Y8688D01*
X9611Y7560D02*
Y7490D01*
Y7642D02*
Y7655D01*
Y7849D02*
Y7866D01*
Y7966D02*
Y7976D01*
Y8056D02*
Y8096D01*
Y8205D01*
Y8261D02*
Y8273D01*
Y8387D02*
Y8410D01*
Y8422D01*
Y8468D02*
Y8518D01*
Y8632D02*
Y8688D01*
X9605Y7560D02*
Y7490D01*
Y7642D02*
Y7660D01*
Y7849D02*
Y7860D01*
Y7966D02*
Y7976D01*
Y8056D02*
Y8211D01*
Y8442D02*
Y8450D01*
Y8451D02*
Y8518D01*
Y8632D02*
Y8688D01*
X9599Y7560D02*
Y7490D01*
Y7642D02*
Y7660D01*
Y7966D02*
Y7976D01*
Y8056D02*
Y8217D01*
Y8461D02*
Y8518D01*
Y8632D01*
Y8688D01*
X9593Y7560D02*
Y7490D01*
Y7642D02*
Y7660D01*
Y7966D02*
Y7976D01*
Y8056D02*
Y8223D01*
Y8471D02*
Y8518D01*
Y8632D01*
Y8688D01*
X9587Y7540D02*
Y7490D01*
Y7540D02*
Y7560D01*
Y7642D02*
Y7660D01*
Y7966D02*
Y7976D01*
Y8056D02*
Y8229D01*
Y8475D02*
Y8518D01*
Y8632D01*
Y8688D01*
X9581Y7505D02*
Y7490D01*
Y7540D02*
Y7560D01*
Y7576D01*
Y7616D02*
Y7642D01*
Y7660D01*
Y7685D01*
Y7687D02*
Y7740D01*
Y7966D02*
Y7976D01*
Y8056D02*
Y8235D01*
Y8478D02*
Y8518D01*
Y8632D01*
Y8688D01*
X9575Y7560D02*
Y7543D01*
Y7560D02*
Y7574D01*
Y7618D02*
Y7642D01*
Y7660D01*
Y7740D01*
Y7966D02*
Y7976D01*
Y8056D02*
Y8114D01*
Y8168D01*
Y8189D01*
Y8236D01*
Y8479D02*
Y8518D01*
Y8632D01*
Y8688D01*
X9569Y7560D02*
Y7547D01*
Y7560D02*
Y7570D01*
Y7622D02*
Y7642D01*
Y7660D01*
Y7740D01*
Y7966D02*
Y7976D01*
Y8056D02*
Y8114D01*
Y8168D01*
Y8189D01*
Y8236D01*
Y8479D02*
Y8518D01*
Y8632D02*
Y8688D01*
X9563Y7568D02*
Y7549D01*
Y7624D02*
Y7740D01*
Y7874D02*
Y7886D01*
Y7966D02*
Y7976D01*
Y8056D02*
Y8114D01*
Y8168D02*
Y8189D01*
Y8243D02*
Y8252D01*
Y8259D02*
Y8273D01*
Y8387D02*
Y8425D01*
Y8477D02*
Y8518D01*
Y8632D02*
Y8688D01*
X9557Y7568D02*
Y7549D01*
Y7624D02*
Y7740D01*
Y7870D02*
Y7886D01*
Y7966D02*
Y7976D01*
Y8056D02*
Y8114D01*
Y8168D02*
Y8189D01*
Y8243D02*
Y8252D01*
Y8273D01*
Y8387D02*
Y8428D01*
Y8474D02*
Y8518D01*
Y8632D02*
Y8688D01*
X9551Y7569D02*
Y7548D01*
Y7623D02*
Y7740D01*
Y7870D02*
Y7886D01*
Y7966D02*
Y7976D01*
Y8056D02*
Y8114D01*
Y8168D02*
Y8189D01*
Y8243D02*
Y8273D01*
Y8387D02*
Y8434D01*
Y8468D02*
Y8518D01*
Y8632D02*
Y8688D01*
X9545Y7571D02*
Y7546D01*
Y7621D02*
Y7740D01*
Y7870D02*
Y7886D01*
Y7967D02*
Y7976D01*
Y8056D02*
Y8114D01*
Y8168D02*
Y8189D01*
Y8243D02*
Y8273D01*
Y8387D02*
Y8451D01*
Y8518D01*
Y8632D02*
Y8688D01*
X9539Y7472D02*
Y7462D01*
Y7542D02*
Y7575D01*
Y7617D02*
Y7740D01*
Y7870D02*
Y7886D01*
Y8056D02*
Y8114D01*
Y8168D02*
Y8189D01*
Y8243D02*
Y8273D01*
Y8387D02*
Y8518D01*
Y8632D02*
Y8688D01*
X9533Y7478D02*
Y7462D01*
Y7484D02*
Y7508D01*
Y7540D02*
Y7576D01*
Y7616D02*
Y7735D01*
Y7870D02*
Y7886D01*
Y8056D02*
Y8114D01*
Y8168D02*
Y8189D01*
Y8262D02*
Y8273D01*
Y8387D02*
Y8518D01*
Y8632D02*
Y8688D01*
X9527Y7540D02*
Y7462D01*
Y7540D02*
Y7728D01*
Y7870D02*
Y7886D01*
Y8056D02*
Y8114D01*
Y8168D02*
Y8189D01*
Y8387D02*
Y8518D01*
Y8632D02*
Y8688D01*
X9575Y7886D02*
X9560Y7870D01*
X9594Y7849D02*
X9602Y7858D01*
X9604Y7859D01*
X9615Y7870D01*
X9618Y7873D01*
X9618Y7874D01*
X9630Y7886D01*
X9608Y8418D02*
X9614Y8424D01*
X9617Y8428D01*
X9652Y8408D02*
X9668Y8423D01*
X9686Y8102D02*
X9681Y8096D01*
X9686Y8102D02*
X9699Y8114D01*
X9629Y7842D02*
X9650Y7822D01*
X9550Y7462D02*
X9552Y7459D01*
X9550Y7462D02*
X9548Y7463D01*
X9538Y7473D01*
X9530Y7481D01*
X9538Y7489D01*
X9625Y7642D02*
X9618Y7648D01*
X9614Y7653D01*
X9606Y7660D01*
X9608Y8439D02*
X9608Y8439D01*
X9601Y8446D01*
X9568Y8423D02*
X9568Y8423D01*
X9545Y8446D02*
X9545Y8446D01*
X9545Y8446D01*
X9608Y8423D02*
X9615Y8430D01*
X9635Y8236D02*
X9642Y8229D01*
X9635Y8236D02*
X9629Y8243D01*
X9620Y8252D01*
X9608Y8264D01*
X9627Y8189D02*
X9642Y8174D01*
X9627Y8189D02*
X9611Y8206D01*
X9608Y8209D01*
X9580Y8236D01*
X9573Y8243D01*
X9568Y8248D01*
X9565Y8252D01*
X9560Y8256D01*
X9568Y8264D01*
X9701Y8479D02*
X9714Y8493D01*
X9539Y7976D02*
X9546Y7966D01*
X9531Y8266D02*
X9531Y8266D01*
X9848Y7802D02*
Y7761D01*
X9836Y8575D02*
Y8632D01*
Y8575D02*
Y8518D01*
X9758Y7746D02*
Y7706D01*
X9798Y7692D02*
Y7680D01*
Y7692D02*
Y7716D01*
Y7752D01*
X9808Y7687D02*
Y7680D01*
X9908Y8632D02*
Y8688D01*
X9900Y8626D02*
Y8518D01*
Y8626D02*
Y8632D01*
X9801D02*
Y8518D01*
X9872D02*
Y8632D01*
X9771D02*
Y8518D01*
X9901Y8387D02*
Y8273D01*
X9801D02*
Y8387D01*
X9872D02*
Y8273D01*
X9772D02*
Y8387D01*
X9832Y7926D02*
Y7922D01*
Y7926D02*
Y8006D01*
Y8012D02*
Y8016D01*
Y8096D01*
X9808Y7752D02*
Y7725D01*
Y7752D02*
Y7806D01*
X9888D02*
Y7718D01*
X9808Y7802D02*
Y7806D01*
Y7806D01*
Y7896D01*
X9888Y7806D02*
Y7802D01*
Y7806D02*
Y7806D01*
Y7864D01*
X9804Y8016D02*
Y8046D01*
Y8096D01*
X9850Y8102D02*
Y8106D01*
Y8109D01*
Y8248D02*
Y8251D01*
X9724Y8243D02*
Y8206D01*
Y8200D02*
Y8199D01*
Y8200D02*
Y8206D01*
X9742Y8218D02*
Y8243D01*
X9824D02*
Y8241D01*
X9915Y8387D02*
Y8435D01*
Y8273D02*
Y8267D01*
X9818Y8387D02*
Y8436D01*
X9858D02*
Y8387D01*
X9758D02*
Y8436D01*
X9752Y8480D02*
Y8495D01*
Y8518D01*
X9858Y8016D02*
Y8006D01*
X9898D02*
Y8016D01*
X9792Y8096D02*
Y8114D01*
X9741Y7985D02*
Y7842D01*
X9911Y7798D02*
Y7700D01*
Y7798D02*
Y7819D01*
Y7886D01*
Y8006D02*
Y8016D01*
Y8096D02*
Y8106D01*
Y8258D02*
Y8273D01*
Y8387D02*
Y8444D01*
Y8458D02*
Y8518D01*
X9905Y7880D02*
Y7702D01*
Y8006D02*
Y8016D01*
Y8096D02*
Y8106D01*
Y8251D02*
Y8273D01*
Y8387D02*
Y8518D01*
Y8632D02*
Y8688D01*
X9899Y7716D02*
Y7708D01*
Y7716D02*
Y7806D01*
Y7806D02*
Y7874D01*
Y8006D02*
Y8016D01*
Y8096D02*
Y8106D01*
Y8251D02*
Y8273D01*
Y8387D01*
Y8518D01*
Y8626D01*
Y8632D02*
Y8688D01*
X9893Y7806D02*
Y7716D01*
Y7806D02*
Y7868D01*
Y8096D02*
Y8106D01*
Y8251D02*
Y8273D01*
Y8387D01*
Y8518D01*
Y8632D01*
Y8688D01*
X9887Y7926D02*
Y7918D01*
Y8096D02*
Y8106D01*
Y8251D02*
Y8688D01*
X9881Y7926D02*
Y7912D01*
Y8096D02*
Y8106D01*
Y8251D02*
Y8273D01*
Y8387D01*
Y8518D01*
Y8632D01*
Y8688D01*
X9875Y7926D02*
Y7906D01*
Y8096D02*
Y8106D01*
Y8251D02*
Y8273D01*
Y8387D01*
Y8518D01*
Y8632D01*
Y8688D01*
X9869Y7926D02*
Y7900D01*
Y8096D02*
Y8106D01*
Y8251D02*
Y8273D01*
Y8387D02*
Y8476D01*
Y8518D01*
Y8632D02*
Y8688D01*
X9863Y7926D02*
Y7896D01*
Y8096D02*
Y8106D01*
Y8251D02*
Y8273D01*
Y8387D02*
Y8443D01*
Y8476D02*
Y8518D01*
Y8632D02*
Y8688D01*
X9857Y7926D02*
Y7896D01*
Y8006D02*
Y8016D01*
Y8096D02*
Y8106D01*
Y8251D02*
Y8273D01*
Y8477D02*
Y8518D01*
Y8632D02*
Y8688D01*
X9851Y7926D02*
Y7896D01*
Y8006D02*
Y8016D01*
Y8096D02*
Y8106D01*
Y8251D02*
Y8273D01*
Y8481D02*
Y8518D01*
Y8632D02*
Y8688D01*
X9845Y7926D02*
Y7896D01*
Y8006D02*
Y8016D01*
Y8096D02*
Y8106D01*
Y8251D02*
Y8273D01*
Y8483D02*
Y8518D01*
Y8632D02*
Y8688D01*
X9839Y7926D02*
Y7896D01*
Y8006D02*
Y8016D01*
Y8096D02*
Y8104D01*
Y8251D02*
Y8273D01*
Y8484D02*
Y8518D01*
Y8632D02*
Y8688D01*
X9833Y7926D02*
Y7896D01*
Y8006D02*
Y8016D01*
Y8247D02*
Y8273D01*
Y8484D02*
Y8518D01*
Y8632D02*
Y8688D01*
X9827Y7926D02*
Y7896D01*
Y7926D02*
Y8006D01*
Y8016D01*
Y8096D01*
Y8104D01*
Y8244D02*
Y8273D01*
Y8482D02*
Y8518D01*
Y8632D02*
Y8688D01*
X9821Y7926D02*
Y7896D01*
Y7926D02*
Y8006D01*
Y8016D01*
Y8096D01*
Y8106D01*
Y8243D02*
Y8273D01*
Y8478D02*
Y8518D01*
Y8632D02*
Y8688D01*
X9815Y8016D02*
Y7896D01*
Y8016D02*
Y8096D01*
Y8110D01*
Y8243D02*
Y8273D01*
Y8387D02*
Y8440D01*
Y8476D02*
Y8518D01*
Y8632D02*
Y8688D01*
X9809Y8016D02*
Y7896D01*
Y8016D02*
Y8096D01*
Y8112D01*
Y8243D02*
Y8273D01*
Y8387D02*
Y8476D01*
Y8518D01*
Y8632D02*
Y8688D01*
X9803Y7692D02*
Y7680D01*
Y7719D02*
Y7752D01*
Y7806D01*
Y7806D02*
Y7896D01*
Y8016D01*
Y8096D02*
Y8112D01*
Y8243D02*
Y8273D01*
Y8387D02*
Y8518D01*
Y8632D02*
Y8688D01*
X9797Y7796D02*
Y7756D01*
Y7796D02*
Y7806D01*
Y7806D02*
Y7896D01*
Y8016D01*
Y8096D02*
Y8114D01*
Y8243D02*
Y8273D01*
Y8387D01*
Y8518D01*
Y8632D01*
Y8688D01*
X9791Y8016D02*
Y7796D01*
Y8243D02*
Y8273D01*
Y8387D01*
Y8518D01*
Y8632D01*
Y8688D01*
X9785Y8016D02*
Y7798D01*
Y8243D02*
Y8688D01*
X9779Y8016D02*
Y7802D01*
Y8243D02*
Y8273D01*
Y8387D01*
Y8518D01*
Y8632D01*
Y8688D01*
X9773Y8016D02*
Y7804D01*
Y8243D02*
Y8273D01*
Y8387D01*
Y8518D01*
Y8632D01*
Y8688D01*
X9767Y8016D02*
Y7804D01*
Y8243D02*
Y8273D01*
Y8387D02*
Y8476D01*
Y8518D01*
Y8632D02*
Y8688D01*
X9761Y8016D02*
Y7803D01*
Y8243D02*
Y8273D01*
Y8387D02*
Y8440D01*
Y8476D02*
Y8518D01*
Y8632D02*
Y8688D01*
X9755Y8016D02*
Y7801D01*
Y8243D02*
Y8273D01*
Y8482D02*
Y8493D01*
Y8518D01*
Y8632D02*
Y8688D01*
X9749Y8016D02*
Y7797D01*
Y8243D02*
Y8273D01*
Y8632D02*
Y8688D01*
X9743Y7813D02*
Y7796D01*
Y7839D02*
Y7988D01*
Y8243D02*
Y8273D01*
Y8632D02*
Y8688D01*
X9737Y7805D02*
Y7796D01*
Y8213D02*
Y8243D01*
Y8273D01*
Y8632D02*
Y8688D01*
X9731Y8243D02*
Y8207D01*
Y8243D02*
Y8273D01*
Y8632D02*
Y8688D01*
X9725Y8243D02*
Y8206D01*
Y8243D02*
Y8273D01*
Y8632D02*
Y8688D01*
X9888Y7919D02*
X9866Y7896D01*
X9888Y7919D02*
X9894Y7924D01*
X9895Y7926D01*
X9898Y7873D02*
X9888Y7864D01*
X9898Y7873D02*
X9918Y7893D01*
X9724Y8199D02*
X9725Y8200D01*
X9730Y8206D01*
X9742Y8218D01*
X9914Y7693D02*
X9915Y7692D01*
X9914Y7693D02*
X9906Y7700D01*
X9898Y7708D01*
X9898Y7709D01*
X9891Y7716D01*
X9888Y7718D01*
X9886Y7720D01*
X9863Y8176D02*
X9869Y8181D01*
X9753Y8480D02*
X9758Y8485D01*
X9760Y8488D01*
X9752Y8495D01*
X9943Y7692D02*
Y7651D01*
Y7610D01*
X9988D02*
Y7692D01*
Y7693D01*
X10072Y8110D02*
Y8192D01*
X9998Y8626D02*
Y8632D01*
X10088D02*
Y8626D01*
Y8632D02*
Y8688D01*
X9998Y8632D02*
Y8626D01*
X10101D02*
Y8518D01*
Y8626D02*
Y8632D01*
X10000Y8626D02*
Y8518D01*
Y8626D02*
Y8632D01*
X10072Y8626D02*
Y8518D01*
X9971D02*
Y8626D01*
X10101Y8387D02*
Y8273D01*
X10001D02*
Y8387D01*
X10072D02*
Y8273D01*
X9972D02*
Y8387D01*
X10012Y7606D02*
Y7600D01*
X9918Y7692D02*
Y7693D01*
Y7700D01*
Y7798D01*
X10000Y7693D02*
Y7692D01*
Y7693D02*
Y7798D01*
X9918Y7819D02*
Y7893D01*
X10000Y7924D02*
Y7819D01*
Y7924D02*
Y7926D01*
X10034Y8053D02*
Y8072D01*
X10034Y8013D02*
Y8010D01*
Y8013D02*
Y8018D01*
Y8030D01*
Y8033D01*
Y8053D01*
X10034Y8018D02*
Y8013D01*
Y8010D01*
X10034Y7956D02*
Y7951D01*
Y7956D02*
Y7964D01*
X10014Y7926D02*
Y7922D01*
Y7926D02*
Y7953D01*
Y7956D01*
X9924Y8012D02*
Y8016D01*
X9922D02*
Y8012D01*
X10014D02*
Y8016D01*
Y8096D01*
X9937Y8144D02*
Y8176D01*
Y8181D01*
Y8214D01*
X10023D02*
Y8144D01*
X9936Y8106D02*
Y8102D01*
Y8106D02*
Y8144D01*
Y8176D01*
Y8178D02*
Y8181D01*
Y8214D01*
Y8223D01*
X9961Y8387D02*
Y8435D01*
Y8273D02*
Y8267D01*
X9958Y8144D02*
Y8096D01*
X9998D02*
Y8144D01*
X9918Y7693D02*
Y7692D01*
Y7693D02*
Y7700D01*
X10014Y7999D02*
Y8006D01*
Y8010D01*
X10109Y7951D02*
Y7606D01*
Y8072D02*
Y8110D01*
Y8192D02*
Y8273D01*
Y8387D02*
Y8518D01*
Y8632D02*
Y8688D01*
X10103Y7951D02*
Y7606D01*
Y8072D02*
Y8110D01*
Y8192D02*
Y8273D01*
Y8387D02*
Y8518D01*
Y8632D02*
Y8688D01*
X10097Y7951D02*
Y7606D01*
Y8072D02*
Y8110D01*
Y8192D02*
Y8273D01*
Y8387D01*
Y8518D01*
Y8626D01*
Y8632D02*
Y8688D01*
X10091Y7951D02*
Y7606D01*
Y8072D02*
Y8110D01*
Y8192D02*
Y8273D01*
Y8387D01*
Y8518D01*
Y8626D01*
Y8632D02*
Y8688D01*
X10085Y7951D02*
Y7606D01*
Y8072D02*
Y8110D01*
Y8192D02*
Y8626D01*
X10079Y7951D02*
Y7606D01*
Y8072D02*
Y8110D01*
Y8192D02*
Y8273D01*
Y8387D01*
Y8518D01*
Y8626D01*
X10073Y7951D02*
Y7606D01*
Y8072D02*
Y8110D01*
Y8192D02*
Y8273D01*
Y8387D01*
Y8518D01*
Y8626D01*
X10067Y7951D02*
Y7606D01*
Y8072D02*
Y8110D01*
Y8192D01*
Y8273D01*
Y8387D02*
Y8518D01*
X10061Y7951D02*
Y7606D01*
Y8072D02*
Y8110D01*
Y8192D01*
Y8273D01*
Y8387D02*
Y8518D01*
X10055Y7951D02*
Y7606D01*
Y8072D02*
Y8273D01*
Y8387D02*
Y8518D01*
X10049Y7951D02*
Y7606D01*
Y8072D02*
Y8273D01*
Y8387D02*
Y8518D01*
X10043Y7951D02*
Y7606D01*
Y8072D02*
Y8273D01*
Y8387D02*
Y8518D01*
X10037Y7951D02*
Y7606D01*
Y8072D02*
Y8273D01*
Y8387D02*
Y8518D01*
X10031Y7951D02*
Y7606D01*
Y8017D02*
Y8030D01*
Y8033D02*
Y8053D01*
Y8072D01*
Y8144D01*
Y8214D01*
Y8273D01*
Y8387D02*
Y8518D01*
X10025Y7926D02*
Y7606D01*
Y7926D02*
Y7951D01*
Y8016D02*
Y8030D01*
Y8033D02*
Y8053D01*
Y8072D01*
Y8096D01*
Y8144D01*
Y8214D01*
Y8273D01*
Y8387D02*
Y8518D01*
X10019Y7926D02*
Y7606D01*
Y7926D02*
Y7949D01*
Y7956D01*
Y8016D02*
Y8096D01*
Y8144D01*
Y8214D02*
Y8273D01*
Y8387D02*
Y8518D01*
X10013Y7693D02*
Y7606D01*
Y7693D02*
Y7798D01*
Y7819D01*
Y7924D01*
Y7999D02*
Y8006D01*
Y8096D02*
Y8144D01*
Y8214D02*
Y8273D01*
Y8387D02*
Y8518D01*
X10007Y7693D02*
Y7606D01*
Y7693D02*
Y7798D01*
Y7819D01*
Y7924D01*
Y8096D02*
Y8144D01*
Y8214D02*
Y8273D01*
Y8387D02*
Y8518D01*
X10001Y7692D02*
Y7610D01*
Y7693D02*
Y7798D01*
Y7819D01*
Y7924D01*
Y8096D02*
Y8144D01*
Y8214D02*
Y8273D01*
Y8387D02*
Y8518D01*
X9995Y7610D02*
Y7600D01*
Y7610D02*
Y7692D01*
Y7798D02*
Y7819D01*
Y8006D02*
Y8016D01*
Y8214D02*
Y8273D01*
Y8387D01*
Y8518D01*
Y8626D01*
X9989Y7610D02*
Y7600D01*
Y7610D02*
Y7692D01*
Y7798D02*
Y7819D01*
Y8006D02*
Y8016D01*
Y8214D02*
Y8273D01*
Y8387D01*
Y8518D01*
Y8626D01*
X9983Y7610D02*
Y7600D01*
Y7798D02*
Y7819D01*
Y8006D02*
Y8016D01*
Y8214D02*
Y8273D01*
Y8387D01*
Y8518D01*
Y8626D01*
X9977Y7610D02*
Y7600D01*
Y7798D02*
Y7819D01*
Y8006D02*
Y8016D01*
Y8214D02*
Y8273D01*
Y8387D01*
Y8518D01*
Y8626D01*
X9971Y7610D02*
Y7600D01*
Y7798D02*
Y7819D01*
Y8006D02*
Y8016D01*
Y8214D02*
Y8273D01*
Y8387D02*
Y8518D01*
X9965Y7610D02*
Y7600D01*
Y7798D02*
Y7819D01*
Y8006D02*
Y8016D01*
Y8214D02*
Y8244D01*
Y8258D02*
Y8273D01*
Y8387D02*
Y8444D01*
Y8458D02*
Y8518D01*
X9959Y7610D02*
Y7600D01*
Y7798D02*
Y7819D01*
Y8006D02*
Y8016D01*
Y8214D02*
Y8232D01*
Y8470D02*
Y8518D01*
X9953Y7610D02*
Y7600D01*
Y7798D02*
Y7819D01*
Y8006D02*
Y8016D01*
Y8096D02*
Y8144D01*
Y8214D02*
Y8227D01*
Y8475D02*
Y8518D01*
X9947Y7610D02*
Y7600D01*
Y7798D02*
Y7819D01*
Y8006D02*
Y8016D01*
Y8096D02*
Y8106D01*
Y8144D01*
Y8214D02*
Y8224D01*
Y8478D02*
Y8518D01*
X9941Y7610D02*
Y7601D01*
Y7798D02*
Y7819D01*
Y8006D02*
Y8016D01*
Y8096D02*
Y8106D01*
Y8144D01*
Y8214D02*
Y8223D01*
Y8479D02*
Y8518D01*
X9935Y7819D02*
Y7798D01*
Y8006D02*
Y8016D01*
Y8096D02*
Y8106D01*
Y8479D02*
Y8518D01*
X9929Y7819D02*
Y7798D01*
Y8006D02*
Y8016D01*
Y8096D02*
Y8106D01*
Y8478D02*
Y8518D01*
X9923Y7819D02*
Y7798D01*
Y8006D02*
Y8016D01*
Y8096D02*
Y8106D01*
Y8475D02*
Y8518D01*
X9917Y7700D02*
Y7693D01*
Y7700D02*
Y7798D01*
Y7819D01*
Y7892D01*
Y8006D02*
Y8016D01*
Y8096D02*
Y8106D01*
Y8470D02*
Y8518D01*
X10021Y8006D02*
X10014Y7999D01*
X10021Y8006D02*
X10025Y8010D01*
X10025Y8010D01*
X10028Y8013D01*
X10030Y8016D01*
X10033Y8019D01*
X10021Y7951D02*
X10018Y7948D01*
X10021Y7951D02*
X10026Y7956D01*
X10034Y7964D01*
X10018Y7948D02*
X10014Y7953D01*
X9950Y7926D02*
X9949Y7924D01*
X9931Y7610D02*
X9941Y7600D01*
X10288Y7648D02*
Y7676D01*
X10136Y8575D02*
Y8632D01*
Y8575D02*
Y8518D01*
X10118Y8192D02*
Y8151D01*
Y8110D01*
X10172Y8626D02*
Y8632D01*
Y8688D01*
X10301Y8626D02*
Y8518D01*
X10200D02*
Y8626D01*
X10271D02*
Y8518D01*
X10172D02*
Y8626D01*
Y8632D01*
X10201Y8387D02*
Y8278D01*
X10172Y8273D02*
Y8387D01*
X10228Y7606D02*
Y7526D01*
X10194D02*
Y7606D01*
X10135Y7693D02*
Y7798D01*
X10217Y7756D02*
Y7693D01*
Y7796D02*
Y7798D01*
X10135Y7819D02*
Y7924D01*
X10217D02*
Y7850D01*
X10122Y8026D02*
Y8030D01*
Y8033D02*
Y8053D01*
Y8072D01*
X10122Y8033D02*
Y8030D01*
X10122Y7990D02*
Y7987D01*
Y8013D02*
Y8030D01*
Y8033D01*
Y7971D02*
Y7967D01*
Y7971D02*
Y7990D01*
Y7994D01*
Y8010D01*
Y8013D01*
X10122Y7971D02*
Y7951D01*
X10207D02*
Y7948D01*
Y7951D02*
Y7971D01*
X10295Y7951D02*
Y7948D01*
Y7951D02*
Y7971D01*
X10207D02*
Y7967D01*
Y7971D02*
Y7982D01*
Y7990D01*
X10295Y7971D02*
Y7967D01*
Y7971D02*
Y7990D01*
X10207Y7990D02*
Y7987D01*
X10295D02*
Y7990D01*
Y7994D01*
Y8010D01*
Y8007D01*
Y8010D02*
Y8012D01*
X10298Y7619D02*
Y7606D01*
Y7619D02*
Y7630D01*
X10224Y8387D02*
Y8431D01*
X10248Y7526D02*
Y7503D01*
X10214Y8482D02*
Y8493D01*
Y8509D01*
Y8518D01*
X10252D02*
Y8509D01*
X10308Y8273D02*
Y8259D01*
Y8387D02*
Y8438D01*
Y8454D01*
Y8466D01*
X10186Y8233D02*
Y8192D01*
Y8269D02*
Y8272D01*
X10172Y8017D02*
Y8004D01*
Y8017D02*
Y8035D01*
Y8110D01*
X10186Y8002D02*
Y7990D01*
X10194Y7818D02*
Y7806D01*
X10307Y7646D02*
Y7630D01*
Y7854D02*
Y7876D01*
Y7951D01*
Y7956D02*
Y7971D01*
Y7990D01*
Y7994D02*
Y8010D01*
Y8455D02*
Y8466D01*
Y8518D01*
X10301Y7630D02*
Y7622D01*
Y7630D02*
Y7646D01*
Y7854D02*
Y7876D01*
Y7951D01*
Y7956D02*
Y7971D01*
Y7990D01*
Y7994D02*
Y8010D01*
Y8466D02*
Y8518D01*
X10295Y7616D02*
Y7606D01*
Y7616D02*
Y7630D01*
Y7648D01*
Y7854D02*
Y7951D01*
Y8467D02*
Y8518D01*
Y8626D01*
X10289Y7630D02*
Y7606D01*
Y7630D02*
Y7648D01*
Y7854D02*
Y7951D01*
Y8473D02*
Y8518D01*
Y8626D01*
X10283Y7648D02*
Y7606D01*
Y7854D02*
Y7951D01*
Y8479D02*
Y8518D01*
Y8626D01*
X10277Y7648D02*
Y7606D01*
Y7854D02*
Y7951D01*
Y8485D02*
Y8518D01*
Y8626D01*
X10271Y7648D02*
Y7606D01*
Y7854D02*
Y7951D01*
Y8491D02*
Y8518D01*
X10265Y7648D02*
Y7606D01*
Y7854D02*
Y7951D01*
Y8497D02*
Y8518D01*
X10259Y7648D02*
Y7606D01*
Y7854D02*
Y7951D01*
Y8503D02*
Y8518D01*
X10253Y7648D02*
Y7606D01*
Y7854D02*
Y7951D01*
Y8509D02*
Y8518D01*
X10247Y7526D02*
Y7503D01*
Y7606D02*
Y7648D01*
Y7854D02*
Y7951D01*
X10241Y7526D02*
Y7503D01*
Y7606D02*
Y7656D01*
Y7696D02*
Y7706D01*
Y7746D02*
Y7756D01*
Y7796D02*
Y7806D01*
Y7846D02*
Y7951D01*
X10235Y7526D02*
Y7503D01*
Y7606D02*
Y7665D01*
Y7687D02*
Y7715D01*
Y7737D02*
Y7756D01*
Y7796D02*
Y7806D01*
Y7846D02*
Y7951D01*
X10229Y7526D02*
Y7503D01*
Y7606D02*
Y7693D01*
Y7756D01*
Y7798D02*
Y7806D01*
Y7846D02*
Y7924D01*
Y7951D01*
X10223Y7526D02*
Y7503D01*
Y7526D02*
Y7606D01*
Y7693D01*
Y7756D01*
Y7798D02*
Y7806D01*
Y7846D02*
Y7924D01*
Y7951D01*
Y8387D02*
Y8431D01*
Y8471D02*
Y8482D01*
X10217Y7526D02*
Y7503D01*
Y7526D02*
Y7606D01*
Y7693D01*
Y7756D01*
Y7850D02*
Y7924D01*
Y7951D01*
Y8387D02*
Y8441D01*
Y8461D02*
Y8470D01*
Y8482D01*
Y8489D01*
X10211Y7693D02*
Y7503D01*
Y7924D02*
Y7951D01*
Y8387D02*
Y8470D01*
Y8482D01*
Y8495D01*
Y8507D01*
Y8518D01*
X10205Y7526D02*
Y7503D01*
Y7526D02*
Y7606D01*
Y7693D01*
Y7798D02*
Y7806D01*
Y7924D02*
Y7951D01*
Y7971D01*
Y7984D01*
Y8387D02*
Y8482D01*
Y8518D01*
X10199Y7526D02*
Y7503D01*
Y7526D02*
Y7606D01*
Y7693D01*
Y7798D02*
Y7806D01*
Y7924D02*
Y7951D01*
Y7971D01*
Y7990D01*
Y8278D02*
Y8387D01*
Y8518D01*
Y8626D01*
X10193Y7526D02*
Y7503D01*
Y7606D02*
Y7693D01*
Y7798D02*
Y7806D01*
Y7818D01*
Y7924D02*
Y7990D01*
Y8275D02*
Y8387D01*
Y8518D01*
Y8626D01*
X10187Y7526D02*
Y7503D01*
Y7606D02*
Y7693D01*
Y7798D02*
Y7806D01*
Y7819D01*
Y7924D02*
Y7990D01*
Y8002D01*
Y8272D02*
Y8626D01*
X10181Y7516D02*
Y7503D01*
Y7516D02*
Y7526D01*
Y7606D02*
Y7693D01*
Y7798D02*
Y7806D01*
Y7819D01*
Y7924D02*
Y7990D01*
Y8004D01*
Y8192D02*
Y8244D01*
Y8258D02*
Y8272D01*
Y8273D02*
Y8387D01*
Y8518D01*
Y8626D01*
X10175Y7693D02*
Y7606D01*
Y7798D02*
Y7819D01*
Y7924D02*
Y7990D01*
Y8004D01*
Y8014D01*
Y8192D02*
Y8272D01*
Y8273D02*
Y8387D01*
Y8518D01*
Y8626D01*
X10169Y7693D02*
Y7606D01*
Y7798D02*
Y7819D01*
Y7924D02*
Y8004D01*
Y8020D01*
Y8032D01*
Y8110D01*
Y8192D02*
Y8273D01*
Y8387D02*
Y8518D01*
Y8632D02*
Y8688D01*
X10163Y7693D02*
Y7606D01*
Y7798D02*
Y7819D01*
Y7924D02*
Y8004D01*
Y8026D01*
Y8026D02*
Y8110D01*
Y8192D02*
Y8273D01*
Y8387D02*
Y8518D01*
Y8632D02*
Y8688D01*
X10157Y7693D02*
Y7606D01*
Y7798D02*
Y7819D01*
Y7924D02*
Y8110D01*
Y8192D02*
Y8273D01*
Y8387D02*
Y8518D01*
Y8632D02*
Y8688D01*
X10151Y7693D02*
Y7606D01*
Y7798D02*
Y7819D01*
Y7924D02*
Y8110D01*
Y8192D02*
Y8273D01*
Y8387D02*
Y8518D01*
Y8632D02*
Y8688D01*
X10145Y7693D02*
Y7606D01*
Y7798D02*
Y7819D01*
Y7924D02*
Y8110D01*
Y8192D02*
Y8273D01*
Y8387D02*
Y8518D01*
Y8632D02*
Y8688D01*
X10139Y7693D02*
Y7606D01*
Y7798D02*
Y7819D01*
Y7924D02*
Y8110D01*
Y8192D02*
Y8273D01*
Y8387D02*
Y8518D01*
Y8632D02*
Y8688D01*
X10133Y7693D02*
Y7606D01*
Y7693D02*
Y7798D01*
Y7819D01*
Y7924D01*
Y7951D01*
Y7971D01*
Y7990D01*
Y7994D02*
Y8010D01*
Y8013D02*
Y8030D01*
Y8033D02*
Y8053D01*
Y8072D01*
Y8110D01*
Y8192D02*
Y8273D01*
Y8387D02*
Y8518D01*
Y8632D02*
Y8688D01*
X10127Y7693D02*
Y7606D01*
Y7693D02*
Y7798D01*
Y7819D01*
Y7924D01*
Y7951D01*
Y7971D01*
Y7990D01*
Y7994D02*
Y8010D01*
Y8013D02*
Y8030D01*
Y8033D02*
Y8053D01*
Y8072D01*
Y8110D01*
Y8192D02*
Y8273D01*
Y8387D02*
Y8518D01*
Y8632D02*
Y8688D01*
X10121Y7951D02*
Y7606D01*
Y8072D02*
Y8110D01*
Y8192D02*
Y8273D01*
Y8387D02*
Y8518D01*
Y8632D02*
Y8688D01*
X10115Y7951D02*
Y7606D01*
Y8072D02*
Y8110D01*
Y8192D02*
Y8273D01*
Y8387D02*
Y8518D01*
Y8632D02*
Y8688D01*
X10308Y8259D02*
X10316Y8250D01*
X10298Y7619D02*
X10290Y7611D01*
X10298Y7619D02*
X10310Y7630D01*
X10290Y7611D02*
X10295Y7606D01*
X10221Y7846D02*
X10217Y7850D01*
X10213Y7798D02*
X10213Y7798D01*
X10213Y7798D02*
X10205Y7806D01*
X10194Y7818D01*
X10193Y7819D01*
X10213Y7798D02*
X10217Y7802D01*
X10217Y7802D01*
X10221Y7806D01*
X10316Y8446D02*
X10308Y8454D01*
X10301Y8461D01*
X10296Y8466D01*
X10291Y8470D01*
X10280Y8482D01*
X10271Y8490D01*
X10268Y8493D01*
X10262Y8499D01*
X10252Y8509D01*
X10225Y8482D02*
X10230Y8476D01*
X10225Y8482D02*
X10224Y8483D01*
X10214Y8493D01*
X10205Y8501D01*
X10214Y8509D01*
X10308Y8438D02*
X10316Y8446D01*
X10198Y7990D02*
X10199Y7990D01*
X10198Y7990D02*
X10195Y7994D01*
X10186Y8002D01*
X10184Y8004D01*
X10178Y8010D01*
X10175Y8014D01*
X10172Y8017D01*
X10163Y8026D01*
X10169Y8032D01*
X10172Y8035D01*
X10358Y7956D02*
Y7916D01*
Y7876D01*
X10336Y8330D02*
Y8387D01*
Y8330D02*
Y8273D01*
X10354Y8632D02*
Y8688D01*
X10500Y8632D02*
Y8518D01*
X10400D02*
Y8632D01*
X10471D02*
Y8518D01*
X10372D02*
Y8632D01*
X10401Y8387D02*
Y8306D01*
X10372Y8304D02*
Y8387D01*
X10312Y7956D02*
Y7876D01*
X10418Y8387D02*
Y8431D01*
X10502Y8426D02*
Y8387D01*
X10418Y8156D02*
Y8148D01*
Y8156D02*
Y8159D01*
Y8223D01*
X10384Y7776D02*
Y7773D01*
Y7776D02*
Y7791D01*
Y7806D01*
Y7808D01*
Y7842D01*
X10388Y7699D02*
Y7666D01*
Y7753D02*
Y7776D01*
Y7781D01*
X10384Y7838D02*
Y7842D01*
Y7876D01*
Y7956D02*
Y8012D01*
Y8012D01*
X10314Y7646D02*
Y7634D01*
Y7646D02*
Y7648D01*
X10499Y8469D02*
Y8518D01*
Y8632D01*
Y8688D01*
X10493Y8518D02*
Y8472D01*
Y8518D02*
Y8632D01*
Y8688D01*
X10487D02*
Y8474D01*
X10481Y8474D02*
Y8518D01*
Y8632D01*
Y8688D01*
X10475Y8518D02*
Y8473D01*
Y8518D02*
Y8632D01*
Y8688D01*
X10469Y8518D02*
Y8470D01*
Y8632D02*
Y8688D01*
X10463Y8518D02*
Y8470D01*
Y8632D02*
Y8688D01*
X10457Y8518D02*
Y8472D01*
Y8632D02*
Y8688D01*
X10451Y8518D02*
Y8476D01*
Y8632D02*
Y8688D01*
X10445Y8518D02*
Y8478D01*
Y8632D02*
Y8688D01*
X10439Y8518D02*
Y8479D01*
Y8632D02*
Y8688D01*
X10433Y8518D02*
Y8479D01*
Y8632D02*
Y8688D01*
X10427Y8518D02*
Y8477D01*
Y8632D02*
Y8688D01*
X10421Y8518D02*
Y8473D01*
Y8632D02*
Y8688D01*
X10415Y8226D02*
Y8156D01*
Y8387D02*
Y8435D01*
Y8470D02*
Y8518D01*
Y8632D02*
Y8688D01*
X10409Y8232D02*
Y8158D01*
Y8387D02*
Y8470D01*
Y8518D01*
Y8632D02*
Y8688D01*
X10403Y8238D02*
Y8164D01*
Y8387D02*
Y8518D01*
Y8632D02*
Y8688D01*
X10397Y8244D02*
Y8170D01*
Y8308D02*
Y8387D01*
Y8518D01*
Y8632D01*
Y8688D01*
X10391Y8250D02*
Y8176D01*
Y8309D02*
Y8387D01*
Y8518D01*
Y8632D01*
Y8688D01*
X10385Y7698D02*
Y7661D01*
Y7754D02*
Y7776D01*
Y7788D01*
Y8182D02*
Y8253D01*
Y8309D02*
Y8688D01*
X10379Y7698D02*
Y7655D01*
Y7754D02*
Y7776D01*
Y7800D01*
Y7806D02*
Y7842D01*
Y7876D01*
Y7956D02*
Y8008D01*
Y8188D02*
Y8254D01*
Y8308D02*
Y8387D01*
Y8518D01*
Y8632D01*
Y8688D01*
X10373Y7700D02*
Y7649D01*
Y7752D02*
Y7776D01*
Y7842D01*
Y7876D01*
Y7956D02*
Y8005D01*
Y8194D02*
Y8257D01*
Y8305D02*
Y8387D01*
Y8518D01*
Y8632D01*
Y8688D01*
X10367Y7703D02*
Y7646D01*
Y7749D02*
Y7876D01*
Y7956D02*
Y8003D01*
Y8200D02*
Y8262D01*
Y8387D02*
Y8518D01*
Y8632D02*
Y8688D01*
X10361Y7706D02*
Y7646D01*
Y7746D02*
Y7876D01*
Y7956D02*
Y8003D01*
Y8206D02*
Y8273D01*
Y8387D02*
Y8518D01*
Y8632D02*
Y8688D01*
X10355Y7706D02*
Y7646D01*
Y7746D02*
Y7876D01*
Y7956D02*
Y8004D01*
Y8212D02*
Y8273D01*
Y8387D02*
Y8518D01*
Y8632D02*
Y8688D01*
X10349Y7706D02*
Y7646D01*
Y7746D02*
Y7876D01*
Y7956D02*
Y8007D01*
Y8218D02*
Y8273D01*
Y8387D02*
Y8518D01*
X10343Y7671D02*
Y7646D01*
Y7681D02*
Y7706D01*
Y7746D02*
Y7771D01*
Y7781D02*
Y7821D01*
Y7831D02*
Y7876D01*
Y7956D02*
Y8011D01*
Y8224D02*
Y8273D01*
Y8387D02*
Y8518D01*
X10337Y7658D02*
Y7650D01*
Y7694D02*
Y7706D01*
Y7746D02*
Y7758D01*
Y7794D02*
Y7808D01*
Y7844D02*
Y7876D01*
Y7956D02*
Y8012D01*
Y8230D02*
Y8273D01*
Y8387D02*
Y8518D01*
X10331Y7876D02*
Y7849D01*
Y7956D02*
Y8012D01*
Y8236D02*
Y8273D01*
Y8387D02*
Y8518D01*
X10325Y7876D02*
Y7854D01*
Y7956D02*
Y8012D01*
Y8242D02*
Y8273D01*
Y8387D02*
Y8518D01*
X10319Y7876D02*
Y7854D01*
Y7956D02*
Y8012D01*
Y8248D02*
Y8273D01*
Y8387D02*
Y8466D01*
Y8518D01*
X10313Y7646D02*
Y7634D01*
Y7854D02*
Y7876D01*
Y7956D02*
Y8012D01*
Y8254D02*
Y8273D01*
Y8387D02*
Y8443D01*
Y8449D02*
Y8466D01*
Y8518D01*
X10413Y8154D02*
X10418Y8148D01*
X10413Y8154D02*
X10411Y8156D01*
X10401Y8166D01*
X10384Y8183D01*
X10372Y8195D01*
X10335Y8232D01*
X10316Y8250D01*
X10413Y8154D02*
X10415Y8156D01*
X10418Y8159D01*
X10387Y7663D02*
X10370Y7646D01*
X10314Y7634D02*
X10310Y7630D01*
X10314Y7634D02*
X10318Y7638D01*
X10318Y7639D01*
X10325Y7646D01*
X10328Y7648D01*
X10333Y7654D01*
X10338Y7649D02*
X10341Y7646D01*
X10338Y7649D02*
X10333Y7654D01*
X10418Y8223D02*
X10401Y8241D01*
X10391Y8250D01*
X10388Y8253D01*
X10388Y7666D02*
X10387Y7663D01*
X10388Y7781D02*
X10384Y7791D01*
X10377Y7805D01*
X10693Y8083D02*
Y8126D01*
X10536Y8575D02*
Y8632D01*
Y8575D02*
Y8518D01*
X10601D02*
Y8632D01*
X10672D02*
Y8518D01*
X10572D02*
Y8632D01*
X10601Y8387D02*
Y8273D01*
X10672D02*
Y8387D01*
X10572D02*
Y8273D01*
X10650Y8091D02*
Y8088D01*
Y8091D02*
Y8126D01*
Y8161D01*
Y8162D02*
Y8166D01*
Y8182D01*
Y8220D02*
Y8236D01*
X10638Y8161D02*
Y8126D01*
Y8161D02*
Y8166D01*
Y8174D01*
X10615Y8632D02*
Y8688D01*
X10568Y8126D02*
Y8119D01*
Y8206D02*
Y8236D01*
Y8238D01*
Y8254D01*
Y8266D01*
X10558D02*
Y8264D01*
Y8266D02*
Y8273D01*
X10608Y8063D02*
Y8020D01*
Y8063D02*
Y8079D01*
Y8090D01*
X10618Y8387D02*
Y8428D01*
X10658Y8415D02*
Y8387D01*
X10618Y8220D02*
Y8209D01*
X10697Y8088D02*
Y8020D01*
Y8236D02*
Y8273D01*
Y8387D01*
Y8407D01*
Y8497D02*
Y8518D01*
Y8632D01*
Y8688D01*
X10691Y8091D02*
Y8020D01*
Y8236D02*
Y8273D01*
Y8387D01*
Y8406D01*
Y8498D02*
Y8518D01*
Y8632D01*
Y8688D01*
X10685Y8091D02*
Y8020D01*
Y8236D02*
Y8405D01*
Y8498D02*
Y8518D01*
Y8632D01*
Y8688D01*
X10679Y8091D02*
Y8020D01*
Y8236D02*
Y8273D01*
Y8387D01*
Y8406D01*
Y8498D02*
Y8518D01*
Y8632D01*
Y8688D01*
X10673Y8091D02*
Y8020D01*
Y8236D02*
Y8273D01*
Y8387D01*
Y8407D01*
Y8496D02*
Y8518D01*
Y8632D01*
Y8688D01*
X10667Y8091D02*
Y8020D01*
Y8236D02*
Y8273D01*
Y8387D02*
Y8409D01*
Y8494D02*
Y8518D01*
Y8632D02*
Y8688D01*
X10661Y8091D02*
Y8020D01*
Y8236D02*
Y8273D01*
Y8387D02*
Y8413D01*
Y8491D02*
Y8518D01*
Y8632D02*
Y8688D01*
X10655Y8091D02*
Y8020D01*
Y8236D02*
Y8273D01*
Y8486D02*
Y8518D01*
X10649Y8091D02*
Y8020D01*
Y8091D02*
Y8126D01*
Y8161D01*
Y8166D02*
Y8182D01*
Y8220D02*
Y8236D01*
Y8273D01*
Y8480D02*
Y8518D01*
X10643Y8091D02*
Y8020D01*
Y8091D02*
Y8126D01*
Y8161D01*
Y8166D02*
Y8178D01*
Y8224D02*
Y8236D01*
Y8273D01*
Y8469D02*
Y8518D01*
X10637Y8091D02*
Y8020D01*
Y8091D02*
Y8126D01*
Y8220D02*
Y8228D01*
Y8236D01*
Y8273D01*
Y8477D02*
Y8518D01*
X10631Y8126D02*
Y8020D01*
Y8222D02*
Y8273D01*
Y8481D02*
Y8518D01*
X10625Y8126D02*
Y8020D01*
Y8220D02*
Y8273D01*
Y8483D02*
Y8518D01*
X10619Y8090D02*
Y8020D01*
Y8090D02*
Y8126D01*
Y8210D02*
Y8220D01*
Y8273D01*
Y8484D02*
Y8518D01*
X10613Y8068D02*
Y8020D01*
Y8074D02*
Y8090D01*
Y8126D01*
Y8206D02*
Y8220D01*
Y8273D01*
Y8387D02*
Y8428D01*
Y8484D02*
Y8518D01*
Y8632D02*
Y8688D01*
X10607Y8090D02*
Y8080D01*
Y8090D02*
Y8126D01*
Y8206D02*
Y8220D01*
Y8273D01*
Y8387D02*
Y8430D01*
Y8482D02*
Y8518D01*
Y8632D02*
Y8688D01*
X10601Y8126D02*
Y8090D01*
Y8206D02*
Y8273D01*
Y8387D02*
Y8434D01*
Y8478D02*
Y8518D01*
Y8632D02*
Y8688D01*
X10595Y8126D02*
Y8098D01*
Y8206D02*
Y8273D01*
Y8387D01*
Y8440D01*
Y8472D02*
Y8518D01*
Y8632D01*
Y8688D01*
X10589Y8126D02*
Y8110D01*
Y8206D02*
Y8273D01*
Y8387D01*
Y8518D01*
Y8632D01*
Y8688D01*
X10583Y8126D02*
Y8115D01*
Y8206D02*
Y8273D01*
Y8387D01*
Y8518D01*
Y8632D01*
Y8688D01*
X10577Y8126D02*
Y8118D01*
Y8206D02*
Y8266D01*
Y8273D01*
Y8387D01*
Y8518D01*
Y8632D01*
Y8688D01*
X10571Y8241D02*
Y8206D01*
Y8241D02*
Y8251D01*
Y8266D01*
Y8273D01*
Y8387D02*
Y8518D01*
Y8632D02*
Y8688D01*
X10565Y8266D02*
Y8257D01*
Y8266D02*
Y8273D01*
Y8387D02*
Y8518D01*
Y8632D02*
Y8688D01*
X10559Y8273D02*
Y8266D01*
Y8387D02*
Y8518D01*
Y8632D02*
Y8688D01*
X10553Y8518D02*
Y8387D01*
Y8632D02*
Y8688D01*
X10547Y8518D02*
Y8387D01*
Y8632D02*
Y8688D01*
X10541Y8518D02*
Y8387D01*
Y8632D02*
Y8688D01*
X10535Y8518D02*
Y8387D01*
Y8632D02*
Y8688D01*
X10529Y8518D02*
Y8387D01*
Y8632D02*
Y8688D01*
X10523Y8518D02*
Y8387D01*
Y8632D02*
Y8688D01*
X10517Y8518D02*
Y8387D01*
Y8632D02*
Y8688D01*
X10511Y8446D02*
Y8387D01*
Y8446D02*
Y8466D01*
Y8518D01*
Y8632D02*
Y8688D01*
X10505Y8429D02*
Y8387D01*
Y8466D02*
Y8518D01*
Y8632D02*
Y8688D01*
X10618Y8209D02*
X10616Y8206D01*
X10618Y8209D02*
X10630Y8220D01*
X10634Y8224D01*
X10638Y8229D01*
X10646Y8182D02*
X10638Y8174D01*
X10646Y8220D02*
X10638Y8229D01*
X10576Y8246D02*
X10572Y8250D01*
X10568Y8254D01*
X10558Y8264D01*
X10576Y8246D02*
X10568Y8238D01*
X10618Y8428D02*
X10618Y8428D01*
X10608Y8079D02*
X10616Y8071D01*
X10608Y8079D02*
X10606Y8081D01*
X10616Y8071D02*
X10608Y8063D01*
X10606Y8081D02*
X10596Y8090D01*
X10596Y8091D01*
X10568Y8119D02*
X10568Y8119D01*
X10708Y8088D02*
Y8020D01*
Y8088D02*
Y8091D01*
X10818Y8053D02*
Y7978D01*
Y7710D02*
Y7709D01*
Y7710D02*
Y7800D01*
X10802Y8596D02*
Y8686D01*
Y8688D01*
X10894Y8686D02*
Y8596D01*
X10700Y8632D02*
Y8518D01*
X10771D02*
Y8632D01*
X10701Y8387D02*
Y8273D01*
X10772Y8274D02*
Y8387D01*
X10842Y8228D02*
Y8150D01*
X10737Y8161D02*
Y8129D01*
Y8161D02*
Y8166D01*
Y8199D01*
X10736Y8091D02*
Y8088D01*
Y8091D02*
Y8129D01*
Y8161D01*
Y8162D02*
Y8166D01*
Y8199D01*
Y8223D01*
X10786Y7978D02*
Y7800D01*
X10851Y8096D02*
Y8126D01*
X10825Y8686D02*
Y8688D01*
X10761D02*
Y8632D01*
X10715Y8273D02*
Y8267D01*
X10889Y8150D02*
Y7709D01*
Y8274D02*
Y8323D01*
Y8579D02*
Y8596D01*
Y8686D02*
Y8711D01*
X10883Y8150D02*
Y7709D01*
Y8274D02*
Y8325D01*
Y8577D02*
Y8596D01*
Y8686D02*
Y8711D01*
X10877Y8150D02*
Y7709D01*
Y8274D02*
Y8327D01*
Y8575D02*
Y8596D01*
Y8686D02*
Y8711D01*
X10871Y8150D02*
Y7709D01*
Y8274D02*
Y8330D01*
Y8572D02*
Y8596D01*
Y8686D02*
Y8711D01*
X10865Y8150D02*
Y7709D01*
Y8274D02*
Y8333D01*
Y8569D02*
Y8596D01*
X10859Y8150D02*
Y7709D01*
Y8274D02*
Y8336D01*
Y8566D02*
Y8596D01*
X10853Y8150D02*
Y7709D01*
Y8274D02*
Y8340D01*
Y8562D02*
Y8596D01*
X10847Y8083D02*
Y7709D01*
Y8139D02*
Y8150D01*
Y8274D02*
Y8344D01*
Y8558D02*
Y8596D01*
X10841Y8076D02*
Y7709D01*
Y8150D02*
Y8228D01*
Y8274D02*
Y8349D01*
Y8553D02*
Y8596D01*
X10835Y8070D02*
Y7709D01*
Y8152D02*
Y8199D01*
Y8228D01*
Y8274D02*
Y8354D01*
Y8548D02*
Y8596D01*
X10829Y7800D02*
Y7709D01*
Y7800D02*
Y7978D01*
Y8064D01*
Y8158D02*
Y8199D01*
Y8228D01*
Y8274D02*
Y8361D01*
Y8542D02*
Y8596D01*
X10823Y7800D02*
Y7709D01*
Y7800D02*
Y7978D01*
Y8058D01*
Y8164D02*
Y8199D01*
Y8228D01*
Y8274D02*
Y8368D01*
Y8535D02*
Y8596D01*
X10817Y7978D02*
Y7800D01*
Y8199D02*
Y8228D01*
Y8274D02*
Y8376D01*
Y8527D02*
Y8596D01*
X10811Y7978D02*
Y7800D01*
Y8199D02*
Y8228D01*
Y8274D02*
Y8385D01*
Y8517D02*
Y8596D01*
X10805Y7978D02*
Y7800D01*
Y8106D02*
Y8116D01*
Y8199D02*
Y8228D01*
Y8274D02*
Y8397D01*
Y8505D02*
Y8596D01*
X10799Y7978D02*
Y7800D01*
Y8100D02*
Y8122D01*
Y8199D02*
Y8228D01*
Y8274D02*
Y8414D01*
Y8488D02*
Y8596D01*
Y8686D01*
X10793Y7978D02*
Y7800D01*
Y8094D02*
Y8128D01*
Y8199D02*
Y8228D01*
Y8274D02*
Y8596D01*
Y8686D01*
X10787Y7978D02*
Y7800D01*
Y8088D02*
Y8129D01*
Y8199D02*
Y8228D01*
Y8274D02*
Y8688D01*
X10781Y8129D02*
Y8088D01*
Y8199D02*
Y8228D01*
Y8274D02*
Y8387D01*
Y8518D01*
Y8632D01*
Y8688D01*
X10775Y8129D02*
Y8088D01*
Y8199D02*
Y8228D01*
Y8274D02*
Y8387D01*
Y8518D01*
Y8632D01*
Y8688D01*
X10769Y8129D02*
Y8088D01*
Y8199D02*
Y8228D01*
Y8387D02*
Y8518D01*
Y8632D02*
Y8688D01*
X10763Y8129D02*
Y8088D01*
Y8199D02*
Y8228D01*
Y8387D02*
Y8518D01*
Y8632D02*
Y8688D01*
X10757Y8129D02*
Y8088D01*
Y8199D02*
Y8228D01*
Y8387D02*
Y8518D01*
X10751Y8129D02*
Y8088D01*
Y8199D02*
Y8226D01*
Y8387D02*
Y8518D01*
X10745Y8129D02*
Y8091D01*
Y8199D02*
Y8224D01*
Y8387D02*
Y8518D01*
X10739Y8129D02*
Y8091D01*
Y8199D02*
Y8223D01*
Y8387D02*
Y8518D01*
X10733D02*
Y8387D01*
X10727D02*
Y8430D01*
Y8474D02*
Y8518D01*
X10721Y8421D02*
Y8387D01*
Y8483D02*
Y8518D01*
X10715Y8415D02*
Y8387D01*
Y8488D02*
Y8518D01*
Y8632D02*
Y8688D01*
X10709Y8273D02*
Y8236D01*
Y8387D02*
Y8411D01*
Y8492D02*
Y8518D01*
Y8632D02*
Y8688D01*
X10703Y8088D02*
Y8020D01*
Y8236D02*
Y8273D01*
Y8387D02*
Y8408D01*
Y8495D02*
Y8518D01*
Y8632D02*
Y8688D01*
X10805Y8106D02*
X10787Y8088D01*
X10818Y8053D02*
X10844Y8080D01*
Y8142D02*
X10842Y8144D01*
X10839Y8147D01*
X10836Y8150D01*
X10823Y8164D01*
X10978Y8150D02*
Y8191D01*
X10983Y8641D02*
Y8686D01*
Y8641D02*
Y8596D01*
X10995Y8088D02*
Y7978D01*
X10995Y7800D02*
Y7709D01*
X10938Y8596D02*
Y8686D01*
X11028D02*
Y8596D01*
X11024Y8228D02*
Y8150D01*
X11074Y8141D02*
Y8201D01*
X11025Y7978D02*
Y7800D01*
X11087Y8248D02*
Y8262D01*
Y8328D02*
Y8516D01*
Y8607D01*
Y8631D01*
Y8701D02*
Y8711D01*
X11081Y8096D02*
Y8088D01*
Y8246D02*
Y8256D01*
Y8322D02*
Y8516D01*
Y8607D01*
Y8631D01*
Y8701D02*
Y8711D01*
X11075Y8100D02*
Y8088D01*
Y8242D02*
Y8250D01*
Y8316D02*
Y8632D01*
Y8700D02*
Y8711D01*
X11069Y8102D02*
Y8088D01*
Y8135D02*
Y8207D01*
Y8310D02*
Y8634D01*
Y8698D02*
Y8711D01*
X11063Y8102D02*
Y8088D01*
Y8102D02*
Y8238D01*
Y8304D02*
Y8637D01*
Y8695D02*
Y8711D01*
X11057Y8233D02*
Y8088D01*
Y8298D02*
Y8419D01*
Y8483D02*
Y8642D01*
Y8690D02*
Y8711D01*
X11051Y8228D02*
Y8088D01*
Y8292D02*
Y8401D01*
Y8502D02*
Y8651D01*
Y8681D02*
Y8711D01*
X11045Y8228D02*
Y8088D01*
Y8286D02*
Y8388D01*
Y8514D02*
Y8711D01*
X11039Y8228D02*
Y8088D01*
Y8280D02*
Y8378D01*
Y8524D02*
Y8596D01*
Y8686D01*
Y8711D01*
X11033Y8150D02*
Y8088D01*
Y8150D02*
Y8228D01*
Y8274D02*
Y8369D01*
Y8533D02*
Y8596D01*
Y8686D01*
Y8711D01*
X11027Y8150D02*
Y8088D01*
Y8150D02*
Y8228D01*
Y8274D02*
Y8362D01*
Y8540D02*
Y8596D01*
Y8686D02*
Y8711D01*
X11021Y7978D02*
Y7800D01*
Y8088D02*
Y8150D01*
Y8274D02*
Y8356D01*
Y8546D02*
Y8596D01*
Y8686D02*
Y8711D01*
X11015Y7978D02*
Y7800D01*
Y8088D02*
Y8150D01*
Y8274D02*
Y8350D01*
Y8552D02*
Y8596D01*
Y8686D02*
Y8711D01*
X11009Y7978D02*
Y7800D01*
Y8088D02*
Y8150D01*
Y8274D02*
Y8345D01*
Y8557D02*
Y8596D01*
Y8686D02*
Y8711D01*
X11003Y7978D02*
Y7800D01*
Y8088D02*
Y8150D01*
Y8274D02*
Y8341D01*
Y8561D02*
Y8596D01*
Y8686D02*
Y8711D01*
X10997Y7978D02*
Y7800D01*
Y8088D02*
Y8150D01*
Y8274D02*
Y8337D01*
Y8565D02*
Y8596D01*
Y8686D02*
Y8711D01*
X10991Y7800D02*
Y7709D01*
Y7800D02*
Y7978D01*
Y8088D01*
Y8150D01*
Y8274D02*
Y8334D01*
Y8569D02*
Y8596D01*
Y8686D02*
Y8711D01*
X10985Y7800D02*
Y7709D01*
Y7800D02*
Y7978D01*
Y8088D01*
Y8150D01*
Y8274D02*
Y8331D01*
Y8572D02*
Y8596D01*
Y8686D02*
Y8711D01*
X10979Y8150D02*
Y7709D01*
Y8274D02*
Y8328D01*
Y8574D02*
Y8596D01*
Y8686D02*
Y8711D01*
X10973Y8150D02*
Y7709D01*
Y8274D02*
Y8326D01*
Y8577D02*
Y8596D01*
Y8686D02*
Y8711D01*
X10967Y8150D02*
Y7709D01*
Y8274D02*
Y8324D01*
Y8579D02*
Y8596D01*
Y8686D02*
Y8711D01*
X10961Y8150D02*
Y7709D01*
Y8274D02*
Y8322D01*
Y8580D02*
Y8596D01*
Y8686D02*
Y8711D01*
X10955Y8150D02*
Y7709D01*
Y8274D02*
Y8320D01*
Y8582D02*
Y8596D01*
Y8686D02*
Y8711D01*
X10949Y8150D02*
Y7709D01*
Y8274D02*
Y8319D01*
Y8583D02*
Y8596D01*
Y8686D02*
Y8711D01*
X10943Y8150D02*
Y7709D01*
Y8274D02*
Y8318D01*
Y8584D02*
Y8596D01*
Y8686D02*
Y8711D01*
X10937Y8150D02*
Y7709D01*
Y8274D02*
Y8318D01*
Y8584D02*
Y8596D01*
Y8686D01*
Y8711D01*
X10931Y8150D02*
Y7709D01*
Y8274D02*
Y8318D01*
Y8585D02*
Y8596D01*
Y8686D01*
Y8711D01*
X10925Y8150D02*
Y7709D01*
Y8274D02*
Y8317D01*
Y8585D02*
Y8596D01*
Y8686D01*
Y8711D01*
X10919Y8150D02*
Y7709D01*
Y8274D02*
Y8318D01*
Y8584D02*
Y8711D01*
X10913Y8150D02*
Y7709D01*
Y8274D02*
Y8318D01*
Y8584D02*
Y8711D01*
X10907Y8150D02*
Y7709D01*
Y8274D02*
Y8319D01*
Y8583D02*
Y8711D01*
X10901Y8150D02*
Y7709D01*
Y8274D02*
Y8320D01*
Y8582D02*
Y8596D01*
Y8686D01*
Y8711D01*
X10895Y8150D02*
Y7709D01*
Y8274D02*
Y8321D01*
Y8581D02*
Y8596D01*
Y8686D01*
Y8711D01*
X11087Y8327D02*
X11033Y8274D01*
X11065Y8240D02*
X11059Y8235D01*
X11065Y8240D02*
X11074Y8249D01*
X11094Y8270D01*
X11138Y7606D02*
Y7566D01*
Y7526D01*
X11139Y8062D02*
Y8107D01*
Y8062D02*
Y8016D01*
X11094Y8516D02*
Y8607D01*
X11185D02*
Y8516D01*
X11105Y8031D02*
Y7992D01*
X11098Y7520D02*
Y7517D01*
Y7520D02*
Y7610D01*
Y7607D01*
Y7610D02*
Y7612D01*
Y7642D01*
X11096Y7520D02*
Y7502D01*
Y7520D02*
Y7610D01*
Y7612D01*
Y7642D01*
X11188Y8334D02*
Y8516D01*
Y8607D01*
Y8711D01*
X11183Y8350D02*
Y8334D01*
Y8374D02*
Y8450D01*
Y8474D02*
Y8516D01*
Y8607D02*
Y8711D01*
X11177Y8437D02*
Y8387D01*
Y8487D02*
Y8516D01*
Y8607D02*
Y8711D01*
X11171Y8429D02*
Y8394D01*
Y8494D02*
Y8516D01*
Y8607D02*
Y8711D01*
X11165Y7520D02*
Y7459D01*
Y7999D02*
Y8024D01*
Y8099D02*
Y8124D01*
Y8399D02*
Y8424D01*
Y8499D02*
Y8516D01*
Y8607D02*
Y8711D01*
X11159Y7520D02*
Y7459D01*
Y8003D02*
Y8021D01*
Y8103D02*
Y8121D01*
Y8403D02*
Y8421D01*
Y8503D02*
Y8516D01*
Y8607D02*
Y8711D01*
X11153Y7520D02*
Y7459D01*
Y8005D02*
Y8018D01*
Y8105D02*
Y8118D01*
Y8405D02*
Y8418D01*
Y8505D02*
Y8516D01*
Y8607D02*
Y8711D01*
X11147Y7520D02*
Y7480D01*
Y8007D02*
Y8017D01*
Y8107D02*
Y8117D01*
Y8407D02*
Y8417D01*
Y8507D02*
Y8516D01*
Y8607D02*
Y8711D01*
X11141Y7520D02*
Y7492D01*
Y8007D02*
Y8016D01*
Y8107D02*
Y8116D01*
Y8407D02*
Y8416D01*
Y8507D02*
Y8516D01*
Y8607D02*
Y8711D01*
X11135Y7520D02*
Y7498D01*
Y8007D02*
Y8016D01*
Y8107D02*
Y8116D01*
Y8407D02*
Y8416D01*
Y8507D02*
Y8516D01*
Y8607D02*
Y8711D01*
X11129Y7520D02*
Y7502D01*
Y8006D02*
Y8017D01*
Y8106D02*
Y8117D01*
Y8406D02*
Y8417D01*
Y8506D02*
Y8516D01*
Y8607D02*
Y8711D01*
X11123Y7520D02*
Y7505D01*
Y8004D02*
Y8019D01*
Y8104D02*
Y8119D01*
Y8404D02*
Y8419D01*
Y8504D02*
Y8516D01*
Y8607D02*
Y8711D01*
X11117Y7520D02*
Y7506D01*
Y8002D02*
Y8022D01*
Y8402D02*
Y8422D01*
Y8502D02*
Y8516D01*
Y8607D02*
Y8657D01*
Y8675D02*
Y8711D01*
X11111Y7520D02*
Y7506D01*
Y7998D02*
Y8026D01*
Y8398D02*
Y8426D01*
Y8498D02*
Y8516D01*
Y8607D02*
Y8645D01*
Y8687D02*
Y8711D01*
X11105Y7520D02*
Y7505D01*
Y8392D02*
Y8432D01*
Y8492D02*
Y8516D01*
Y8607D02*
Y8639D01*
Y8693D02*
Y8711D01*
X11099Y7520D02*
Y7503D01*
Y8383D02*
Y8440D01*
Y8483D02*
Y8516D01*
Y8607D02*
Y8635D01*
Y8697D02*
Y8711D01*
X11093Y8268D02*
Y8249D01*
Y8334D02*
Y8516D01*
Y8607D01*
Y8632D01*
Y8700D02*
Y8711D01*
X9180Y7511D02*
X9180Y7515D01*
X9180Y7518D01*
X9178Y7522D01*
X9177Y7525D01*
X9175Y7528D01*
X9172Y7530D01*
X9170Y7533D01*
X9167Y7535D01*
X9164Y7536D01*
X9160Y7538D01*
X9157Y7538D01*
X9153Y7538D01*
X8816Y7691D02*
X8816Y7694D01*
X8815Y7697D01*
X8814Y7700D01*
X8813Y7702D01*
X8811Y7705D01*
X8809Y7707D01*
X8807Y7709D01*
X8804Y7711D01*
X8802Y7712D01*
X8799Y7713D01*
X8796Y7714D01*
X8793Y7714D01*
X9660Y7560D02*
X9660Y7558D01*
X9661Y7555D01*
X9662Y7552D01*
X9663Y7549D01*
X9665Y7547D01*
X9667Y7545D01*
X9669Y7543D01*
X9672Y7541D01*
X9674Y7540D01*
X9677Y7539D01*
X9680Y7538D01*
X9683Y7538D01*
X8661Y7761D02*
X8661Y7758D01*
X8660Y7755D01*
X8659Y7752D01*
X8658Y7750D01*
X8656Y7747D01*
X8654Y7745D01*
X8652Y7743D01*
X8650Y7741D01*
X8647Y7740D01*
X8644Y7739D01*
X8641Y7738D01*
X8638Y7738D01*
X9513Y7723D02*
X9516Y7723D01*
X9520Y7724D01*
X9523Y7725D01*
X9526Y7727D01*
X9528Y7729D01*
X9531Y7731D01*
X9533Y7734D01*
X9534Y7737D01*
X9535Y7740D01*
X8873Y7988D02*
X8869Y7988D01*
X8866Y7988D01*
X8862Y7986D01*
X8859Y7985D01*
X8856Y7983D01*
X8854Y7980D01*
X8851Y7978D01*
X8849Y7975D01*
X8848Y7972D01*
X8846Y7968D01*
X8846Y7965D01*
X8846Y7961D01*
X8788Y8283D02*
X8792Y8283D01*
X8797Y8285D01*
X8800Y8287D01*
X8766Y8506D02*
X8767Y8509D01*
X8768Y8512D01*
X8770Y8515D01*
X8772Y8518D01*
X8775Y8520D01*
X8778Y8522D01*
X8781Y8523D01*
X8785Y8524D01*
X8788Y8524D01*
X8661Y7761D02*
X8661Y7758D01*
X8660Y7755D01*
X8659Y7752D01*
X8658Y7750D01*
X8656Y7747D01*
X8654Y7745D01*
X8652Y7743D01*
X8650Y7741D01*
X8647Y7740D01*
X8644Y7739D01*
X8641Y7738D01*
X8638Y7738D01*
X8788Y8283D02*
X8792Y8283D01*
X8797Y8285D01*
X8800Y8287D01*
X8873Y7988D02*
X8869Y7988D01*
X8866Y7988D01*
X8862Y7986D01*
X8859Y7985D01*
X8856Y7983D01*
X8854Y7980D01*
X8851Y7978D01*
X8849Y7975D01*
X8848Y7972D01*
X8846Y7968D01*
X8846Y7965D01*
X8846Y7961D01*
X9153Y7538D02*
X9157Y7538D01*
X9160Y7538D01*
X9164Y7536D01*
X9167Y7535D01*
X9170Y7533D01*
X9172Y7530D01*
X9175Y7528D01*
X9177Y7525D01*
X9178Y7522D01*
X9180Y7518D01*
X9180Y7515D01*
X9180Y7511D01*
X9470Y8266D02*
X9469Y8268D01*
X9467Y8271D01*
X9466Y8273D01*
X9531Y8266D02*
X9532Y8264D01*
X9534Y8261D01*
X9535Y8259D01*
X9535Y8256D01*
X9536Y8254D01*
X9536Y8251D01*
X9470Y8266D02*
X9469Y8268D01*
X9467Y8271D01*
X9466Y8273D01*
X9531Y8266D02*
X9532Y8264D01*
X9534Y8261D01*
X9535Y8259D01*
X9535Y8256D01*
X9536Y8254D01*
X9536Y8251D01*
X9613Y7849D02*
X9616Y7849D01*
X9619Y7848D01*
X9622Y7847D01*
X9624Y7846D01*
X9627Y7844D01*
X9629Y7842D01*
X10844Y8142D02*
X10846Y8140D01*
X10848Y8138D01*
X10849Y8135D01*
X10850Y8132D01*
X10851Y8129D01*
X10851Y8126D01*
Y8096D02*
X10851Y8093D01*
X10850Y8090D01*
X10849Y8087D01*
X10848Y8084D01*
X10846Y8082D01*
X10844Y8080D01*
X11043Y8228D02*
X11046Y8228D01*
X11049Y8229D01*
X11052Y8230D01*
X11054Y8231D01*
X11057Y8233D01*
X11059Y8235D01*
X11087Y8327D02*
X11089Y8329D01*
X11092Y8331D01*
X11094Y8332D01*
X11097Y8333D01*
X11100Y8334D01*
X11103Y8334D01*
X8861Y8501D02*
X8861Y8497D01*
X8860Y8493D01*
X8859Y8489D01*
X8846Y8476D02*
X8843Y8475D01*
X8840Y8474D01*
X8837Y8473D01*
X8833Y8473D01*
X8830Y8473D01*
X8826Y8474D01*
X8823Y8475D01*
X8820Y8476D01*
X8817Y8478D01*
X8861Y8501D02*
X8861Y8504D01*
X8860Y8507D01*
X8860Y8510D01*
X8858Y8513D01*
X8857Y8515D01*
X8855Y8518D01*
X8846Y7826D02*
X8845Y7823D01*
X8845Y7819D01*
X8845Y7816D01*
X8846Y7813D01*
X8848Y7809D01*
X8849Y7806D01*
X8851Y7804D01*
X8853Y7801D01*
X8856Y7799D01*
X8859Y7797D01*
X8862Y7795D01*
X8865Y7794D01*
X8869Y7793D01*
X8872Y7793D01*
X8876Y7793D01*
X8879Y7794D01*
X8882Y7795D01*
X8885Y7796D01*
X8888Y7798D01*
X8891Y7800D01*
X8894Y7802D01*
X8896Y7805D01*
X8898Y7808D01*
X8899Y7811D01*
X8900Y7814D01*
X8901Y7818D01*
X8901Y7821D01*
Y7666D02*
X8901Y7669D01*
X8900Y7673D01*
X8899Y7676D01*
X8898Y7679D01*
X8896Y7682D01*
X8894Y7685D01*
X8891Y7687D01*
X8888Y7689D01*
X8885Y7691D01*
X8882Y7692D01*
X8879Y7693D01*
X8876Y7694D01*
X8872Y7694D01*
X8869Y7694D01*
X8865Y7693D01*
X8862Y7692D01*
X8859Y7690D01*
X8856Y7688D01*
X8853Y7686D01*
X8851Y7683D01*
X8849Y7681D01*
X8848Y7678D01*
X8846Y7674D01*
X8845Y7671D01*
X8845Y7668D01*
X8845Y7664D01*
X8846Y7661D01*
X9052Y8127D02*
X9054Y8130D01*
X9055Y8133D01*
X9056Y8136D01*
X9052Y8127D02*
X9051Y8125D01*
X9049Y8123D01*
X9048Y8121D01*
X9056Y8141D02*
X9056Y8145D01*
X9055Y8148D01*
X9054Y8151D01*
X9052Y8155D01*
X9050Y8158D01*
X9048Y8160D01*
X9046Y8163D01*
X9043Y8165D01*
X9039Y8167D01*
X9036Y8168D01*
X9033Y8169D01*
X9029Y8169D01*
X9025Y8169D01*
X9022Y8168D01*
X9018Y8167D01*
X9052Y8431D02*
X9055Y8434D01*
X9057Y8437D01*
X9059Y8440D01*
X9060Y8444D01*
X9061Y8447D01*
X9061Y8451D01*
X9061Y8454D01*
X9060Y8458D01*
X9059Y8461D01*
X9058Y8464D01*
X9056Y8467D01*
X9054Y8469D01*
X9052Y8472D01*
X9049Y8474D01*
X9046Y8476D01*
X9043Y8477D01*
X9040Y8478D01*
X9037Y8479D01*
X9034Y8479D01*
X9030Y8479D01*
X9027Y8478D01*
X9024Y8477D01*
X9021Y8476D01*
X9018Y8474D01*
X9015Y8472D01*
X9013Y8470D01*
X9010Y8468D01*
X9009Y8465D01*
X9007Y8462D01*
X9006Y8459D01*
X9005Y8455D01*
X9005Y8452D01*
X9005Y8449D01*
X9006Y8445D01*
X9006Y8442D01*
X9008Y8439D01*
X9009Y8436D01*
X9011Y8433D01*
X9014Y8431D01*
X9181Y7481D02*
X9181Y7478D01*
X9180Y7475D01*
X9180Y7473D01*
X9179Y7470D01*
X9178Y7468D01*
X9176Y7465D01*
X9174Y7463D01*
X9172Y7461D01*
X9170Y7459D01*
X9136D02*
X9133Y7461D01*
X9131Y7464D01*
X9129Y7466D01*
X9337Y8246D02*
X9338Y8249D01*
X9339Y8251D01*
X9340Y8253D01*
X9341Y8256D01*
X9341Y8258D01*
X9341Y8261D01*
X9300Y8286D02*
X9298Y8284D01*
X9295Y8283D01*
X9293Y8281D01*
X9291Y8278D01*
X9289Y8276D01*
X9288Y8273D01*
X9287Y8270D01*
X9286Y8267D01*
X9285Y8264D01*
X9285Y8261D01*
X9285Y8258D01*
X9286Y8255D01*
X9286Y8252D01*
X9288Y8249D01*
X9289Y8246D01*
X9341Y8261D02*
X9341Y8265D01*
X9340Y8269D01*
X9338Y8273D01*
X9378Y7996D02*
X9381Y7994D01*
X9384Y7992D01*
X9388Y7990D01*
X9391Y7989D01*
X9395Y7988D01*
X9398Y7988D01*
X9402Y7988D01*
X9406Y7989D01*
X9409Y7990D01*
X9412Y7992D01*
X9415Y7994D01*
X9418Y7996D01*
Y8036D02*
X9416Y8038D01*
X9413Y8040D01*
X9410Y8041D01*
X9407Y8043D01*
X9404Y8043D01*
X9400Y8044D01*
X9397Y8044D01*
X9394Y8044D01*
X9391Y8043D01*
X9387Y8042D01*
X9384Y8040D01*
X9382Y8039D01*
X9379Y8037D01*
X9377Y8034D01*
X9375Y8032D01*
X9426Y7891D02*
X9426Y7888D01*
X9425Y7885D01*
X9425Y7883D01*
X9424Y7880D01*
X9422Y7877D01*
X9421Y7875D01*
X9426Y7891D02*
X9426Y7894D01*
X9425Y7897D01*
X9424Y7900D01*
X9423Y7903D01*
X9422Y7906D01*
X9420Y7909D01*
X9418Y7911D01*
X9415Y7913D01*
X9413Y7915D01*
X9410Y7916D01*
X9407Y7918D01*
X9404Y7918D01*
X9401Y7919D01*
X9398Y7919D01*
X9395Y7919D01*
X9391Y7918D01*
X9388Y7917D01*
X9386Y7916D01*
X9383Y7915D01*
X9380Y7913D01*
X9378Y7910D01*
X9568Y8423D02*
X9564Y8424D01*
X9561Y8426D01*
X9558Y8428D01*
X9555Y8430D01*
X9552Y8433D01*
X9550Y8436D01*
X9548Y8439D01*
X9546Y8442D01*
X9545Y8446D01*
X9545Y8446D02*
X9545Y8449D01*
X9545Y8453D01*
X9546Y8456D01*
X9546Y8460D01*
X9548Y8463D01*
X9549Y8466D01*
X9551Y8469D01*
X9554Y8471D01*
X9556Y8473D01*
X9559Y8475D01*
X9562Y8477D01*
X9565Y8478D01*
X9569Y8479D01*
X9572Y8479D01*
X9576Y8479D01*
X9579Y8478D01*
X9582Y8477D01*
X9586Y8476D01*
X9589Y8474D01*
X9591Y8472D01*
X9594Y8470D01*
X9596Y8467D01*
X9598Y8464D01*
X9599Y8461D01*
X9600Y8458D01*
X9601Y8454D01*
X9601Y8451D01*
X9686Y8429D02*
X9688Y8427D01*
X9690Y8426D01*
X9693Y8425D01*
X9696Y8424D01*
X9699Y8423D01*
X9702Y8423D01*
X9705Y8423D01*
X9708Y8423D01*
X9711Y8424D01*
X9713Y8425D01*
X9716Y8426D01*
X9718Y8428D01*
X9701Y8479D02*
X9698Y8479D01*
X9696Y8478D01*
X9693Y8477D01*
X9690Y8476D01*
X9688Y8475D01*
X9686Y8473D01*
Y8429D02*
X9683Y8427D01*
X9680Y8426D01*
X9677Y8425D01*
X9674Y8424D01*
X9671Y8423D01*
X9668Y8423D01*
X9686Y8473D02*
X9683Y8475D01*
X9681Y8476D01*
X9678Y8477D01*
X9675Y8478D01*
X9672Y8479D01*
X9669Y8479D01*
X9666Y8479D01*
X9663Y8479D01*
X9660Y8478D01*
X9658Y8477D01*
X9655Y8476D01*
X9652Y8474D01*
X9608Y8439D02*
X9609Y8436D01*
X9611Y8433D01*
X9614Y8431D01*
X9608Y8439D02*
X9606Y8443D01*
X9605Y8447D01*
X9605Y8450D01*
X9605Y8454D01*
X9606Y8458D01*
X9607Y8462D01*
X9609Y8465D01*
X9611Y8468D01*
X9614Y8471D01*
X9578Y7616D02*
X9576Y7618D01*
X9573Y7620D01*
X9570Y7621D01*
X9567Y7623D01*
X9563Y7623D01*
X9560Y7624D01*
X9557Y7624D01*
X9553Y7624D01*
X9550Y7623D01*
X9547Y7622D01*
X9544Y7620D01*
X9541Y7618D01*
X9538Y7616D01*
X9536Y7613D01*
X9534Y7611D01*
X9532Y7608D01*
X9531Y7604D01*
X9530Y7601D01*
X9530Y7598D01*
Y7594D01*
X9530Y7591D01*
X9531Y7588D01*
X9532Y7584D01*
X9534Y7581D01*
X9536Y7579D01*
X9538Y7576D01*
X9541Y7574D01*
X9544Y7572D01*
X9547Y7570D01*
X9550Y7569D01*
X9553Y7568D01*
X9557Y7568D01*
X9560Y7568D01*
X9563Y7569D01*
X9567Y7569D01*
X9570Y7571D01*
X9573Y7572D01*
X9576Y7574D01*
X9578Y7576D01*
X9586Y7521D02*
X9586Y7517D01*
X9585Y7514D01*
X9584Y7510D01*
X9582Y7507D01*
X9580Y7504D01*
X9578Y7501D01*
X9586Y7521D02*
X9586Y7524D01*
X9585Y7528D01*
X9584Y7531D01*
X9583Y7534D01*
X9581Y7537D01*
X9579Y7539D01*
X9577Y7542D01*
X9574Y7544D01*
X9571Y7546D01*
X9568Y7547D01*
X9565Y7548D01*
X9562Y7549D01*
X9559Y7549D01*
X9555Y7549D01*
X9552Y7548D01*
X9549Y7547D01*
X9546Y7546D01*
X9543Y7544D01*
X9540Y7542D01*
X9538Y7540D01*
X9535Y7538D01*
X9534Y7535D01*
X9532Y7532D01*
X9531Y7529D01*
X9530Y7525D01*
X9530Y7522D01*
X9530Y7519D01*
X9531Y7515D01*
X9531Y7512D01*
X9533Y7509D01*
X9534Y7506D01*
X9536Y7503D01*
X9538Y7501D01*
X9708Y7800D02*
X9712Y7799D01*
X9715Y7798D01*
X9719Y7798D01*
X9723Y7798D01*
X9726Y7799D01*
X9729Y7800D01*
X9733Y7802D01*
X9736Y7804D01*
X9738Y7807D01*
X9740Y7809D01*
X9742Y7812D01*
X9744Y7816D01*
X9745Y7819D01*
X9746Y7822D01*
X9746Y7826D01*
X9695Y7842D02*
X9693Y7839D01*
X9692Y7836D01*
X9691Y7832D01*
X9690Y7829D01*
X9690Y7825D01*
X9690Y7822D01*
X9741Y7842D02*
X9742Y7840D01*
X9744Y7837D01*
X9745Y7834D01*
X9745Y7832D01*
X9746Y7829D01*
X9746Y7826D01*
X9741Y7985D02*
X9742Y7987D01*
X9744Y7990D01*
X9745Y7993D01*
X9745Y7995D01*
X9746Y7998D01*
X9746Y8001D01*
X9695Y7985D02*
X9693Y7988D01*
X9692Y7991D01*
X9691Y7995D01*
X9690Y7998D01*
X9690Y8002D01*
X9690Y8005D01*
X9691Y8009D01*
X9692Y8012D01*
X9694Y8016D01*
X9742D02*
X9743Y8013D01*
X9744Y8011D01*
X9745Y8009D01*
X9746Y8006D01*
X9746Y8004D01*
X9746Y8001D01*
X9811Y8114D02*
X9813Y8111D01*
X9816Y8109D01*
X9819Y8107D01*
X9822Y8105D01*
X9826Y8104D01*
X9829Y8103D01*
X9833Y8103D01*
X9837Y8103D01*
X9840Y8104D01*
X9844Y8105D01*
X9847Y8107D01*
X9850Y8109D01*
X9824Y8241D02*
X9826Y8243D01*
X9829Y8245D01*
X9831Y8246D01*
X9834Y8248D01*
X9837Y8248D01*
X9841Y8249D01*
X9844Y8249D01*
X9847Y8249D01*
X9850Y8248D01*
X9758Y8436D02*
X9760Y8439D01*
X9762Y8442D01*
X9764Y8445D01*
X9765Y8449D01*
X9766Y8452D01*
X9766Y8456D01*
X9766Y8459D01*
X9765Y8462D01*
X9764Y8465D01*
X9763Y8468D01*
X9762Y8471D01*
X9760Y8473D01*
X9758Y8476D01*
X9756Y8478D01*
X9753Y8480D01*
X9858Y8436D02*
X9860Y8439D01*
X9862Y8442D01*
X9864Y8445D01*
X9865Y8449D01*
X9866Y8452D01*
X9866Y8456D01*
X9866Y8459D01*
X9865Y8463D01*
X9864Y8466D01*
X9863Y8469D01*
X9861Y8472D01*
X9859Y8474D01*
X9857Y8477D01*
X9854Y8479D01*
X9851Y8481D01*
X9848Y8482D01*
X9845Y8483D01*
X9842Y8484D01*
X9839Y8484D01*
X9835Y8484D01*
X9832Y8483D01*
X9829Y8482D01*
X9826Y8481D01*
X9823Y8479D01*
X9820Y8477D01*
X9818Y8475D01*
X9815Y8473D01*
X9814Y8470D01*
X9812Y8467D01*
X9811Y8464D01*
X9810Y8460D01*
X9810Y8457D01*
X9810Y8454D01*
X9811Y8450D01*
X9811Y8447D01*
X9813Y8444D01*
X9814Y8441D01*
X9816Y8438D01*
X9818Y8436D01*
X9808Y7725D02*
X9805Y7722D01*
X9803Y7719D01*
X9802Y7716D01*
X9801Y7713D01*
X9800Y7709D01*
X9800Y7706D01*
X9800Y7703D01*
X9801Y7699D01*
X9802Y7696D01*
X9803Y7693D01*
X9805Y7690D01*
X9808Y7687D01*
X9782Y7752D02*
X9784Y7753D01*
X9787Y7755D01*
X9789Y7758D01*
X9791Y7760D01*
X9793Y7763D01*
X9794Y7766D01*
X9795Y7769D01*
X9796Y7773D01*
X9796Y7776D01*
X9754Y7752D02*
X9752Y7753D01*
X9750Y7755D01*
X9748Y7756D01*
Y7796D02*
X9750Y7798D01*
X9753Y7800D01*
X9756Y7801D01*
X9758Y7802D01*
X9761Y7803D01*
X9765Y7804D01*
X9768Y7804D01*
X9771Y7804D01*
X9774Y7803D01*
X9777Y7803D01*
X9780Y7801D01*
X9783Y7800D01*
X9785Y7798D01*
X9788Y7796D01*
X9790Y7794D01*
X9792Y7791D01*
X9793Y7788D01*
X9794Y7785D01*
X9795Y7782D01*
X9796Y7779D01*
X9796Y7776D01*
X9936Y8223D02*
X9939Y8223D01*
X9942Y8223D01*
X9945Y8224D01*
X9948Y8225D01*
X9951Y8226D01*
X9953Y8228D01*
X9956Y8229D01*
X9958Y8232D01*
X9960Y8234D01*
X9962Y8236D01*
X9963Y8239D01*
X9965Y8242D01*
X9965Y8245D01*
X9966Y8248D01*
X9966Y8251D01*
X9915Y8267D02*
X9914Y8265D01*
X9912Y8262D01*
X9911Y8259D01*
X9911Y8257D01*
X9910Y8254D01*
X9910Y8251D01*
X9961Y8267D02*
X9962Y8265D01*
X9964Y8262D01*
X9965Y8259D01*
X9965Y8257D01*
X9966Y8254D01*
X9966Y8251D01*
X9961Y8435D02*
X9962Y8437D01*
X9964Y8440D01*
X9965Y8443D01*
X9965Y8445D01*
X9966Y8448D01*
X9966Y8451D01*
X9966Y8454D01*
X9965Y8458D01*
X9964Y8461D01*
X9963Y8464D01*
X9961Y8467D01*
X9958Y8470D01*
X9956Y8472D01*
X9953Y8475D01*
X9950Y8476D01*
X9947Y8478D01*
X9943Y8478D01*
X9940Y8479D01*
X9937Y8479D01*
X9933Y8479D01*
X9930Y8478D01*
X9926Y8476D01*
X9923Y8475D01*
X9920Y8473D01*
X9918Y8470D01*
X9916Y8468D01*
X9914Y8465D01*
X9912Y8462D01*
X9911Y8458D01*
X9910Y8455D01*
X9910Y8452D01*
X9910Y8448D01*
X9911Y8445D01*
X9912Y8441D01*
X9913Y8438D01*
X9915Y8435D01*
X10186Y8269D02*
X10185Y8266D01*
X10183Y8264D01*
X10182Y8261D01*
X10181Y8257D01*
X10180Y8254D01*
X10180Y8251D01*
X10180Y8248D01*
X10181Y8245D01*
X10182Y8241D01*
X10183Y8238D01*
X10185Y8236D01*
X10186Y8233D01*
X10190Y8272D02*
X10193Y8275D01*
X10197Y8277D01*
X10201Y8278D01*
X10224Y8431D02*
X10221Y8434D01*
X10219Y8436D01*
X10217Y8440D01*
X10216Y8443D01*
X10215Y8446D01*
X10215Y8450D01*
X10215Y8453D01*
X10216Y8457D01*
X10217Y8460D01*
X10218Y8464D01*
X10220Y8467D01*
X10222Y8470D01*
X10225Y8472D01*
X10227Y8474D01*
X10230Y8476D01*
X10181Y7516D02*
X10181Y7511D01*
X10180Y7507D01*
X10178Y7503D01*
X10181Y7516D02*
X10181Y7519D01*
X10180Y7522D01*
X10179Y7526D01*
X10363Y7706D02*
X10365Y7704D01*
X10368Y7703D01*
X10370Y7701D01*
X10373Y7700D01*
X10376Y7699D01*
X10379Y7698D01*
X10382Y7698D01*
X10385Y7698D01*
X10388Y7699D01*
X10363Y7746D02*
X10365Y7748D01*
X10368Y7749D01*
X10370Y7751D01*
X10373Y7752D01*
X10376Y7753D01*
X10379Y7754D01*
X10382Y7754D01*
X10385Y7754D01*
X10388Y7753D01*
X10388Y8253D02*
X10385Y8253D01*
X10382Y8254D01*
X10379Y8254D01*
X10377Y8255D01*
X10374Y8257D01*
X10371Y8258D01*
X10369Y8260D01*
X10367Y8263D01*
X10365Y8265D01*
X10363Y8268D01*
X10362Y8270D01*
X10361Y8273D01*
X10372Y8304D02*
X10375Y8306D01*
X10378Y8307D01*
X10381Y8308D01*
X10384Y8309D01*
X10388Y8309D01*
X10391Y8309D01*
X10394Y8308D01*
X10398Y8307D01*
X10401Y8306D01*
X10502Y8426D02*
X10505Y8429D01*
X10507Y8432D01*
X10509Y8435D01*
X10510Y8439D01*
X10511Y8442D01*
X10511Y8446D01*
X10511Y8449D01*
X10510Y8452D01*
X10509Y8455D01*
X10508Y8458D01*
X10507Y8461D01*
X10505Y8464D01*
X10502Y8466D01*
X10500Y8468D01*
X10497Y8470D01*
X10495Y8471D01*
X10492Y8473D01*
X10489Y8473D01*
X10485Y8474D01*
X10482Y8474D01*
X10479Y8474D01*
X10476Y8473D01*
X10473Y8472D01*
X10470Y8471D01*
X10467Y8469D01*
X10465Y8467D01*
X10462Y8465D01*
X10461Y8468D01*
X10459Y8470D01*
X10456Y8472D01*
X10454Y8474D01*
X10451Y8476D01*
X10448Y8477D01*
X10445Y8478D01*
X10442Y8479D01*
X10439Y8479D01*
X10436Y8479D01*
X10432Y8478D01*
X10429Y8478D01*
X10426Y8476D01*
X10423Y8475D01*
X10421Y8473D01*
X10418Y8471D01*
X10416Y8469D01*
X10414Y8466D01*
X10413Y8463D01*
X10412Y8460D01*
X10411Y8457D01*
X10410Y8454D01*
X10410Y8451D01*
X10410Y8448D01*
X10411Y8445D01*
X10412Y8442D01*
X10413Y8439D01*
X10414Y8436D01*
X10416Y8433D01*
X10418Y8431D01*
X10384Y8012D02*
X10381Y8010D01*
X10379Y8008D01*
X10376Y8006D01*
X10374Y8005D01*
X10371Y8004D01*
X10368Y8003D01*
X10365Y8003D01*
X10362Y8003D01*
X10359Y8003D01*
X10356Y8004D01*
X10353Y8005D01*
X10350Y8006D01*
X10348Y8008D01*
X10345Y8009D01*
X10343Y8012D01*
X10568Y8119D02*
X10571Y8119D01*
X10575Y8118D01*
X10578Y8117D01*
X10582Y8115D01*
X10585Y8113D01*
X10588Y8111D01*
X10590Y8108D01*
X10592Y8105D01*
X10594Y8102D01*
X10595Y8098D01*
X10596Y8095D01*
X10596Y8091D01*
X10618Y8428D02*
X10615Y8428D01*
X10612Y8429D01*
X10609Y8430D01*
X10606Y8431D01*
X10603Y8433D01*
X10600Y8434D01*
X10598Y8437D01*
X10596Y8439D01*
X10594Y8442D01*
X10592Y8445D01*
X10591Y8448D01*
X10590Y8451D01*
X10590Y8455D01*
X10590Y8458D01*
X10590Y8461D01*
X10591Y8464D01*
X10592Y8467D01*
X10594Y8470D01*
X10596Y8473D01*
X10598Y8476D01*
X10600Y8478D01*
X10603Y8480D01*
X10606Y8481D01*
X10609Y8483D01*
X10612Y8483D01*
X10616Y8484D01*
X10619Y8484D01*
X10622Y8484D01*
X10625Y8483D01*
X10629Y8482D01*
X10632Y8480D01*
X10634Y8479D01*
X10637Y8477D01*
X10639Y8474D01*
X10641Y8472D01*
X10643Y8469D01*
X10736Y8223D02*
X10739Y8223D01*
X10742Y8223D01*
X10745Y8224D01*
X10748Y8225D01*
X10751Y8226D01*
X10754Y8228D01*
X10714Y8236D02*
X10713Y8239D01*
X10711Y8243D01*
X10710Y8246D01*
X10710Y8250D01*
X10710Y8253D01*
X10711Y8257D01*
X10712Y8261D01*
X10713Y8264D01*
X10715Y8267D01*
X11074Y8201D02*
X11071Y8203D01*
X11069Y8206D01*
X11068Y8209D01*
X11067Y8212D01*
X11066Y8215D01*
X11065Y8218D01*
X11065Y8222D01*
X11065Y8225D01*
X11066Y8228D01*
X11067Y8231D01*
X11068Y8234D01*
X11070Y8237D01*
X11072Y8239D01*
X11074Y8242D01*
X11077Y8244D01*
X11080Y8246D01*
X11083Y8247D01*
X11086Y8248D01*
X11089Y8249D01*
X11092Y8249D01*
X11095Y8249D01*
X11074Y8141D02*
X11071Y8139D01*
X11069Y8136D01*
X11068Y8133D01*
X11066Y8130D01*
X11066Y8127D01*
X11065Y8124D01*
X11065Y8120D01*
X11065Y8117D01*
X11066Y8114D01*
X11067Y8111D01*
X11068Y8108D01*
X11070Y8105D01*
X11072Y8102D01*
X11075Y8100D01*
X11077Y8098D01*
X11080Y8096D01*
X11083Y8095D01*
X11086Y8094D01*
X11090Y8093D01*
X11093Y8093D01*
X11096Y8093D01*
X11099Y8094D01*
X11103Y8095D01*
X11106Y8096D01*
X11109Y8098D01*
X11111Y8100D01*
X11114Y8102D01*
X11116Y8105D01*
X11117Y8107D01*
X11119Y8110D01*
X11120Y8113D01*
X11121Y8117D01*
X11121Y8120D01*
X11061Y8451D02*
X11061Y8448D01*
X11061Y8444D01*
X11061Y8441D01*
X11060Y8438D01*
X11060Y8434D01*
X11059Y8431D01*
X11059Y8428D01*
X11058Y8425D01*
X11058Y8421D01*
X11057Y8418D01*
X11056Y8415D01*
X11055Y8412D01*
X11054Y8409D01*
X11053Y8405D01*
X11052Y8402D01*
X11050Y8399D01*
X11049Y8396D01*
X11048Y8393D01*
X11046Y8390D01*
X11045Y8387D01*
X11043Y8384D01*
X11041Y8381D01*
X11040Y8379D01*
X11038Y8376D01*
X11036Y8373D01*
X11034Y8370D01*
X11032Y8368D01*
X11030Y8365D01*
X11027Y8363D01*
X11025Y8360D01*
X11023Y8358D01*
X11021Y8355D01*
X11018Y8353D01*
X11016Y8351D01*
X11013Y8349D01*
X11011Y8347D01*
X11008Y8345D01*
X11005Y8343D01*
X11003Y8341D01*
X11000Y8339D01*
X10997Y8337D01*
X10994Y8335D01*
X10991Y8334D01*
X10988Y8332D01*
X10985Y8331D01*
X10982Y8329D01*
X10979Y8328D01*
X10976Y8327D01*
X10973Y8326D01*
X10970Y8324D01*
X10967Y8323D01*
X10963Y8322D01*
X10960Y8322D01*
X10957Y8321D01*
X10954Y8320D01*
X10950Y8319D01*
X10947Y8319D01*
X10944Y8319D01*
X10941Y8318D01*
X10937Y8318D01*
X10934Y8318D01*
X10931Y8318D01*
X10927Y8317D01*
X10924Y8318D01*
X10921Y8318D01*
X10917Y8318D01*
X10914Y8318D01*
X10911Y8319D01*
X10907Y8319D01*
X10904Y8319D01*
X10901Y8320D01*
X10898Y8321D01*
X10894Y8322D01*
X10891Y8322D01*
X10888Y8323D01*
X10885Y8324D01*
X10882Y8326D01*
X10878Y8327D01*
X10875Y8328D01*
X10872Y8329D01*
X10869Y8331D01*
X10866Y8332D01*
X10863Y8334D01*
X10860Y8335D01*
X10858Y8337D01*
X10855Y8339D01*
X10852Y8341D01*
X10849Y8343D01*
X10847Y8345D01*
X10844Y8347D01*
X10841Y8349D01*
X10839Y8351D01*
X10836Y8353D01*
X10834Y8355D01*
X10832Y8358D01*
X10829Y8360D01*
X10827Y8363D01*
X10825Y8365D01*
X10823Y8368D01*
X10821Y8370D01*
X10819Y8373D01*
X10817Y8376D01*
X10815Y8379D01*
X10813Y8381D01*
X10812Y8384D01*
X10810Y8387D01*
X10808Y8390D01*
X10807Y8393D01*
X10805Y8396D01*
X10804Y8399D01*
X10803Y8402D01*
X10802Y8405D01*
X10801Y8409D01*
X10800Y8412D01*
X10799Y8415D01*
X10798Y8418D01*
X10797Y8421D01*
X10796Y8425D01*
X10796Y8428D01*
X10795Y8431D01*
X10795Y8434D01*
X10794Y8438D01*
X10794Y8441D01*
X10794Y8444D01*
X10794Y8448D01*
X10794Y8451D01*
X10794Y8454D01*
X10794Y8458D01*
X10794Y8461D01*
X10794Y8464D01*
X10795Y8468D01*
X10795Y8471D01*
X10796Y8474D01*
X10796Y8478D01*
X10797Y8481D01*
X10798Y8484D01*
X10799Y8487D01*
X10800Y8490D01*
X10801Y8494D01*
X10802Y8497D01*
X10803Y8500D01*
X10804Y8503D01*
X10805Y8506D01*
X10807Y8509D01*
X10808Y8512D01*
X10810Y8515D01*
X10812Y8518D01*
X10813Y8521D01*
X10815Y8524D01*
X10817Y8526D01*
X10819Y8529D01*
X10821Y8532D01*
X10823Y8534D01*
X10825Y8537D01*
X10827Y8539D01*
X10829Y8542D01*
X10832Y8544D01*
X10834Y8547D01*
X10836Y8549D01*
X10839Y8551D01*
X10841Y8553D01*
X10844Y8556D01*
X10847Y8558D01*
X10849Y8560D01*
X10852Y8561D01*
X10855Y8563D01*
X10858Y8565D01*
X10860Y8567D01*
X10863Y8568D01*
X10866Y8570D01*
X10869Y8571D01*
X10872Y8573D01*
X10875Y8574D01*
X10878Y8575D01*
X10882Y8577D01*
X10885Y8578D01*
X10888Y8579D01*
X10891Y8580D01*
X10894Y8581D01*
X10898Y8581D01*
X10901Y8582D01*
X10904Y8583D01*
X10907Y8583D01*
X10911Y8584D01*
X10914Y8584D01*
X10917Y8584D01*
X10921Y8585D01*
X10924Y8585D01*
X10927Y8585D01*
X10931Y8585D01*
X10934Y8585D01*
X10937Y8584D01*
X10941Y8584D01*
X10944Y8584D01*
X10947Y8583D01*
X10950Y8583D01*
X10954Y8582D01*
X10957Y8581D01*
X10960Y8581D01*
X10963Y8580D01*
X10967Y8579D01*
X10970Y8578D01*
X10973Y8577D01*
X10976Y8575D01*
X10979Y8574D01*
X10982Y8573D01*
X10985Y8571D01*
X10988Y8570D01*
X10991Y8568D01*
X10994Y8567D01*
X10997Y8565D01*
X11000Y8563D01*
X11003Y8561D01*
X11005Y8560D01*
X11008Y8558D01*
X11011Y8556D01*
X11013Y8553D01*
X11016Y8551D01*
X11018Y8549D01*
X11021Y8547D01*
X11023Y8544D01*
X11025Y8542D01*
X11027Y8539D01*
X11030Y8537D01*
X11032Y8534D01*
X11034Y8532D01*
X11036Y8529D01*
X11038Y8526D01*
X11040Y8524D01*
X11041Y8521D01*
X11043Y8518D01*
X11045Y8515D01*
X11046Y8512D01*
X11048Y8509D01*
X11049Y8506D01*
X11050Y8503D01*
X11052Y8500D01*
X11053Y8497D01*
X11054Y8494D01*
X11055Y8490D01*
X11056Y8487D01*
X11057Y8484D01*
X11058Y8481D01*
X11058Y8478D01*
X11059Y8474D01*
X11059Y8471D01*
X11060Y8468D01*
X11060Y8464D01*
X11061Y8461D01*
X11061Y8458D01*
X11061Y8454D01*
X11061Y8451D01*
X8766Y8506D02*
X8764Y8509D01*
X8763Y8512D01*
X8761Y8515D01*
X8760Y8518D01*
X8758Y8521D01*
X8756Y8523D01*
X8754Y8526D01*
X8753Y8529D01*
X8751Y8531D01*
X8749Y8534D01*
X8747Y8537D01*
X8744Y8539D01*
X8742Y8541D01*
X8740Y8544D01*
X8738Y8546D01*
X8735Y8548D01*
X8733Y8551D01*
X8730Y8553D01*
X8728Y8555D01*
X8725Y8557D01*
X8723Y8559D01*
X8720Y8561D01*
X8717Y8563D01*
X8715Y8564D01*
X8712Y8566D01*
X8709Y8568D01*
X8706Y8569D01*
X8703Y8571D01*
X8700Y8572D01*
X8697Y8574D01*
X8694Y8575D01*
X8691Y8576D01*
X8688Y8577D01*
X8685Y8578D01*
X8682Y8579D01*
X8679Y8580D01*
X8675Y8581D01*
X8672Y8582D01*
X8669Y8582D01*
X8666Y8583D01*
X8663Y8583D01*
X8659Y8584D01*
X8656Y8584D01*
X8653Y8584D01*
X8650Y8585D01*
X8646Y8585D01*
X8643Y8585D01*
X8640Y8585D01*
X8636Y8584D01*
X8633Y8584D01*
X8630Y8584D01*
X8627Y8584D01*
X8623Y8583D01*
X8620Y8583D01*
X8617Y8582D01*
X8614Y8581D01*
X8611Y8580D01*
X8607Y8580D01*
X8604Y8579D01*
X8601Y8578D01*
X8598Y8577D01*
X8595Y8575D01*
X8592Y8574D01*
X8589Y8573D01*
X8586Y8572D01*
X8583Y8570D01*
X8580Y8569D01*
X8577Y8567D01*
X8574Y8565D01*
X8572Y8564D01*
X8569Y8562D01*
X8566Y8560D01*
X8564Y8558D01*
X8561Y8556D01*
X8558Y8554D01*
X8556Y8552D01*
X8553Y8550D01*
X8551Y8547D01*
X8549Y8545D01*
X8546Y8543D01*
X8544Y8540D01*
X8542Y8538D01*
X8540Y8535D01*
X8538Y8533D01*
X10327Y7701D02*
X10331Y7699D01*
X10333Y7697D01*
X10336Y7695D01*
X10338Y7692D01*
X10340Y7689D01*
X10342Y7686D01*
X10343Y7683D01*
X10343Y7679D01*
X10344Y7676D01*
X10343Y7672D01*
X10343Y7669D01*
X10341Y7665D01*
X10340Y7662D01*
X10338Y7659D01*
X10335Y7657D01*
X10333Y7654D01*
X10330Y7652D01*
X10327Y7651D01*
X10323Y7649D01*
X10320Y7649D01*
X10316Y7648D01*
X10260D02*
X10256Y7649D01*
X10253Y7649D01*
X10250Y7651D01*
X10246Y7652D01*
X10243Y7654D01*
X10241Y7656D01*
X10238Y7659D01*
X10236Y7662D01*
X10235Y7665D01*
X10234Y7668D01*
X10233Y7672D01*
X10233Y7675D01*
X10233Y7679D01*
X10233Y7682D01*
X10234Y7686D01*
X10236Y7689D01*
X10238Y7692D01*
X10240Y7695D01*
X10243Y7697D01*
X10245Y7699D01*
X10249Y7701D01*
X10327Y7751D02*
X10330Y7749D01*
X10333Y7748D01*
X10335Y7746D01*
Y7706D02*
X10333Y7704D01*
X10330Y7703D01*
X10327Y7701D01*
X10249D02*
X10245Y7703D01*
X10243Y7705D01*
X10240Y7707D01*
X10238Y7710D01*
X10236Y7713D01*
X10234Y7716D01*
X10233Y7719D01*
X10233Y7723D01*
X10232Y7726D01*
X10233Y7729D01*
X10233Y7733D01*
X10234Y7736D01*
X10236Y7739D01*
X10238Y7742D01*
X10240Y7745D01*
X10243Y7747D01*
X10245Y7749D01*
X10249Y7751D01*
X10327Y7801D02*
X10331Y7799D01*
X10333Y7797D01*
X10336Y7795D01*
X10338Y7792D01*
X10340Y7789D01*
X10342Y7786D01*
X10343Y7783D01*
X10343Y7779D01*
X10344Y7776D01*
X10343Y7773D01*
X10343Y7769D01*
X10342Y7766D01*
X10340Y7763D01*
X10338Y7760D01*
X10336Y7757D01*
X10333Y7755D01*
X10331Y7753D01*
X10327Y7751D01*
X10249D02*
X10246Y7753D01*
X10243Y7754D01*
X10241Y7756D01*
Y7796D02*
X10243Y7798D01*
X10246Y7799D01*
X10249Y7801D01*
X10316Y7854D02*
X10320Y7853D01*
X10323Y7853D01*
X10327Y7851D01*
X10330Y7850D01*
X10333Y7848D01*
X10335Y7845D01*
X10338Y7843D01*
X10340Y7840D01*
X10341Y7837D01*
X10343Y7833D01*
X10343Y7830D01*
X10344Y7826D01*
X10343Y7823D01*
X10343Y7819D01*
X10342Y7816D01*
X10340Y7813D01*
X10338Y7810D01*
X10336Y7807D01*
X10333Y7805D01*
X10331Y7803D01*
X10327Y7801D01*
X10249D02*
X10246Y7803D01*
X10243Y7804D01*
X10241Y7806D01*
Y7846D02*
X10243Y7848D01*
X10246Y7850D01*
X10250Y7851D01*
X10253Y7853D01*
X10256Y7853D01*
X10260Y7854D01*
X11148Y7471D02*
X11148Y7467D01*
X11147Y7463D01*
X11146Y7459D01*
X11148Y7471D02*
X11148Y7474D01*
X11148Y7478D01*
X11147Y7481D01*
X11145Y7485D01*
X11144Y7488D01*
X11142Y7491D01*
X11140Y7493D01*
X11138Y7496D01*
X11135Y7498D01*
X11132Y7500D01*
X11129Y7502D01*
X11126Y7504D01*
X11123Y7505D01*
X11120Y7506D01*
X11116Y7506D01*
X11113Y7506D01*
X11109Y7506D01*
X11106Y7505D01*
X11102Y7505D01*
X11099Y7503D01*
X11096Y7502D01*
X8598Y8636D02*
X8598Y8633D01*
X8598Y8629D01*
X8597Y8626D01*
X8595Y8623D01*
X8594Y8619D01*
X8592Y8616D01*
X8590Y8614D01*
X8588Y8611D01*
X8585Y8609D01*
X8582Y8607D01*
X8580Y8605D01*
X8576Y8603D01*
X8573Y8602D01*
X8570Y8601D01*
X8566Y8601D01*
X8563Y8601D01*
X8559Y8601D01*
X8556Y8602D01*
X8553Y8602D01*
X8549Y8604D01*
X8546Y8605D01*
X8543Y8607D01*
X8541Y8609D01*
X8538Y8611D01*
Y8661D02*
X8541Y8663D01*
X8543Y8665D01*
X8546Y8667D01*
X8549Y8668D01*
X8553Y8670D01*
X8556Y8670D01*
X8559Y8671D01*
X8563Y8671D01*
X8566Y8671D01*
X8570Y8671D01*
X8573Y8670D01*
X8576Y8669D01*
X8580Y8667D01*
X8582Y8665D01*
X8585Y8663D01*
X8588Y8661D01*
X8590Y8658D01*
X8592Y8656D01*
X8594Y8653D01*
X8595Y8649D01*
X8597Y8646D01*
X8598Y8643D01*
X8598Y8639D01*
X8598Y8636D01*
X10658Y8415D02*
X10660Y8413D01*
X10663Y8411D01*
X10666Y8410D01*
X10670Y8408D01*
X10673Y8407D01*
X10676Y8406D01*
X10680Y8406D01*
X10683Y8405D01*
X10686Y8405D01*
X10690Y8405D01*
X10693Y8406D01*
X10697Y8406D01*
X10700Y8407D01*
X10703Y8409D01*
X10707Y8410D01*
X10710Y8412D01*
X10713Y8413D01*
X10715Y8416D01*
X10718Y8418D01*
X10720Y8420D01*
X10723Y8423D01*
X10725Y8426D01*
X10726Y8429D01*
X10728Y8432D01*
X10729Y8435D01*
X10731Y8438D01*
X10732Y8441D01*
X10732Y8445D01*
X10733Y8448D01*
X10733Y8452D01*
X10733Y8455D01*
X10732Y8458D01*
X10732Y8462D01*
X10731Y8465D01*
X10730Y8468D01*
X10729Y8471D01*
X10727Y8474D01*
X10725Y8477D01*
X10724Y8479D01*
X10721Y8482D01*
X10719Y8484D01*
X10717Y8487D01*
X10714Y8489D01*
X10712Y8491D01*
X10709Y8492D01*
X10706Y8494D01*
X10703Y8495D01*
X10700Y8496D01*
X10696Y8497D01*
X10693Y8498D01*
X10690Y8498D01*
X10687Y8498D01*
X10683Y8498D01*
X10680Y8498D01*
X10677Y8497D01*
X10674Y8497D01*
X10670Y8496D01*
X10667Y8494D01*
X10664Y8493D01*
X10662Y8491D01*
X10659Y8489D01*
X10656Y8487D01*
X10654Y8485D01*
X10652Y8483D01*
X10649Y8480D01*
X10647Y8478D01*
X10646Y8475D01*
X10644Y8472D01*
X10643Y8469D01*
X8932Y8452D02*
X8932Y8449D01*
X8932Y8445D01*
X8931Y8442D01*
X8930Y8439D01*
X8929Y8435D01*
X8928Y8432D01*
X8927Y8429D01*
X8925Y8426D01*
X8923Y8424D01*
X8921Y8421D01*
X8918Y8419D01*
X8916Y8416D01*
X8913Y8414D01*
X8910Y8412D01*
X8907Y8411D01*
X8904Y8409D01*
X8901Y8408D01*
X8898Y8407D01*
X8895Y8406D01*
X8891Y8406D01*
X8888Y8405D01*
X8885Y8405D01*
X8881Y8406D01*
X8878Y8406D01*
X8875Y8407D01*
X8872Y8408D01*
X8868Y8409D01*
X8865Y8410D01*
X8862Y8412D01*
X8859Y8414D01*
X8857Y8416D01*
X8854Y8418D01*
X8852Y8420D01*
X8850Y8423D01*
X8848Y8425D01*
X8846Y8428D01*
X8844Y8431D01*
X8843Y8434D01*
X8842Y8438D01*
X8841Y8441D01*
X8840Y8444D01*
X8840Y8447D01*
X8839Y8451D01*
X8839Y8454D01*
X8840Y8457D01*
X8840Y8461D01*
X8841Y8464D01*
X8842Y8467D01*
X8843Y8470D01*
X8845Y8473D01*
X8846Y8476D01*
X8859Y8489D02*
X8861Y8491D01*
X8864Y8493D01*
X8867Y8495D01*
X8871Y8496D01*
X8874Y8497D01*
X8877Y8498D01*
X8881Y8498D01*
X8884Y8498D01*
X8887Y8498D01*
X8891Y8498D01*
X8894Y8498D01*
X8897Y8497D01*
X8901Y8496D01*
X8904Y8495D01*
X8907Y8493D01*
X8910Y8492D01*
X8913Y8490D01*
X8916Y8488D01*
X8918Y8485D01*
X8920Y8483D01*
X8923Y8480D01*
X8925Y8478D01*
X8926Y8475D01*
X8928Y8472D01*
X8929Y8469D01*
X8930Y8465D01*
X8931Y8462D01*
X8932Y8459D01*
X8932Y8455D01*
X8932Y8452D01*
X11118Y8666D02*
X11118Y8663D01*
X11118Y8659D01*
X11117Y8656D01*
X11116Y8653D01*
X11114Y8650D01*
X11113Y8647D01*
X11111Y8644D01*
X11108Y8642D01*
X11106Y8639D01*
X11103Y8637D01*
X11101Y8636D01*
X11098Y8634D01*
X11095Y8633D01*
X11091Y8632D01*
X11088Y8631D01*
X11085Y8631D01*
X11081D01*
X11078Y8631D01*
X11075Y8632D01*
X11071Y8633D01*
X11068Y8634D01*
X11065Y8636D01*
X11063Y8637D01*
X11060Y8639D01*
X11058Y8642D01*
X11055Y8644D01*
X11053Y8647D01*
X11052Y8650D01*
X11050Y8653D01*
X11049Y8656D01*
X11048Y8659D01*
X11048Y8663D01*
X11048Y8666D01*
X11048Y8669D01*
X11048Y8673D01*
X11049Y8676D01*
X11050Y8679D01*
X11052Y8682D01*
X11053Y8685D01*
X11055Y8688D01*
X11058Y8690D01*
X11060Y8693D01*
X11063Y8695D01*
X11065Y8696D01*
X11068Y8698D01*
X11071Y8699D01*
X11075Y8700D01*
X11078Y8701D01*
X11081Y8701D01*
X11085D01*
X11088Y8701D01*
X11091Y8700D01*
X11095Y8699D01*
X11098Y8698D01*
X11101Y8696D01*
X11103Y8695D01*
X11106Y8693D01*
X11108Y8690D01*
X11111Y8688D01*
X11113Y8685D01*
X11114Y8682D01*
X11116Y8679D01*
X11117Y8676D01*
X11118Y8673D01*
X11118Y8669D01*
X11118Y8666D01*
X9690Y7538D02*
X9688Y7535D01*
X9686Y7533D01*
X9684Y7530D01*
X9682Y7527D01*
X9681Y7524D01*
X9680Y7520D01*
X9679Y7517D01*
X9679Y7514D01*
X9679Y7510D01*
X9679Y7507D01*
X9679Y7503D01*
X9680Y7500D01*
X9681Y7497D01*
X9683Y7494D01*
X9684Y7490D01*
X9094Y7881D02*
X9094Y7878D01*
X9094Y7875D01*
X9093Y7872D01*
X9092Y7868D01*
X9091Y7865D01*
X9089Y7862D01*
X9088Y7860D01*
X9086Y7857D01*
X9083Y7854D01*
X9081Y7852D01*
X9079Y7850D01*
X9076Y7848D01*
X9073Y7847D01*
X9070Y7845D01*
X9067Y7844D01*
X9064Y7843D01*
X9061Y7843D01*
X9057Y7842D01*
X9054Y7842D01*
X9051Y7842D01*
X9048Y7843D01*
X9044Y7844D01*
X9041Y7845D01*
X9038Y7846D01*
X9035Y7847D01*
X9033Y7849D01*
X9030Y7851D01*
X9028Y7853D01*
X9025Y7856D01*
X9023Y7858D01*
X9021Y7861D01*
X9020Y7864D01*
X9019Y7867D01*
X9017Y7870D01*
X9017Y7873D01*
X9016Y7876D01*
X9016Y7880D01*
Y7883D01*
X9016Y7886D01*
X9017Y7889D01*
X9017Y7893D01*
X9019Y7896D01*
X9020Y7899D01*
X9021Y7902D01*
X9023Y7904D01*
X9025Y7907D01*
X9028Y7909D01*
X9030Y7911D01*
X9033Y7913D01*
X9035Y7915D01*
X9038Y7917D01*
X9041Y7918D01*
X9044Y7919D01*
X9048Y7920D01*
X9051Y7920D01*
X9054Y7920D01*
X9057Y7920D01*
X9061Y7920D01*
X9064Y7919D01*
X9067Y7918D01*
X9070Y7917D01*
X9073Y7916D01*
X9076Y7914D01*
X9079Y7912D01*
X9081Y7910D01*
X9083Y7908D01*
X9086Y7906D01*
X9088Y7903D01*
X9089Y7900D01*
X9091Y7897D01*
X9092Y7894D01*
X9093Y7891D01*
X9094Y7888D01*
X9094Y7885D01*
X9094Y7881D01*
Y7960D02*
X9094Y7957D01*
X9093Y7953D01*
X9093Y7950D01*
X9092Y7946D01*
X9090Y7943D01*
X9089Y7940D01*
X9087Y7937D01*
X9085Y7935D01*
X9082Y7932D01*
X9080Y7930D01*
X9077Y7928D01*
X9074Y7926D01*
X9071Y7924D01*
X9068Y7923D01*
X9064Y7922D01*
X9061Y7921D01*
X9057Y7921D01*
X9054Y7921D01*
X9050Y7921D01*
X9047Y7922D01*
X9044Y7923D01*
X9040Y7924D01*
X9037Y7925D01*
X9034Y7927D01*
X9031Y7929D01*
X9029Y7931D01*
X9026Y7934D01*
X9028Y7988D02*
X9031Y7991D01*
X9033Y7993D01*
X9036Y7994D01*
X9039Y7996D01*
X9042Y7997D01*
X9046Y7998D01*
X9049Y7999D01*
X9052Y7999D01*
X9056Y7999D01*
X9059Y7999D01*
X9062Y7998D01*
X9066Y7998D01*
X9069Y7997D01*
X9072Y7995D01*
X9075Y7994D01*
X9078Y7992D01*
X9080Y7990D01*
X9083Y7987D01*
X9085Y7985D01*
X9087Y7982D01*
X9089Y7979D01*
X9090Y7976D01*
X9092Y7973D01*
X9093Y7970D01*
X9093Y7967D01*
X9094Y7963D01*
X9094Y7960D01*
X11121Y8120D02*
X11124Y8119D01*
X11127Y8118D01*
X11130Y8117D01*
X11133Y8117D01*
X11136Y8116D01*
X11139Y8116D01*
X11142Y8116D01*
X11145Y8117D01*
X11148Y8117D01*
X11151Y8118D01*
X11154Y8119D01*
X11157Y8120D01*
X11160Y8121D01*
X11162Y8123D01*
X11165Y8124D01*
X11095Y8249D02*
X11095Y8252D01*
X11094Y8256D01*
X11094Y8259D01*
X11094Y8263D01*
X11094Y8266D01*
X11094Y8270D01*
X11175Y8334D02*
X11177Y8337D01*
X11179Y8340D01*
X11180Y8342D01*
X11182Y8346D01*
X11183Y8349D01*
X11183Y8352D01*
X11184Y8355D01*
X11184Y8358D01*
X11185Y8362D01*
X11184Y8365D01*
X11184Y8368D01*
X11183Y8372D01*
X11183Y8375D01*
X11181Y8378D01*
X11180Y8381D01*
X11179Y8384D01*
X11177Y8387D01*
X11175Y8390D01*
X11173Y8393D01*
X11170Y8395D01*
X11168Y8397D01*
X11165Y8399D01*
X11162Y8401D01*
X11159Y8403D01*
X11156Y8404D01*
X11153Y8405D01*
X11149Y8406D01*
X11146Y8407D01*
X11143Y8407D01*
X11139Y8407D01*
X11136Y8407D01*
X11133Y8407D01*
X11129Y8406D01*
X11126Y8405D01*
X11123Y8404D01*
X11120Y8403D01*
X11117Y8401D01*
X11114Y8400D01*
X11111Y8398D01*
X11108Y8395D01*
X11106Y8393D01*
X11104Y8391D01*
X11102Y8388D01*
X11100Y8385D01*
X11098Y8382D01*
X11097Y8379D01*
X11096Y8376D01*
X11095Y8372D01*
X11094Y8369D01*
X11094Y8366D01*
X11094Y8362D01*
X11094Y8359D01*
X11094Y8356D01*
X11095Y8352D01*
X11095Y8349D01*
X11096Y8346D01*
X11098Y8343D01*
X11099Y8340D01*
X11101Y8337D01*
X11103Y8334D01*
X11185Y8462D02*
X11184Y8458D01*
X11184Y8455D01*
X11183Y8452D01*
X11183Y8449D01*
X11182Y8446D01*
X11180Y8443D01*
X11179Y8440D01*
X11177Y8437D01*
X11175Y8434D01*
X11173Y8432D01*
X11171Y8429D01*
X11169Y8427D01*
X11166Y8425D01*
X11163Y8423D01*
X11160Y8422D01*
X11157Y8420D01*
X11154Y8419D01*
X11151Y8418D01*
X11148Y8417D01*
X11145Y8417D01*
X11142Y8416D01*
X11138Y8416D01*
X11135Y8416D01*
X11132Y8417D01*
X11128Y8417D01*
X11125Y8418D01*
X11122Y8419D01*
X11119Y8421D01*
X11116Y8422D01*
X11114Y8424D01*
X11111Y8426D01*
X11108Y8428D01*
X11106Y8430D01*
X11104Y8433D01*
X11102Y8436D01*
X11100Y8438D01*
X11098Y8441D01*
X11097Y8444D01*
X11096Y8447D01*
X11095Y8450D01*
X11094Y8454D01*
X11094Y8457D01*
X11094Y8460D01*
Y8463D01*
X11094Y8467D01*
X11094Y8470D01*
X11095Y8473D01*
X11096Y8476D01*
X11097Y8479D01*
X11098Y8482D01*
X11100Y8485D01*
X11102Y8488D01*
X11104Y8491D01*
X11106Y8493D01*
X11108Y8495D01*
X11111Y8497D01*
X11114Y8499D01*
X11116Y8501D01*
X11119Y8503D01*
X11122Y8504D01*
X11125Y8505D01*
X11128Y8506D01*
X11132Y8507D01*
X11135Y8507D01*
X11138Y8507D01*
X11142Y8507D01*
X11145Y8507D01*
X11148Y8506D01*
X11151Y8506D01*
X11154Y8505D01*
X11157Y8503D01*
X11160Y8502D01*
X11163Y8500D01*
X11166Y8498D01*
X11169Y8496D01*
X11171Y8494D01*
X11173Y8492D01*
X11175Y8489D01*
X11177Y8487D01*
X11179Y8484D01*
X11180Y8481D01*
X11182Y8478D01*
X11183Y8475D01*
X11183Y8472D01*
X11184Y8468D01*
X11184Y8465D01*
X11185Y8462D01*
X11165Y7999D02*
X11162Y8001D01*
X11160Y8002D01*
X11157Y8004D01*
X11154Y8005D01*
X11151Y8006D01*
X11148Y8006D01*
X11145Y8007D01*
X11142Y8007D01*
X11138Y8007D01*
X11135Y8007D01*
X11132Y8007D01*
X11129Y8006D01*
X11126Y8005D01*
X11123Y8004D01*
X11120Y8003D01*
X11117Y8002D01*
X11115Y8000D01*
X11112Y7998D01*
X11110Y7996D01*
X11107Y7994D01*
X11105Y7992D01*
Y8031D02*
X11107Y8029D01*
X11110Y8027D01*
X11112Y8025D01*
X11115Y8023D01*
X11117Y8022D01*
X11120Y8020D01*
X11123Y8019D01*
X11126Y8018D01*
X11129Y8017D01*
X11132Y8017D01*
X11135Y8016D01*
X11138Y8016D01*
X11142Y8016D01*
X11145Y8017D01*
X11148Y8017D01*
X11151Y8018D01*
X11154Y8019D01*
X11157Y8020D01*
X11160Y8021D01*
X11162Y8023D01*
X11165Y8024D01*
Y8099D02*
X11162Y8101D01*
X11159Y8103D01*
X11156Y8104D01*
X11153Y8105D01*
X11150Y8106D01*
X11146Y8107D01*
X11143Y8107D01*
X11139Y8107D01*
X11136Y8107D01*
X11133Y8107D01*
X11129Y8106D01*
X11126Y8105D01*
X11123Y8104D01*
X11120Y8103D01*
X11117Y8101D01*
X11114Y8100D01*
X11111Y8098D01*
X11108Y8095D01*
X11106Y8093D01*
X11104Y8090D01*
X11102Y8088D01*
D19*
X10403Y8136D02*
X10288Y8251D01*
X10438Y8151D02*
X10573Y8016D01*
X9943Y7471D02*
X9923D01*
X9943D02*
X9568D01*
X9533Y7641D02*
X9488D01*
X9483Y7551D02*
X9513D01*
X9533Y7641D02*
X9573D01*
X9943Y7651D02*
X10083D01*
X10108Y7676D02*
X10278D01*
X9488Y7561D02*
X9423D01*
X9513Y7551D02*
X9643D01*
Y7641D02*
X9573D01*
X9218Y7661D02*
X9163D01*
X9168D02*
X9033D01*
X9273Y7636D02*
X9303D01*
X9233Y7556D02*
X9173D01*
X9933Y7581D02*
X10038D01*
X9603Y7596D02*
X9563D01*
X9633Y7661D02*
X9843D01*
X10773Y7681D02*
X10778D01*
Y7691D02*
X10788D01*
X10783Y7676D02*
X10683D01*
X10378Y7626D02*
X10333D01*
X10373Y7566D02*
X10433D01*
X10358Y7676D02*
X10288D01*
X10428Y7566D02*
X10438D01*
X11073Y7661D02*
X11138D01*
X9248Y7781D02*
X9228D01*
X9053Y7821D02*
X9033D01*
X9163Y7901D02*
X9208D01*
X9323Y7891D02*
X9398D01*
X9393Y7821D02*
X9318D01*
X9428Y7786D02*
X9438D01*
X9403D01*
X9363Y7746D02*
X9328D01*
X9548Y7851D02*
X9568D01*
X9483D01*
X9678Y7776D02*
X9768D01*
X9808Y7761D02*
X9843D01*
X10213Y7826D02*
X10278D01*
X10263Y7776D02*
X10193D01*
X10533Y7726D02*
X10568D01*
X10473Y7801D02*
X10463D01*
X10468D02*
X10553D01*
X10383Y7726D02*
X10313D01*
X10138Y7931D02*
X10078D01*
X10268Y8031D02*
X10363D01*
X9093Y8051D02*
X9053D01*
X9133Y8011D02*
X9218D01*
X9398Y8016D02*
X9478D01*
X10663Y8001D02*
X10753D01*
X10118Y7971D02*
X10093D01*
X10273Y8091D02*
X10363D01*
X10058Y7991D02*
X10033D01*
X10018Y7976D02*
X9983D01*
X8918Y8101D02*
X8888D01*
X8938Y8041D02*
X8768D01*
X8778D02*
X8708D01*
X8733Y8066D02*
X8868D01*
X8738D02*
X8718D01*
X9138Y8056D02*
X9248D01*
X9243D02*
X9263D01*
X10113Y7971D02*
X10138D01*
Y8011D02*
X10103D01*
X10118Y8051D02*
X10138D01*
X10118D02*
X10103D01*
X8878Y8216D02*
X8833D01*
X10653Y8201D02*
X10688D01*
X10658D02*
X10638D01*
X9843Y8221D02*
X9798D01*
X9833Y8131D02*
X9883D01*
X9413Y8141D02*
X9388D01*
X9373Y8156D02*
X9258D01*
X9238Y8176D02*
X9203D01*
X9253Y8221D02*
X9303D01*
X9258D02*
X9238D01*
X9613Y8141D02*
X9683D01*
X9003Y8191D02*
X8973D01*
X9028Y8216D02*
X9093D01*
X9163Y8246D02*
X9178D01*
X9133Y8276D02*
X9008D01*
X8883Y8241D02*
X8783D01*
X8778Y8226D02*
X8593D01*
X8618Y8111D02*
X8638D01*
X8798Y8161D02*
X8828D01*
X8838Y8171D02*
X8913D01*
X8983Y8141D02*
X9028D01*
Y8241D02*
X8978D01*
X9838Y8676D02*
X9958D01*
X10138D02*
X10213D01*
X8703Y8116D02*
Y8081D01*
X8668D02*
X8638Y8111D01*
X8668Y8081D02*
X8708Y8041D01*
X8718Y8066D02*
X8703Y8081D01*
X8933Y8161D02*
Y8166D01*
Y8116D01*
Y8191D02*
Y8216D01*
Y8211D02*
Y8221D01*
Y8116D02*
X8918Y8101D01*
X8933Y8166D02*
X8953Y8186D01*
X8838Y8171D02*
X8828Y8161D01*
X8913Y8171D02*
X8933Y8191D01*
Y8221D02*
X8953Y8241D01*
X9033Y7731D02*
Y7661D01*
X9053Y7821D02*
Y7876D01*
X9033Y7821D02*
Y7746D01*
X9028Y8076D02*
Y8141D01*
X9033Y8346D02*
Y8451D01*
X9093Y8176D02*
Y8116D01*
X9003Y8191D02*
X9028Y8216D01*
X8973Y8241D02*
X9008Y8276D01*
X8958Y8061D02*
X8938Y8041D01*
X9028Y8076D02*
X9053Y8051D01*
X9093D02*
X9133Y8011D01*
X9163Y8246D02*
X9133Y8276D01*
X9118Y8076D02*
X9138Y8056D01*
X9133Y7731D02*
X9208Y7691D01*
X9313Y8256D02*
Y8261D01*
X9173Y7661D02*
Y7556D01*
X9273Y7781D02*
Y7791D01*
Y7731D02*
Y7706D01*
Y7726D02*
Y7786D01*
X9258Y7771D02*
Y7761D01*
Y7651D01*
X9138Y7751D02*
Y7876D01*
X9148Y8136D02*
Y8206D01*
X9298Y7816D02*
X9273Y7791D01*
X9163Y7901D02*
X9138Y7876D01*
X9148Y8206D02*
X9178Y8236D01*
X9293Y8086D02*
X9263Y8056D01*
X9313Y7686D02*
X9333Y7666D01*
X9288Y7691D02*
X9273Y7706D01*
X9258Y7771D02*
X9248Y7781D01*
X9258Y7651D02*
X9273Y7636D01*
X9328Y7746D02*
X9403Y7671D01*
X9258Y8156D02*
X9238Y8176D01*
Y8221D02*
X9213Y8246D01*
X9148Y8136D02*
X9168Y8116D01*
X9163Y7791D02*
X9193Y7741D01*
X9488Y7641D02*
Y7551D01*
X9333Y7566D02*
Y7666D01*
X9353Y8146D02*
Y8151D01*
Y8156D02*
Y8006D01*
Y8146D02*
X9363Y8156D01*
X9458Y7806D02*
X9438Y7786D01*
X9403D02*
X9363Y7746D01*
X9353Y8146D02*
X9343Y8156D01*
X9373D02*
X9388Y8141D01*
X9488Y7561D02*
X9483Y7551D01*
X9543Y7936D02*
X9498Y8001D01*
X9568Y8021D02*
Y8131D01*
X9533Y7641D02*
Y7551D01*
X9643D02*
Y7586D01*
Y7616D02*
Y7641D01*
X9573D02*
Y7766D01*
X9558Y7521D02*
Y7481D01*
X9633Y8451D02*
Y8576D01*
Y8416D02*
Y8351D01*
X9588Y8271D02*
Y8431D01*
Y8276D02*
Y8256D01*
X9538Y8261D02*
Y8301D01*
X9578Y8221D02*
Y8181D01*
X9623Y7906D02*
X9568Y7851D01*
X9633Y8416D02*
X9668Y8451D01*
X9733Y8121D02*
X9688Y8076D01*
X9558Y7481D02*
X9568Y7471D01*
X9633Y7661D02*
X9608Y7686D01*
X9588Y8431D02*
X9573Y8446D01*
X9588Y8256D02*
X9663Y8181D01*
X9578Y8221D02*
X9538Y8261D01*
X9703Y8451D02*
X9733Y8486D01*
X9898Y7681D02*
Y7616D01*
X9838Y8341D02*
Y8456D01*
X9738D02*
Y8341D01*
X9733Y8486D02*
Y8551D01*
X9878Y8056D02*
Y7966D01*
X9773Y8066D02*
Y8141D01*
X9733Y8121D02*
Y8181D01*
Y8176D01*
X9808Y7761D02*
X9773Y7726D01*
X9863Y7866D02*
X9943Y7946D01*
X9733Y8181D02*
X9763Y8211D01*
X9868Y7711D02*
X9898Y7681D01*
Y7616D02*
X9933Y7581D01*
X9928Y7671D02*
X9868Y7741D01*
Y7711D02*
X9833Y7706D01*
X9798Y8146D02*
X9868Y8206D01*
X10078Y7971D02*
Y7936D01*
X10043Y8666D02*
Y8711D01*
X10078Y8086D02*
Y8051D01*
X10108Y8116D02*
Y8136D01*
X10088Y8246D02*
Y8431D01*
X9978Y8176D02*
Y8056D01*
X10108Y7676D02*
X10083Y7651D01*
X10078Y8086D02*
X10108Y8116D01*
X10088Y8431D02*
X10138Y8481D01*
X10033Y7991D02*
X10018Y7976D01*
X10118Y8216D02*
X10088Y8246D01*
X9998Y7516D02*
X9943Y7471D01*
X10068Y7481D02*
X10133Y7556D01*
X10138Y7931D02*
Y7976D01*
X10153Y7516D02*
Y7476D01*
X10243Y8321D02*
Y8451D01*
X10268Y7566D02*
Y7466D01*
X10233Y8501D02*
Y8556D01*
X10288Y8446D02*
Y8251D01*
X10253Y8071D02*
Y8051D01*
X10118Y8166D02*
Y8216D01*
X10138Y8481D02*
Y8556D01*
Y8051D02*
Y7971D01*
X10253Y8071D02*
X10273Y8091D01*
X10188Y7851D02*
X10213Y7826D01*
X10288Y8446D02*
X10233Y8501D01*
X10368Y7911D02*
Y7856D01*
X10448Y7781D02*
Y7711D01*
X10308Y8666D02*
Y8711D01*
X10438Y8451D02*
Y8341D01*
X10503Y8231D02*
Y8166D01*
Y8231D02*
Y8251D01*
X10483Y8271D02*
Y8446D01*
X10438Y8231D02*
Y8151D01*
X10318Y7611D02*
Y7521D01*
Y7516D02*
Y7531D01*
X10403Y7796D02*
Y7866D01*
X10408Y7786D02*
Y7661D01*
X10438Y7561D02*
Y7551D01*
X10403Y7861D02*
Y8136D01*
Y7651D02*
X10378Y7626D01*
X10333D02*
X10318Y7611D01*
X10408Y7566D02*
X10423Y7581D01*
X10503Y8251D02*
X10483Y8271D01*
X10438Y8231D02*
X10388Y8281D01*
X10318Y7516D02*
X10358Y7476D01*
X10438Y7566D02*
X10423Y7581D01*
X10428Y7571D02*
X10438Y7561D01*
X10478Y7676D02*
X10448Y7711D01*
Y7781D02*
X10463Y7801D01*
X10408Y7661D02*
X10403Y7651D01*
X10408Y7786D02*
X10403Y7796D01*
X10428Y7571D02*
X10438Y7551D01*
X10643Y7716D02*
Y7786D01*
X10548Y8111D02*
Y8246D01*
X10538Y8256D02*
Y8316D01*
X10588Y8071D02*
Y7746D01*
X10573Y7911D02*
Y8016D01*
Y7836D02*
Y7821D01*
Y7911D01*
X10638Y8356D02*
Y8436D01*
Y8201D02*
X10618Y8181D01*
X10588Y7746D02*
X10568Y7726D01*
X10553Y7801D02*
X10573Y7821D01*
X10643Y7716D02*
X10683Y7676D01*
X10548Y8246D02*
X10538Y8256D01*
X10638Y8436D02*
X10618Y8456D01*
X10578Y8081D02*
X10588Y8071D01*
X10578Y8081D02*
X10548Y8111D01*
X10888Y8191D02*
Y8251D01*
X10778Y7691D02*
X10768Y7681D01*
Y7676D02*
X10783Y7661D01*
X10978Y8131D02*
Y8191D01*
X11093Y8221D02*
Y8121D01*
X11138Y7561D02*
Y7516D01*
Y7506D02*
Y7526D01*
D20*
X10438Y7434D02*
X9968D01*
X9568Y8476D02*
X9553D01*
X9568D02*
X9573D01*
X9538Y8441D02*
Y8331D01*
X9588Y8491D02*
Y8651D01*
Y8646D02*
Y8676D01*
X9538Y8461D02*
Y8441D01*
Y8461D02*
X9553Y8476D01*
X9573D02*
X9588Y8491D01*
X10428Y7576D02*
X10423Y7571D01*
D21*
X10438Y7826D02*
X10488D01*
X10233Y8011D02*
X10208D01*
Y8156D02*
Y8251D01*
X10193Y8141D02*
Y8026D01*
X10208Y8011D01*
X10428Y7811D02*
Y7621D01*
Y7571D01*
X10438Y7536D02*
Y7441D01*
Y7531D02*
Y7566D01*
X10508Y7861D02*
X10468Y7901D01*
X10438Y7826D02*
X10428Y7811D01*
X10508Y7826D02*
Y7861D01*
D22*
X11073Y7436D02*
X11188D01*
X10783D02*
X10438D01*
X9638D02*
X9158D01*
X9163D02*
X8793D01*
X9633D02*
X9978D01*
X9758Y7611D02*
X9683D01*
Y7561D02*
X9763D01*
X10783Y7686D02*
X11073D01*
X8793Y7691D02*
X8538D01*
X9593Y7826D02*
X9613D01*
X9598D02*
X9513D01*
Y7746D02*
X9438D01*
X11138Y7861D02*
X11188D01*
X8638Y7761D02*
X8538D01*
X11048Y8091D02*
X11108D01*
X11053D02*
X11008D01*
X8638Y8081D02*
X8538D01*
X10693Y8126D02*
X10743D01*
X10733Y8251D02*
X11043D01*
X9613Y8181D02*
X9428D01*
X9413D02*
X9368D01*
X9323Y8216D02*
X9418D01*
X9573Y8121D02*
X9603D01*
Y8171D02*
X9568D01*
Y8161D02*
X9603D01*
Y8151D02*
X9568D01*
Y8136D02*
X9603D01*
X9583Y8231D02*
X9568D01*
X9598Y8181D02*
X9608D01*
Y8121D02*
X9633D01*
X9623Y8126D02*
X9613D01*
X11103Y8311D02*
X11178D01*
X11173D02*
X11188D01*
X8788Y8306D02*
X8538D01*
X10923Y8646D02*
X10988D01*
X8833Y8501D02*
X8788D01*
X10738Y8711D02*
X10848D01*
X10738D02*
X10638D01*
X9488D01*
X8538Y7761D02*
Y7691D01*
Y8081D02*
Y8281D01*
Y8276D02*
Y8306D01*
X8638Y7896D02*
Y7761D01*
Y7891D02*
Y8081D01*
X8838Y8331D02*
Y8401D01*
X8793Y7631D02*
Y7436D01*
Y7631D02*
Y7691D01*
X8788Y8306D02*
Y8501D01*
X9133Y8581D02*
Y8676D01*
X9313Y8256D02*
Y8216D01*
X9398Y7891D02*
Y7846D01*
X9513Y7826D02*
Y7821D01*
Y7746D01*
X9333Y8576D02*
Y8676D01*
X9513Y8251D02*
Y8216D01*
X9488Y8281D02*
Y8411D01*
Y8401D02*
Y8711D01*
X9413Y8181D02*
Y8176D01*
X9473Y8181D02*
Y8231D01*
Y8181D02*
Y8116D01*
X9513Y8251D02*
X9488Y8281D01*
X9718Y8001D02*
Y7826D01*
X9683Y7781D02*
Y7716D01*
Y7591D02*
Y7561D01*
X9568Y8121D02*
Y8181D01*
X9603D02*
Y8121D01*
Y8161D02*
Y8171D01*
X9568Y8161D02*
Y8151D01*
X9603D02*
Y8136D01*
X9568D02*
Y8186D01*
Y8231D01*
X9608Y8206D02*
Y8181D01*
X9598D02*
Y8211D01*
X9588Y8221D02*
Y8181D01*
X9633Y8166D02*
Y8121D01*
Y8166D02*
Y8181D01*
X9613Y8191D02*
Y8126D01*
X9623D02*
Y8181D01*
X9613Y7826D02*
X9638Y7801D01*
X9608Y8206D02*
X9583Y8231D01*
X9588Y8221D02*
X9598Y8211D01*
X9608Y8206D02*
X9633Y8181D01*
X9838Y8576D02*
Y8676D01*
X9763Y7561D02*
X9808Y7516D01*
X9938Y8356D02*
Y8451D01*
Y8326D02*
Y8251D01*
X10138Y8576D02*
Y8676D01*
X10338Y8431D02*
Y8336D01*
X10388Y8481D02*
Y8676D01*
Y8481D02*
X10338Y8431D01*
X10638Y8586D02*
Y8711D01*
X10538Y8676D02*
Y8581D01*
X10763Y8031D02*
Y7746D01*
X10828Y8096D02*
Y8126D01*
X10848Y8641D02*
Y8711D01*
X10738D02*
Y8586D01*
Y8316D02*
Y8251D01*
X10783Y7686D02*
Y7436D01*
X10798Y8066D02*
X10828Y8096D01*
X10763Y8106D02*
X10743Y8126D01*
X10823Y8131D02*
X10828Y8126D01*
X10823Y8131D02*
X10798Y8156D01*
X11048Y7746D02*
Y7686D01*
Y7746D02*
Y8031D01*
X11073Y7686D02*
Y7436D01*
X11043Y8251D02*
X11103Y8311D01*
X10978Y8131D02*
X11008Y8091D01*
X11188Y7911D02*
Y8311D01*
Y7916D02*
Y7531D01*
Y7541D02*
Y7436D01*
X11133Y8066D02*
X11108Y8091D01*
D23*
X9153Y7511D02*
X9103D01*
X9053Y7961D02*
X8873D01*
Y7666D02*
Y7601D01*
Y7821D02*
Y7961D01*
X9153Y7511D02*
Y7481D01*
D24*
X11093Y8221D02*
D03*
Y8121D02*
D03*
X11138Y7506D02*
D03*
X10978Y8136D02*
D03*
X10923Y8646D02*
D03*
X10738Y8251D02*
D03*
X10763Y8106D02*
D03*
X10568Y8091D02*
D03*
X10558Y8031D02*
D03*
X10618Y8456D02*
D03*
X10538Y8676D02*
D03*
X10388Y8281D02*
D03*
X10483Y8446D02*
D03*
X10438Y8451D02*
D03*
X10388Y8676D02*
D03*
X10383Y7726D02*
D03*
X10438Y7826D02*
D03*
X10363Y8091D02*
D03*
Y8031D02*
D03*
X10358Y7676D02*
D03*
X10368Y7856D02*
D03*
X10138Y8051D02*
D03*
Y8011D02*
D03*
X10118Y8216D02*
D03*
X10208Y8251D02*
D03*
X10243Y8451D02*
D03*
X10138Y8676D02*
D03*
Y7971D02*
D03*
X10153Y7516D02*
D03*
X10213Y7676D02*
D03*
X10078Y8086D02*
D03*
X9938Y8251D02*
D03*
Y8451D02*
D03*
X9998Y7516D02*
D03*
X10078Y7931D02*
D03*
X10013Y7651D02*
D03*
X9833Y8131D02*
D03*
X9843Y8221D02*
D03*
X9738Y8456D02*
D03*
X9838D02*
D03*
Y8676D02*
D03*
X9828Y7706D02*
D03*
X9768Y7776D02*
D03*
X9578Y8221D02*
D03*
X9593Y8131D02*
D03*
X9603Y8181D02*
D03*
X9568D02*
D03*
X9538D02*
D03*
X9573Y8451D02*
D03*
X9703D02*
D03*
X9668D02*
D03*
X9633D02*
D03*
X9588Y8676D02*
D03*
X9558Y7596D02*
D03*
Y7521D02*
D03*
X9643Y7551D02*
D03*
X9613Y7646D02*
D03*
X9573Y7641D02*
D03*
X9603Y7551D02*
D03*
X9533D02*
D03*
Y7641D02*
D03*
X9718Y7826D02*
D03*
Y8001D02*
D03*
X9473Y8141D02*
D03*
Y8181D02*
D03*
Y8216D02*
D03*
X9373Y8181D02*
D03*
X9508D02*
D03*
X9333Y8676D02*
D03*
X9488Y8326D02*
D03*
X9398Y8016D02*
D03*
Y7891D02*
D03*
X9488Y7641D02*
D03*
X9483Y7551D02*
D03*
X9263Y8056D02*
D03*
X9313Y8261D02*
D03*
X9153Y7481D02*
D03*
X9163Y7791D02*
D03*
X9173Y7661D02*
D03*
X9028Y8241D02*
D03*
Y8141D02*
D03*
X9033Y8451D02*
D03*
X9133Y8676D02*
D03*
X8833Y8501D02*
D03*
X8838Y8401D02*
D03*
X8833Y8066D02*
D03*
Y8216D02*
D03*
X8873Y7821D02*
D03*
Y7666D02*
D03*
X8703Y8081D02*
D03*
D29*
X8563Y8636D02*
D03*
X11083Y8666D02*
D03*
X11113Y7471D02*
D03*
D32*
X9718Y7511D02*
D03*
X9816D02*
D03*
X9915D02*
D03*
D34*
X9055Y7881D02*
D03*
Y7960D02*
D03*
D39*
X11139Y8162D02*
D03*
Y8262D02*
D03*
Y8362D02*
D03*
Y8462D02*
D03*
Y7862D02*
D03*
Y7962D02*
D03*
Y8062D02*
D03*
D40*
X10686Y8452D02*
D03*
X8886Y8452D02*
D03*
D44*
X10508Y7826D02*
D03*
Y7776D02*
D03*
Y7726D02*
D03*
Y7676D02*
D03*
X10288D02*
D03*
Y7726D02*
D03*
Y7776D02*
D03*
Y7826D02*
D03*
D48*
X10927Y8451D02*
D03*
Y7546D02*
D03*
X8644Y8451D02*
D03*
Y7546D02*
D03*
D50*
X9608Y7601D02*
D03*
X9683D02*
D03*
X9645D02*
D03*
X9608Y7701D02*
D03*
X9683D02*
D03*
D52*
X8888Y8216D02*
D03*
Y8191D02*
D03*
X8968D02*
D03*
Y8241D02*
D03*
X8888D02*
D03*
X9223Y7661D02*
D03*
Y7636D02*
D03*
X9303D02*
D03*
Y7686D02*
D03*
X9223D02*
D03*
D53*
X9473Y7831D02*
D03*
X9398D02*
D03*
X9436Y7744D02*
D03*
D54*
X8836Y8330D02*
D03*
X8936D02*
D03*
X9036D02*
D03*
X9136D02*
D03*
X9236D02*
D03*
X9336D02*
D03*
X9436D02*
D03*
X9536D02*
D03*
X9636D02*
D03*
X9736D02*
D03*
X9836D02*
D03*
X9936D02*
D03*
X10036D02*
D03*
X10136D02*
D03*
X10236D02*
D03*
X10336D02*
D03*
X10436D02*
D03*
X10536D02*
D03*
X10636D02*
D03*
X10736D02*
D03*
X8835Y8575D02*
D03*
X8936D02*
D03*
X9036D02*
D03*
X9135D02*
D03*
X9236D02*
D03*
X9335D02*
D03*
X9436D02*
D03*
X9536D02*
D03*
X9635D02*
D03*
X9736D02*
D03*
X9836D02*
D03*
X9936D02*
D03*
X10036D02*
D03*
X10136D02*
D03*
X10236D02*
D03*
X10336D02*
D03*
X10436D02*
D03*
X10536D02*
D03*
X10636D02*
D03*
X10736D02*
D03*
D58*
X9523Y8141D02*
D03*
Y8216D02*
D03*
X9423Y8179D02*
D03*
Y8141D02*
D03*
Y8216D02*
D03*
X9783Y8141D02*
D03*
Y8216D02*
D03*
X9683Y8179D02*
D03*
Y8141D02*
D03*
Y8216D02*
D03*
X9313Y7746D02*
D03*
Y7821D02*
D03*
X9213Y7784D02*
D03*
Y7746D02*
D03*
Y7821D02*
D03*
X9198Y8171D02*
D03*
Y8246D02*
D03*
X9098Y8209D02*
D03*
Y8171D02*
D03*
Y8246D02*
D03*
X8978Y8066D02*
D03*
Y8141D02*
D03*
X8878Y8104D02*
D03*
Y8066D02*
D03*
Y8141D02*
D03*
D59*
X8598Y8226D02*
D03*
Y8136D02*
D03*
X8688Y8226D02*
D03*
Y8136D02*
D03*
X8778Y8226D02*
D03*
Y8136D02*
D03*
X11138Y7656D02*
D03*
Y7566D02*
D03*
X9758Y7706D02*
D03*
Y7616D02*
D03*
X9848Y7851D02*
D03*
Y7761D02*
D03*
X9418Y7651D02*
D03*
Y7561D02*
D03*
X9313Y8201D02*
D03*
Y8111D02*
D03*
D60*
X10176Y7872D02*
D03*
X9959Y7872D02*
D03*
Y7746D02*
D03*
X10176D02*
D03*
D63*
X10693Y8201D02*
D03*
Y8126D02*
D03*
X10780Y8164D02*
D03*
X9893Y8216D02*
D03*
Y8141D02*
D03*
X9980Y8179D02*
D03*
D65*
X10251Y8051D02*
D03*
Y8032D02*
D03*
Y8012D02*
D03*
Y7992D02*
D03*
Y7973D02*
D03*
X10078D02*
D03*
X10078Y7992D02*
D03*
Y8012D02*
D03*
X10078Y8032D02*
D03*
X10078Y8051D02*
D03*
D67*
X10593Y8166D02*
D03*
X10503D02*
D03*
X10218Y8666D02*
D03*
X10308D02*
D03*
X9953D02*
D03*
X10043D02*
D03*
X10148Y7566D02*
D03*
X10058D02*
D03*
X10363D02*
D03*
X10273D02*
D03*
X10978Y8191D02*
D03*
X10888D02*
D03*
X10448Y7916D02*
D03*
X10358D02*
D03*
X10208Y8151D02*
D03*
X10118D02*
D03*
X9573Y7781D02*
D03*
X9663D02*
D03*
X9943Y7651D02*
D03*
X9853D02*
D03*
X9968Y7966D02*
D03*
X9878D02*
D03*
X9968Y8056D02*
D03*
X9878D02*
D03*
X9758D02*
D03*
X9668D02*
D03*
X9478Y8016D02*
D03*
X9568D02*
D03*
X9648Y7926D02*
D03*
X9558D02*
D03*
X9323Y7556D02*
D03*
X9233D02*
D03*
X9313Y7901D02*
D03*
X9223D02*
D03*
X9333Y7991D02*
D03*
X9243D02*
D03*
X9188Y8096D02*
D03*
X9098D02*
D03*
X9123Y7741D02*
D03*
X9033D02*
D03*
D68*
X11139Y8562D02*
D03*
X10848Y8641D02*
D03*
X10983D02*
D03*
D72*
X10643Y7799D02*
D03*
Y7956D02*
D03*
D73*
X9083Y7551D02*
D03*
X8878D02*
D03*
D76*
X11050Y7745D02*
D03*
X10763D02*
D03*
Y8033D02*
D03*
X11050Y8033D02*
D03*
D77*
X10155Y7467D02*
D03*
X10035D02*
D03*
X10383D02*
D03*
X10263D02*
D03*
M02*
