*%FSLAX23Y23*%
*%MOIN*%
G01*
%ADD11C,0.000*%
%ADD12C,0.001*%
%ADD13C,0.002*%
%ADD14C,0.004*%
%ADD15C,0.005*%
%ADD16C,0.006*%
%ADD17C,0.007*%
%ADD18C,0.007*%
%ADD19C,0.008*%
%ADD20C,0.010*%
%ADD21C,0.012*%
%ADD22C,0.015*%
%ADD23C,0.024*%
%ADD24C,0.025*%
%ADD25C,0.028*%
%ADD26C,0.029*%
%ADD27C,0.032*%
%ADD28C,0.035*%
%ADD29C,0.039*%
%ADD30C,0.040*%
%ADD31C,0.043*%
%ADD32C,0.047*%
%ADD33C,0.047*%
%ADD34C,0.047*%
%ADD35C,0.048*%
%ADD36C,0.051*%
%ADD37C,0.051*%
%ADD38C,0.052*%
%ADD39C,0.060*%
%ADD40C,0.062*%
%ADD41C,0.064*%
%ADD42C,0.066*%
%ADD43C,0.067*%
%ADD44O,0.080X0.024*%
%ADD45O,0.084X0.028*%
%ADD46C,0.115*%
%ADD47C,0.135*%
%ADD48C,0.236*%
%ADD49C,0.240*%
%ADD50R,0.023X0.050*%
%ADD51R,0.027X0.054*%
%ADD52R,0.037X0.014*%
%ADD53R,0.039X0.055*%
%ADD54R,0.040X0.083*%
%ADD55R,0.041X0.018*%
%ADD56R,0.043X0.059*%
%ADD57R,0.044X0.087*%
%ADD58R,0.050X0.023*%
%ADD59R,0.050X0.060*%
%ADD60R,0.051X0.075*%
%ADD61R,0.054X0.027*%
%ADD62R,0.054X0.064*%
%ADD63R,0.055X0.039*%
%ADD64R,0.055X0.079*%
%ADD65R,0.057X0.012*%
%ADD66R,0.059X0.043*%
%ADD67R,0.060X0.050*%
%ADD68R,0.060X0.060*%
%ADD69R,0.061X0.016*%
%ADD70R,0.064X0.054*%
%ADD71R,0.064X0.064*%
%ADD72R,0.070X0.098*%
%ADD73R,0.070X0.138*%
%ADD74R,0.074X0.102*%
%ADD75R,0.074X0.142*%
%ADD76R,0.079X0.079*%
%ADD77R,0.080X0.040*%
%ADD78R,0.083X0.083*%
%ADD79R,0.084X0.044*%
D14*
X9411Y8686D02*
X9411Y8683D01*
X9410Y8679D01*
X9409Y8676D01*
X9407Y8673D01*
X9405Y8670D01*
X9402Y8668D01*
X9400Y8666D01*
X9396Y8665D01*
X9393Y8664D01*
X9390Y8663D01*
X9386D01*
X9383Y8664D01*
X9380Y8665D01*
X9376Y8666D01*
X9374Y8668D01*
X9371Y8670D01*
X9369Y8673D01*
X9367Y8676D01*
X9366Y8679D01*
X9365Y8683D01*
X9365Y8686D01*
X9365Y8689D01*
X9366Y8693D01*
X9367Y8696D01*
X9369Y8699D01*
X9371Y8702D01*
X9374Y8704D01*
X9376Y8706D01*
X9380Y8707D01*
X9383Y8708D01*
X9386Y8709D01*
X9390D01*
X9393Y8708D01*
X9396Y8707D01*
X9400Y8706D01*
X9402Y8704D01*
X9405Y8702D01*
X9407Y8699D01*
X9409Y8696D01*
X9410Y8693D01*
X9411Y8689D01*
X9411Y8686D01*
X9411Y8683D01*
X9410Y8679D01*
X9409Y8676D01*
X9407Y8673D01*
X9405Y8670D01*
X9402Y8668D01*
X9400Y8666D01*
X9396Y8665D01*
X9393Y8664D01*
X9390Y8663D01*
X9386D01*
X9383Y8664D01*
X9380Y8665D01*
X9376Y8666D01*
X9374Y8668D01*
X9371Y8670D01*
X9369Y8673D01*
X9367Y8676D01*
X9366Y8679D01*
X9365Y8683D01*
X9365Y8686D01*
X9365Y8689D01*
X9366Y8693D01*
X9367Y8696D01*
X9369Y8699D01*
X9371Y8702D01*
X9374Y8704D01*
X9376Y8706D01*
X9380Y8707D01*
X9383Y8708D01*
X9386Y8709D01*
X9390D01*
X9393Y8708D01*
X9396Y8707D01*
X9400Y8706D01*
X9402Y8704D01*
X9405Y8702D01*
X9407Y8699D01*
X9409Y8696D01*
X9410Y8693D01*
X9411Y8689D01*
X9411Y8686D01*
D16*
X9433Y8671D02*
X9456D01*
X9433D02*
X9456Y8694D01*
Y8700D01*
X9450Y8706D01*
X9439D01*
X9433Y8700D01*
X9468D02*
X9474Y8706D01*
X9485D01*
X9491Y8700D01*
Y8677D01*
X9485Y8671D01*
X9474D01*
X9468Y8677D01*
Y8700D01*
X9503Y8671D02*
X9515D01*
X9509D01*
Y8706D01*
X9510D01*
X9509D02*
X9503Y8700D01*
X9532Y8677D02*
X9538Y8671D01*
X9550D01*
X9555Y8677D01*
Y8700D01*
X9550Y8706D01*
X9538D01*
X9532Y8700D01*
Y8694D01*
X9538Y8688D01*
X9555D01*
X11158Y7820D02*
X11164Y7826D01*
X11175D01*
X11181Y7820D01*
Y7814D01*
X11175Y7808D01*
X11181Y7803D01*
Y7797D01*
X11175Y7791D01*
X11164D01*
X11158Y7797D01*
Y7803D01*
X11164Y7808D01*
X11158Y7814D01*
Y7820D01*
X11164Y7808D02*
X11175D01*
X10820Y8311D02*
X10808D01*
X10814D02*
X10820D01*
X10814D02*
Y8346D01*
X10815D01*
X10814D02*
X10808Y8340D01*
X8553Y8676D02*
Y8721D01*
Y8691D02*
Y8676D01*
Y8691D02*
X8583Y8721D01*
X8560Y8698D01*
X8583Y8676D01*
X8605D02*
X8620D01*
X8605D02*
X8598Y8683D01*
Y8698D01*
X8605Y8706D01*
X8620D01*
X8628Y8698D01*
Y8691D01*
X8598D01*
X8643Y8676D02*
X8658D01*
X8650D01*
Y8721D01*
X8643D01*
X8680Y8676D02*
X8695D01*
X8688D01*
Y8721D01*
X8680D01*
X8718Y8706D02*
Y8683D01*
X8725Y8676D01*
X8748D01*
Y8669D01*
X8740Y8661D01*
X8733D01*
X8748Y8676D02*
Y8706D01*
X8808Y8721D02*
Y8676D01*
X8830D01*
X8838Y8683D01*
Y8713D01*
X8830Y8721D01*
X8808D01*
X8860Y8676D02*
X8875D01*
X8860D02*
X8853Y8683D01*
Y8698D01*
X8860Y8706D01*
X8875D01*
X8883Y8698D01*
Y8691D01*
X8853D01*
X8898Y8676D02*
X8920D01*
X8928Y8683D01*
X8920Y8691D01*
X8905D01*
X8898Y8698D01*
X8905Y8706D01*
X8928D01*
X8943Y8676D02*
X8958D01*
X8950D01*
Y8706D01*
X8943D01*
X8950Y8721D02*
X8951D01*
X8995Y8661D02*
X9003D01*
X9010Y8669D01*
Y8706D01*
X8988D01*
X8980Y8698D01*
Y8683D01*
X8988Y8676D01*
X9010D01*
X9025D02*
Y8706D01*
X9048D01*
X9055Y8698D01*
Y8676D01*
X9070D02*
X9093D01*
X9100Y8683D01*
X9093Y8691D01*
X9078D01*
X9070Y8698D01*
X9078Y8706D01*
X9100D01*
X8723Y8602D02*
Y8567D01*
X8706Y8584D02*
X8723Y8602D01*
X8729Y8584D02*
X8706D01*
X8741Y8596D02*
X8747Y8602D01*
X8758D01*
X8764Y8596D01*
Y8573D01*
X8758Y8567D01*
X8747D01*
X8741Y8573D01*
Y8596D01*
X8717Y8352D02*
X8711Y8346D01*
X8717Y8352D02*
X8728D01*
X8734Y8346D01*
Y8340D01*
X8735D01*
X8734D02*
X8735D01*
X8734D02*
X8735D01*
X8734D02*
X8728Y8334D01*
X8723D01*
X8728D01*
X8734Y8329D01*
Y8323D01*
X8728Y8317D01*
X8717D01*
X8711Y8323D01*
X8746D02*
X8752Y8317D01*
X8763D01*
X8769Y8323D01*
Y8346D01*
X8763Y8352D01*
X8752D01*
X8746Y8346D01*
Y8340D01*
X8752Y8334D01*
X8769D01*
X10801Y8532D02*
X10824D01*
X10801D02*
X10824Y8555D01*
Y8561D01*
X10818Y8567D01*
X10807D01*
X10801Y8561D01*
X11158Y8606D02*
X11170D01*
X11164D01*
Y8641D01*
X11165D01*
X11164D02*
X11158Y8635D01*
X8553Y8326D02*
Y8291D01*
Y8326D02*
X8570D01*
X8576Y8320D01*
Y8308D01*
X8570Y8303D01*
X8553D01*
X8565D02*
X8576Y8291D01*
X8588D02*
X8600D01*
X8594D01*
Y8326D01*
X8595D01*
X8594D02*
X8588Y8320D01*
X8617Y8291D02*
X8640D01*
X8617D02*
X8640Y8314D01*
Y8320D01*
X8635Y8326D01*
X8623D01*
X8617Y8320D01*
X8618Y8076D02*
Y8041D01*
Y8076D02*
X8635D01*
X8641Y8070D01*
Y8058D01*
X8635Y8053D01*
X8618D01*
X8630D02*
X8641Y8041D01*
X8653D02*
X8665D01*
X8659D01*
Y8076D01*
X8660D01*
X8659D02*
X8653Y8070D01*
X8682Y8041D02*
X8694D01*
X8688D01*
Y8076D01*
X8689D01*
X8688D02*
X8682Y8070D01*
X8728Y8076D02*
Y8041D01*
Y8076D02*
X8745D01*
X8751Y8070D01*
Y8058D01*
X8745Y8053D01*
X8728D01*
X8740D02*
X8751Y8041D01*
X8763D02*
X8775D01*
X8769D01*
Y8076D01*
X8770D01*
X8769D02*
X8763Y8070D01*
X8792D02*
X8798Y8076D01*
X8810D01*
X8815Y8070D01*
Y8047D01*
X8810Y8041D01*
X8798D01*
X8792Y8047D01*
Y8070D01*
X8868Y8266D02*
X8897D01*
X8903Y8272D01*
Y8283D01*
X8897Y8289D01*
X8868D01*
Y8301D02*
Y8324D01*
Y8301D02*
X8886D01*
X8880Y8313D01*
Y8318D01*
X8886Y8324D01*
X8897D01*
X8903Y8318D01*
Y8307D01*
X8897Y8301D01*
X10503Y8261D02*
Y8226D01*
Y8261D02*
X10520D01*
X10526Y8255D01*
Y8243D01*
X10520Y8238D01*
X10503D01*
X10515D02*
X10526Y8226D01*
X10538D02*
X10550D01*
X10544D01*
Y8261D01*
X10545D01*
X10544D02*
X10538Y8255D01*
X10567Y8261D02*
X10590D01*
X10567D02*
Y8243D01*
X10579Y8249D01*
X10585D01*
X10590Y8243D01*
Y8232D01*
X10585Y8226D01*
X10573D01*
X10567Y8232D01*
X10733Y8653D02*
Y8676D01*
Y8653D02*
X10745Y8641D01*
X10756Y8653D01*
Y8676D01*
X10768Y8641D02*
X10780D01*
X10774D01*
Y8676D01*
X10775D01*
X10774D02*
X10768Y8670D01*
X10431Y8705D02*
X10425Y8711D01*
X10414D01*
X10408Y8705D01*
Y8682D01*
X10414Y8676D01*
X10425D01*
X10431Y8682D01*
X10443Y8705D02*
X10449Y8711D01*
X10460D01*
X10466Y8705D01*
Y8699D01*
X10467D01*
X10466D02*
X10467D01*
X10466D02*
X10467D01*
X10466D02*
X10460Y8693D01*
X10455D01*
X10460D01*
X10466Y8688D01*
Y8682D01*
X10460Y8676D01*
X10449D01*
X10443Y8682D01*
X9781Y8705D02*
X9775Y8711D01*
X9764D01*
X9758Y8705D01*
Y8682D01*
X9764Y8676D01*
X9775D01*
X9781Y8682D01*
X9793Y8676D02*
X9816D01*
X9793D02*
X9816Y8699D01*
Y8705D01*
X9810Y8711D01*
X9799D01*
X9793Y8705D01*
X9890Y7596D02*
X9896Y7590D01*
X9890Y7596D02*
X9879D01*
X9873Y7590D01*
Y7584D01*
X9879Y7578D01*
X9890D01*
X9896Y7573D01*
Y7567D01*
X9890Y7561D01*
X9879D01*
X9873Y7567D01*
X9908Y7561D02*
Y7596D01*
X9920Y7573D02*
X9908Y7561D01*
X9920Y7573D02*
X9931Y7561D01*
Y7596D01*
X9943Y7561D02*
X9955D01*
X9949D01*
Y7596D01*
X9950D01*
X9949D02*
X9943Y7590D01*
X10453Y7496D02*
Y7461D01*
X10470D01*
X10476Y7467D01*
Y7490D01*
X10470Y7496D01*
X10453D01*
X10488Y7461D02*
X10500D01*
X10494D01*
Y7496D01*
X10495D01*
X10494D02*
X10488Y7490D01*
X10128Y7626D02*
Y7661D01*
X10145D01*
X10151Y7655D01*
Y7643D01*
X10145Y7638D01*
X10128D01*
X10140D02*
X10151Y7626D01*
X10180D02*
Y7661D01*
X10163Y7643D01*
X10186D01*
X10433Y7591D02*
Y7556D01*
Y7591D02*
X10450D01*
X10456Y7585D01*
Y7573D01*
X10450Y7568D01*
X10433D01*
X10445D02*
X10456Y7556D01*
X10468D02*
X10480D01*
X10474D01*
Y7591D01*
X10475D01*
X10474D02*
X10468Y7585D01*
X10515Y7591D02*
Y7556D01*
X10497Y7573D02*
X10515Y7591D01*
X10520Y7573D02*
X10497D01*
X10528Y7496D02*
Y7461D01*
X10545D01*
X10551Y7467D01*
Y7490D01*
X10545Y7496D01*
X10528D01*
X10563Y7461D02*
X10586D01*
X10563D02*
X10586Y7484D01*
Y7490D01*
X10580Y7496D01*
X10569D01*
X10563Y7490D01*
X11108Y7743D02*
X11114Y7749D01*
X11108Y7743D02*
Y7732D01*
X11114Y7726D01*
X11137D01*
X11143Y7732D01*
Y7743D01*
X11137Y7749D01*
X11143Y7761D02*
Y7773D01*
Y7767D01*
X11108D01*
X11109D01*
X11108D02*
X11114Y7761D01*
Y7790D02*
X11108Y7796D01*
Y7808D01*
X11114Y7813D01*
X11120D01*
X11121D01*
X11120D02*
X11121D01*
X11120D02*
X11121D01*
X11120D02*
X11126Y7808D01*
Y7802D01*
Y7808D01*
X11131Y7813D01*
X11137D01*
X11143Y7808D01*
Y7796D01*
X11137Y7790D01*
X10886Y8110D02*
X10880Y8116D01*
X10869D01*
X10863Y8110D01*
Y8104D01*
X10869Y8098D01*
X10880D01*
X10886Y8093D01*
Y8087D01*
X10880Y8081D01*
X10869D01*
X10863Y8087D01*
X10898Y8081D02*
Y8116D01*
X10915D01*
X10921Y8110D01*
Y8098D01*
X10915Y8093D01*
X10898D01*
X10933Y8081D02*
Y8116D01*
Y8093D02*
Y8081D01*
Y8093D02*
X10956Y8116D01*
X10939Y8098D01*
X10956Y8081D01*
X11065Y8196D02*
X11071Y8190D01*
X11065Y8196D02*
X11054D01*
X11048Y8190D01*
Y8167D01*
X11054Y8161D01*
X11065D01*
X11071Y8167D01*
X11083Y8161D02*
X11095D01*
X11089D01*
Y8196D01*
X11090D01*
X11089D02*
X11083Y8190D01*
X8781Y8651D02*
X8770D01*
X8775D01*
Y8622D01*
X8770Y8616D01*
X8764D01*
X8758Y8622D01*
X8793Y8616D02*
X8805D01*
X8799D01*
Y8651D01*
X8800D01*
X8799D02*
X8793Y8645D01*
X10681Y8265D02*
Y8242D01*
Y8265D02*
X10675Y8271D01*
X10664D01*
X10658Y8265D01*
Y8242D01*
X10664Y8236D01*
X10675D01*
X10681D02*
X10670Y8248D01*
X10675Y8236D02*
X10681Y8242D01*
X10693Y8265D02*
X10699Y8271D01*
X10710D01*
X10716Y8265D01*
Y8259D01*
X10717D01*
X10716D02*
X10717D01*
X10716D02*
X10717D01*
X10716D02*
X10710Y8253D01*
X10705D01*
X10710D01*
X10716Y8248D01*
Y8242D01*
X10710Y8236D01*
X10699D01*
X10693Y8242D01*
X10613Y7686D02*
Y7651D01*
X10630D01*
X10636Y7657D01*
Y7680D01*
X10630Y7686D01*
X10613D01*
X10648Y7680D02*
X10654Y7686D01*
X10665D01*
X10671Y7680D01*
Y7674D01*
X10672D01*
X10671D02*
X10672D01*
X10671D02*
X10672D01*
X10671D02*
X10665Y7668D01*
X10660D01*
X10665D01*
X10671Y7663D01*
Y7657D01*
X10665Y7651D01*
X10654D01*
X10648Y7657D01*
X10421Y8005D02*
X10415Y8011D01*
X10404D01*
X10398Y8005D01*
Y7982D01*
X10404Y7976D01*
X10415D01*
X10421Y7982D01*
X10433Y7976D02*
X10445D01*
X10439D01*
Y8011D01*
X10440D01*
X10439D02*
X10433Y8005D01*
X10462Y7976D02*
X10485D01*
X10462D02*
X10485Y7999D01*
Y8005D01*
X10480Y8011D01*
X10468D01*
X10462Y8005D01*
X10468Y7651D02*
Y7622D01*
X10474Y7616D01*
X10485D01*
X10491Y7622D01*
Y7651D01*
X10503Y7616D02*
X10515D01*
X10509D01*
Y7651D01*
X10510D01*
X10509D02*
X10503Y7645D01*
X10532Y7616D02*
X10544D01*
X10538D01*
Y7651D01*
X10539D01*
X10538D02*
X10532Y7645D01*
X10208Y7902D02*
Y7931D01*
Y7902D02*
X10214Y7896D01*
X10225D01*
X10231Y7902D01*
Y7931D01*
X10243Y7896D02*
X10255D01*
X10249D01*
Y7931D01*
X10250D01*
X10249D02*
X10243Y7925D01*
X10272D02*
X10278Y7931D01*
X10290D01*
X10295Y7925D01*
Y7902D01*
X10290Y7896D01*
X10278D01*
X10272Y7902D01*
Y7925D01*
X10273Y8072D02*
Y8101D01*
Y8072D02*
X10279Y8066D01*
X10290D01*
X10296Y8072D01*
Y8101D01*
X10308Y8095D02*
X10314Y8101D01*
X10325D01*
X10331Y8095D01*
Y8089D01*
X10332D01*
X10331D02*
X10332D01*
X10331D02*
X10332D01*
X10331D02*
X10325Y8083D01*
X10320D01*
X10325D01*
X10331Y8078D01*
Y8072D01*
X10325Y8066D01*
X10314D01*
X10308Y8072D01*
X10261Y8240D02*
X10255Y8246D01*
X10244D01*
X10238Y8240D01*
Y8217D01*
X10244Y8211D01*
X10255D01*
X10261Y8217D01*
X10273Y8240D02*
X10279Y8246D01*
X10290D01*
X10296Y8240D01*
Y8234D01*
X10290Y8228D01*
X10296Y8223D01*
Y8217D01*
X10290Y8211D01*
X10279D01*
X10273Y8217D01*
Y8223D01*
X10279Y8228D01*
X10273Y8234D01*
Y8240D01*
X10279Y8228D02*
X10290D01*
X10021Y8222D02*
Y8245D01*
X10015Y8251D01*
X10004D01*
X9998Y8245D01*
Y8222D01*
X10004Y8216D01*
X10015D01*
X10021D02*
X10010Y8228D01*
X10015Y8216D02*
X10021Y8222D01*
X10033Y8216D02*
X10056D01*
X10033D02*
X10056Y8239D01*
Y8245D01*
X10050Y8251D01*
X10039D01*
X10033Y8245D01*
X9448Y8247D02*
Y8276D01*
Y8247D02*
X9454Y8241D01*
X9465D01*
X9471Y8247D01*
Y8276D01*
X9495Y8270D02*
X9506Y8276D01*
X9495Y8270D02*
X9483Y8258D01*
Y8247D01*
X9489Y8241D01*
X9500D01*
X9506Y8247D01*
Y8253D01*
X9500Y8258D01*
X9483D01*
X9610Y7871D02*
X9616Y7865D01*
X9610Y7871D02*
X9599D01*
X9593Y7865D01*
Y7842D01*
X9599Y7836D01*
X9610D01*
X9616Y7842D01*
X9640Y7865D02*
X9651Y7871D01*
X9640Y7865D02*
X9628Y7853D01*
Y7842D01*
X9634Y7836D01*
X9645D01*
X9651Y7842D01*
Y7848D01*
X9645Y7853D01*
X9628D01*
X9588Y7536D02*
Y7507D01*
X9594Y7501D01*
X9605D01*
X9611Y7507D01*
Y7536D01*
X9623Y7501D02*
X9635D01*
X9629D01*
Y7536D01*
X9630D01*
X9629D02*
X9623Y7530D01*
X9761Y7825D02*
X9755Y7831D01*
X9744D01*
X9738Y7825D01*
Y7802D01*
X9744Y7796D01*
X9755D01*
X9761Y7802D01*
X9773Y7831D02*
X9796D01*
Y7825D01*
X9773Y7802D01*
Y7796D01*
X10008Y7711D02*
Y7676D01*
Y7711D02*
X10025D01*
X10031Y7705D01*
Y7693D01*
X10025Y7688D01*
X10008D01*
X10020D02*
X10031Y7676D01*
X10043Y7711D02*
X10066D01*
X10043D02*
Y7693D01*
X10055Y7699D01*
X10060D01*
X10066Y7693D01*
Y7682D01*
X10060Y7676D01*
X10049D01*
X10043Y7682D01*
X9728Y7851D02*
Y7886D01*
X9745D01*
X9751Y7880D01*
Y7868D01*
X9745Y7863D01*
X9728D01*
X9740D02*
X9751Y7851D01*
X9763Y7857D02*
X9769Y7851D01*
X9780D01*
X9786Y7857D01*
Y7880D01*
X9780Y7886D01*
X9769D01*
X9763Y7880D01*
Y7874D01*
X9769Y7868D01*
X9786D01*
X9753Y7941D02*
Y7976D01*
X9770D01*
X9776Y7970D01*
Y7958D01*
X9770Y7953D01*
X9753D01*
X9765D02*
X9776Y7941D01*
X9788Y7970D02*
X9794Y7976D01*
X9805D01*
X9811Y7970D01*
Y7964D01*
X9805Y7958D01*
X9811Y7953D01*
Y7947D01*
X9805Y7941D01*
X9794D01*
X9788Y7947D01*
Y7953D01*
X9794Y7958D01*
X9788Y7964D01*
Y7970D01*
X9794Y7958D02*
X9805D01*
X9993Y8116D02*
Y8151D01*
X10010D01*
X10016Y8145D01*
Y8133D01*
X10010Y8128D01*
X9993D01*
X10005D02*
X10016Y8116D01*
X10028Y8151D02*
X10051D01*
Y8145D01*
X10028Y8122D01*
Y8116D01*
X9703Y8252D02*
Y8281D01*
Y8252D02*
X9709Y8246D01*
X9720D01*
X9726Y8252D01*
Y8281D01*
X9755D02*
Y8246D01*
X9738Y8263D02*
X9755Y8281D01*
X9761Y8263D02*
X9738D01*
X9788Y8246D02*
Y8281D01*
X9805D01*
X9811Y8275D01*
Y8263D01*
X9805Y8258D01*
X9788D01*
X9800D02*
X9811Y8246D01*
X9835Y8275D02*
X9846Y8281D01*
X9835Y8275D02*
X9823Y8263D01*
Y8252D01*
X9829Y8246D01*
X9840D01*
X9846Y8252D01*
Y8258D01*
X9840Y8263D01*
X9823D01*
X9516Y8105D02*
X9510Y8111D01*
X9499D01*
X9493Y8105D01*
Y8082D01*
X9499Y8076D01*
X9510D01*
X9516Y8082D01*
X9528Y8076D02*
X9540D01*
X9534D01*
Y8111D01*
X9535D01*
X9534D02*
X9528Y8105D01*
X9557Y8076D02*
X9569D01*
X9563D01*
Y8111D01*
X9564D01*
X9563D02*
X9557Y8105D01*
X9713Y7931D02*
Y7896D01*
Y7931D02*
X9730D01*
X9736Y7925D01*
Y7913D01*
X9730Y7908D01*
X9713D01*
X9725D02*
X9736Y7896D01*
X9748Y7925D02*
X9754Y7931D01*
X9765D01*
X9771Y7925D01*
Y7919D01*
X9772D01*
X9771D02*
X9772D01*
X9771D02*
X9772D01*
X9771D02*
X9765Y7913D01*
X9760D01*
X9765D01*
X9771Y7908D01*
Y7902D01*
X9765Y7896D01*
X9754D01*
X9748Y7902D01*
X9496Y7725D02*
Y7702D01*
Y7725D02*
X9490Y7731D01*
X9479D01*
X9473Y7725D01*
Y7702D01*
X9479Y7696D01*
X9490D01*
X9496D02*
X9485Y7708D01*
X9490Y7696D02*
X9496Y7702D01*
X9508Y7696D02*
X9520D01*
X9514D01*
Y7731D01*
X9515D01*
X9514D02*
X9508Y7725D01*
X9118Y7817D02*
Y7846D01*
Y7817D02*
X9124Y7811D01*
X9135D01*
X9141Y7817D01*
Y7846D01*
X9153Y7817D02*
X9159Y7811D01*
X9170D01*
X9176Y7817D01*
Y7840D01*
X9170Y7846D01*
X9159D01*
X9153Y7840D01*
Y7834D01*
X9159Y7828D01*
X9176D01*
X9410Y7491D02*
X9416Y7485D01*
X9410Y7491D02*
X9399D01*
X9393Y7485D01*
Y7462D01*
X9399Y7456D01*
X9410D01*
X9416Y7462D01*
X9428Y7491D02*
X9451D01*
X9428D02*
Y7473D01*
X9440Y7479D01*
X9445D01*
X9451Y7473D01*
Y7462D01*
X9445Y7456D01*
X9434D01*
X9428Y7462D01*
X9276Y7485D02*
X9270Y7491D01*
X9259D01*
X9253Y7485D01*
Y7462D01*
X9259Y7456D01*
X9270D01*
X9276Y7462D01*
X9305Y7456D02*
Y7491D01*
X9288Y7473D01*
X9311D01*
X9308Y7702D02*
Y7731D01*
Y7702D02*
X9314Y7696D01*
X9325D01*
X9331Y7702D01*
Y7731D01*
X9343Y7696D02*
X9366D01*
X9343D02*
X9366Y7719D01*
Y7725D01*
X9360Y7731D01*
X9349D01*
X9343Y7725D01*
X9118Y7891D02*
Y7926D01*
X9135D01*
X9141Y7920D01*
Y7908D01*
X9135Y7903D01*
X9118D01*
X9130D02*
X9141Y7891D01*
X9153D02*
X9165D01*
X9159D01*
Y7926D01*
X9160D01*
X9159D02*
X9153Y7920D01*
X9398Y7921D02*
Y7956D01*
X9415D01*
X9421Y7950D01*
Y7938D01*
X9415Y7933D01*
X9398D01*
X9410D02*
X9421Y7921D01*
X9433D02*
X9445D01*
X9439D01*
Y7956D01*
X9440D01*
X9439D02*
X9433Y7950D01*
X9462D02*
X9468Y7956D01*
X9480D01*
X9485Y7950D01*
Y7944D01*
X9486D01*
X9485D02*
X9486D01*
X9485D02*
X9486D01*
X9485D02*
X9480Y7938D01*
X9474D01*
X9480D01*
X9485Y7933D01*
Y7927D01*
X9480Y7921D01*
X9468D01*
X9462Y7927D01*
X9268Y8283D02*
X9274Y8289D01*
X9268Y8283D02*
Y8272D01*
X9274Y8266D01*
X9297D01*
X9303Y8272D01*
Y8283D01*
X9297Y8289D01*
X9303Y8301D02*
Y8313D01*
Y8307D01*
X9268D01*
X9269D01*
X9268D02*
X9274Y8301D01*
Y8330D02*
X9268Y8336D01*
Y8348D01*
X9274Y8353D01*
X9297D01*
X9303Y8348D01*
Y8336D01*
X9297Y8330D01*
X9274D01*
X9097Y8271D02*
X9068D01*
X9097D02*
X9103Y8277D01*
Y8288D01*
X9097Y8294D01*
X9068D01*
X9074Y8306D02*
X9068Y8312D01*
Y8323D01*
X9074Y8329D01*
X9080D01*
X9086Y8323D01*
X9091Y8329D01*
X9097D01*
X9103Y8323D01*
Y8312D01*
X9097Y8306D01*
X9091D01*
X9086Y8312D01*
X9080Y8306D01*
X9074D01*
X9086Y8312D02*
Y8323D01*
X9140Y8036D02*
X9146Y8030D01*
X9140Y8036D02*
X9129D01*
X9123Y8030D01*
Y8007D01*
X9129Y8001D01*
X9140D01*
X9146Y8007D01*
X9158D02*
X9164Y8001D01*
X9175D01*
X9181Y8007D01*
Y8030D01*
X9175Y8036D01*
X9164D01*
X9158Y8030D01*
Y8024D01*
X9164Y8018D01*
X9181D01*
X9032Y8071D02*
X9003D01*
X9032D02*
X9038Y8077D01*
Y8088D01*
X9032Y8094D01*
X9003D01*
Y8106D02*
Y8129D01*
X9009D01*
X9032Y8106D01*
X9038D01*
X8826Y7786D02*
X8815D01*
X8820D01*
Y7757D01*
X8815Y7751D01*
X8809D01*
X8803Y7757D01*
X8838Y7751D02*
X8861D01*
X8838D02*
X8861Y7774D01*
Y7780D01*
X8855Y7786D01*
X8844D01*
X8838Y7780D01*
X8903Y7756D02*
Y7721D01*
Y7756D02*
X8920D01*
X8926Y7750D01*
Y7738D01*
X8920Y7733D01*
X8903D01*
X8915D02*
X8926Y7721D01*
X8938D02*
X8961D01*
X8938D02*
X8961Y7744D01*
Y7750D01*
X8955Y7756D01*
X8944D01*
X8938Y7750D01*
X8958Y7676D02*
X8981D01*
X8958D02*
Y7658D01*
X8970D01*
X8958D01*
Y7641D01*
X8993D02*
X9005D01*
X8999D01*
Y7676D01*
X9000D01*
X8999D02*
X8993Y7670D01*
D20*
X9748Y7761D02*
Y7786D01*
X9813Y8101D02*
Y8236D01*
X8668Y8011D02*
X8628D01*
X8648Y8031D02*
Y7991D01*
X8628Y7826D02*
X8668D01*
X9382Y8696D02*
X9397D01*
X9382D02*
X9377Y8691D01*
Y8681D01*
X9382Y8676D01*
X9397D01*
X9895Y7408D02*
Y7333D01*
X9737D02*
Y7408D01*
X9649Y7411D02*
Y7546D01*
X9984D02*
Y7411D01*
X9895Y7333D02*
X9737D01*
X9649Y7411D02*
X9984D01*
Y7546D02*
X9649D01*
X10062Y7397D02*
X10062Y7394D01*
X10063Y7390D01*
X10063Y7387D01*
X10065Y7384D01*
X10066Y7381D01*
X10068Y7378D01*
X10070Y7375D01*
X10073Y7373D01*
X10075Y7371D01*
X10078Y7369D01*
X10081Y7367D01*
X10085Y7366D01*
X10088Y7365D01*
X10091Y7364D01*
X10095Y7364D01*
X10098Y7364D01*
X10102Y7365D01*
X10105Y7366D01*
X10108Y7367D01*
X10111Y7369D01*
X10114Y7371D01*
X10117Y7373D01*
X10119Y7375D01*
X10122Y7378D01*
X10123Y7381D01*
X10125Y7384D01*
X10126Y7387D01*
X10127Y7390D01*
X10128Y7394D01*
X10128Y7397D01*
X10155Y7407D02*
Y7437D01*
X10035D02*
Y7407D01*
X10205Y7447D02*
Y7487D01*
X10062Y7407D02*
Y7392D01*
X10128Y7397D02*
Y7407D01*
X10155D02*
X10035D01*
X10080Y7467D02*
X10110D01*
X10290Y7397D02*
X10290Y7394D01*
X10291Y7390D01*
X10292Y7387D01*
X10293Y7384D01*
X10295Y7381D01*
X10296Y7378D01*
X10299Y7375D01*
X10301Y7373D01*
X10304Y7371D01*
X10307Y7369D01*
X10310Y7367D01*
X10313Y7366D01*
X10316Y7365D01*
X10320Y7364D01*
X10323Y7364D01*
X10327Y7364D01*
X10330Y7365D01*
X10333Y7366D01*
X10337Y7367D01*
X10340Y7369D01*
X10343Y7371D01*
X10345Y7373D01*
X10348Y7375D01*
X10350Y7378D01*
X10352Y7381D01*
X10353Y7384D01*
X10355Y7387D01*
X10355Y7390D01*
X10356Y7394D01*
X10356Y7397D01*
X10383Y7407D02*
Y7437D01*
X10263D02*
Y7407D01*
X10433Y7447D02*
Y7487D01*
X10290Y7407D02*
Y7392D01*
X10356Y7397D02*
Y7407D01*
X10383D02*
X10263D01*
X10308Y7467D02*
X10338D01*
X10703Y7501D02*
Y7581D01*
Y7501D02*
X10663D01*
X10703Y7541D02*
X10743Y7501D01*
X10703Y7541D02*
X10743Y7581D01*
X11028Y8111D02*
X11068D01*
X11048Y8091D02*
Y8131D01*
X10735Y7986D02*
Y7793D01*
X11078D02*
Y7986D01*
X11003Y8060D02*
X10810D01*
Y7718D02*
X11003D01*
X8786Y8330D02*
Y8575D01*
X10786D02*
Y8330D01*
X8806D02*
X8786D01*
Y8575D02*
X8806D01*
X10766D02*
X10786D01*
Y8330D02*
X10766D01*
X10700Y8026D02*
Y7925D01*
X10586D02*
Y8026D01*
Y7830D02*
Y7731D01*
X10700D02*
Y7829D01*
Y8026D02*
X10586D01*
Y7731D02*
X10700D01*
X10678Y7711D02*
X10608D01*
X10423Y7851D02*
X10423Y7848D01*
X10422Y7845D01*
X10421Y7841D01*
X10420Y7838D01*
X10418Y7836D01*
X10416Y7833D01*
X10413Y7831D01*
X10410Y7829D01*
X10408Y7828D01*
X10404Y7827D01*
X10401Y7826D01*
X10398Y7826D01*
X10395Y7826D01*
X10392Y7827D01*
X10388Y7828D01*
X10386Y7829D01*
X10383Y7831D01*
X10380Y7833D01*
X10378Y7836D01*
X10376Y7838D01*
X10375Y7841D01*
X10374Y7845D01*
X10373Y7848D01*
X10373Y7851D01*
X10348D02*
Y7651D01*
X10448D02*
Y7851D01*
Y7651D02*
X10348D01*
X10423Y7851D02*
X10448D01*
X10373D02*
X10348D01*
X10218Y7881D02*
Y7736D01*
X9918D02*
Y7881D01*
X10238Y7871D02*
Y7746D01*
X10218Y7736D02*
X10208D01*
Y7881D02*
X10218D01*
X10143D02*
X9993D01*
Y7736D02*
X10143D01*
X9928D02*
X9918D01*
Y7881D02*
X9928D01*
X10103Y8091D02*
X10111D01*
Y8083D01*
X10103D01*
Y8091D01*
X10113Y7961D02*
X10218D01*
Y8066D02*
X10113D01*
X9108Y8036D02*
X8814Y8036D01*
X9108Y8036D02*
Y7804D01*
X8815D01*
D21*
X8553Y8201D02*
Y8276D01*
X8643D02*
Y8201D01*
Y8161D02*
Y8086D01*
X8553D02*
Y8161D01*
Y8276D02*
X8643D01*
Y8086D02*
X8553D01*
X8643Y8201D02*
Y8276D01*
X8733D02*
Y8201D01*
Y8161D02*
Y8086D01*
X8643D02*
Y8161D01*
Y8276D02*
X8733D01*
Y8086D02*
X8643D01*
X8733Y8201D02*
Y8276D01*
X8823D02*
Y8201D01*
Y8161D02*
Y8086D01*
X8733D02*
Y8161D01*
Y8276D02*
X8823D01*
Y8086D02*
X8733D01*
X8957Y8208D02*
Y8223D01*
X8943Y8256D02*
X8913D01*
Y8176D02*
X8943D01*
X10643Y8211D02*
Y8121D01*
X10453D02*
Y8211D01*
X10568D02*
X10643D01*
Y8121D02*
X10568D01*
X10528D02*
X10453D01*
Y8211D02*
X10528D01*
X10798Y8591D02*
Y8691D01*
X11033D02*
Y8591D01*
X10873Y8691D02*
X10798D01*
Y8591D02*
X10873D01*
X10958D02*
X11033D01*
Y8691D02*
X10958D01*
X10168Y8711D02*
Y8621D01*
X10358D02*
Y8711D01*
X10243D02*
X10168D01*
Y8621D02*
X10243D01*
X10283D02*
X10358D01*
Y8711D02*
X10283D01*
X9903D02*
Y8621D01*
X10093D02*
Y8711D01*
X9978D02*
X9903D01*
Y8621D02*
X9978D01*
X10018D02*
X10093D01*
Y8711D02*
X10018D01*
X10198Y7611D02*
Y7521D01*
X10008D02*
Y7611D01*
X10123D02*
X10198D01*
Y7521D02*
X10123D01*
X10083D02*
X10008D01*
Y7611D02*
X10083D01*
X10413D02*
Y7521D01*
X10223D02*
Y7611D01*
X10338D02*
X10413D01*
Y7521D02*
X10338D01*
X10298D02*
X10223D01*
Y7611D02*
X10298D01*
X11093Y7706D02*
X11183D01*
Y7516D02*
X11093D01*
Y7631D02*
Y7706D01*
X11183D02*
Y7631D01*
Y7591D02*
Y7516D01*
X11093D02*
Y7591D01*
X11028Y8146D02*
Y8236D01*
X10838D02*
Y8146D01*
X10953Y8236D02*
X11028D01*
Y8146D02*
X10953D01*
X10913D02*
X10838D01*
Y8236D02*
X10913D01*
X10778Y8221D02*
Y8201D01*
X10688Y8166D02*
Y8161D01*
X10778Y8126D02*
Y8106D01*
Y8221D02*
X10733D01*
Y8106D02*
X10778D01*
X10498Y7961D02*
Y7871D01*
X10308D02*
Y7961D01*
X10423D02*
X10498D01*
Y7871D02*
X10423D01*
X10383D02*
X10308D01*
Y7961D02*
X10383D01*
X10258Y8106D02*
Y8196D01*
X10068D02*
Y8106D01*
X10183Y8196D02*
X10258D01*
Y8106D02*
X10183D01*
X10143D02*
X10068D01*
Y8196D02*
X10143D01*
X9978Y8216D02*
Y8236D01*
X9888Y8181D02*
Y8176D01*
X9978Y8141D02*
Y8121D01*
Y8236D02*
X9933D01*
Y8121D02*
X9978D01*
X9508Y8171D02*
Y8186D01*
X9488Y8126D02*
X9458D01*
Y8231D02*
X9488D01*
X9523Y7826D02*
Y7736D01*
X9713D02*
Y7826D01*
X9598Y7736D02*
X9523D01*
Y7826D02*
X9598D01*
X9638D02*
X9713D01*
Y7736D02*
X9638D01*
X9593Y7666D02*
Y7636D01*
X9698D02*
Y7666D01*
X9653Y7686D02*
X9638D01*
X9713Y7681D02*
Y7756D01*
X9803D02*
Y7681D01*
Y7641D02*
Y7566D01*
X9713D02*
Y7641D01*
Y7756D02*
X9803D01*
Y7566D02*
X9713D01*
X9993Y7606D02*
Y7696D01*
X9803D02*
Y7606D01*
X9918Y7696D02*
X9993D01*
Y7606D02*
X9918D01*
X9878D02*
X9803D01*
Y7696D02*
X9878D01*
X9803Y7826D02*
Y7901D01*
X9893D02*
Y7826D01*
Y7786D02*
Y7711D01*
X9803D02*
Y7786D01*
Y7901D02*
X9893D01*
Y7711D02*
X9803D01*
X10018Y7921D02*
Y8011D01*
X9828D02*
Y7921D01*
X9943Y8011D02*
X10018D01*
Y7921D02*
X9943D01*
X9903D02*
X9828D01*
Y8011D02*
X9903D01*
X10018D02*
Y8101D01*
X9828D02*
Y8011D01*
X9943Y8101D02*
X10018D01*
Y8011D02*
X9943D01*
X9903D02*
X9828D01*
Y8101D02*
X9903D01*
X9768Y8171D02*
Y8186D01*
X9748Y8126D02*
X9718D01*
Y8231D02*
X9748D01*
X9808Y8101D02*
Y8011D01*
X9618D02*
Y8101D01*
X9733D02*
X9808D01*
Y8011D02*
X9733D01*
X9693D02*
X9618D01*
Y8101D02*
X9693D01*
X9428Y8061D02*
Y7971D01*
X9618D02*
Y8061D01*
X9503Y7971D02*
X9428D01*
Y8061D02*
X9503D01*
X9543D02*
X9618D01*
Y7971D02*
X9543D01*
X9698D02*
Y7881D01*
X9508D02*
Y7971D01*
X9623D02*
X9698D01*
Y7881D02*
X9623D01*
X9583D02*
X9508D01*
Y7971D02*
X9583D01*
X9493Y7791D02*
Y7746D01*
X9378D02*
Y7791D01*
X9473Y7746D02*
X9493D01*
X9438Y7836D02*
X9433D01*
X9398Y7746D02*
X9378D01*
X9298Y7776D02*
Y7791D01*
X9278Y7731D02*
X9248D01*
Y7836D02*
X9278D01*
X9373Y7701D02*
Y7626D01*
X9463D02*
Y7701D01*
Y7586D02*
Y7511D01*
X9373D02*
Y7586D01*
Y7701D02*
X9463D01*
Y7511D02*
X9373D01*
Y7601D01*
X9183D02*
Y7511D01*
X9298Y7601D02*
X9373D01*
Y7511D02*
X9298D01*
X9258D02*
X9183D01*
Y7601D02*
X9258D01*
X9292Y7653D02*
Y7668D01*
X9278Y7701D02*
X9248D01*
Y7621D02*
X9278D01*
X9363Y7856D02*
Y7946D01*
X9173D02*
Y7856D01*
X9288Y7946D02*
X9363D01*
Y7856D02*
X9288D01*
X9248D02*
X9173D01*
Y7946D02*
X9248D01*
X9383D02*
Y8036D01*
X9193D02*
Y7946D01*
X9308Y8036D02*
X9383D01*
Y7946D02*
X9308D01*
X9268D02*
X9193D01*
Y8036D02*
X9268D01*
Y8176D02*
Y8251D01*
X9358D02*
Y8176D01*
Y8136D02*
Y8061D01*
X9268D02*
Y8136D01*
Y8251D02*
X9358D01*
Y8061D02*
X9268D01*
X9183Y8201D02*
Y8216D01*
X9163Y8156D02*
X9133D01*
Y8261D02*
X9163D01*
X9238Y8141D02*
Y8051D01*
X9048D02*
Y8141D01*
X9163D02*
X9238D01*
Y8051D02*
X9163D01*
X9123D02*
X9048D01*
Y8141D02*
X9123D01*
X8963Y8111D02*
Y8096D01*
X8943Y8051D02*
X8913D01*
Y8156D02*
X8943D01*
X9173Y7786D02*
Y7696D01*
X8983D02*
Y7786D01*
X9098D02*
X9173D01*
Y7696D02*
X9098D01*
X9058D02*
X8983D01*
Y7786D02*
X9058D01*
X8828Y7636D02*
Y7466D01*
X9133D02*
Y7636D01*
X8903D02*
X8828D01*
X9058D02*
X9133D01*
X8903Y7466D02*
X8828D01*
X9058D02*
X9133D01*
D02*
M02*
