M71
M48
T1F00S00C0.015
T2F00S00C0.028
T3F00S00C0.032
T4F00S00C0.040
T5F00S00C0.047
T6F00S00C0.115
%
T01
X01875Y00315
X0193Y00415
X0263Y00095
X0185Y00265
X01705
X01645Y00105
X0149
X01505Y0024
X0132Y00295
X0126Y00365
X0121Y00415
Y0059
X0157Y0052
X0163Y0056
X0186Y00445
X01105Y00235
X01065Y0023
X01025
X0098
X00975Y0014
X01025
X0105Y0011
X01095Y0014
X01135
X0105Y00185
X00665Y0025
X00655Y0038
X00645Y0007
X00365Y00255
Y0041
X0089Y0048
X00195Y0067
X00325Y00655
Y00805
X0033Y0099
X00325Y0109
X00525Y0104
X0052Y0083
Y0073
X00755Y00645
X0089Y00605
X00865Y0077
X00965
X01
X0103
X0106
X01095
X01085Y0072
X0107Y0081
X00965Y00805
Y0073
X0098Y00915
X01065Y0104
X01125
X0116
X01195
X0123Y01045
X0133
X0143Y0104
Y0084
X01335Y0081
X01325Y0072
X0157Y00675
X0163Y0064
Y006
X0161Y00805
X017Y0084
X01735Y0104
X0163Y01265
X0133
X0108
X00825
X00625
X00805Y0085
X01855Y0068
Y0062
X0205
X0206Y0068
X02255Y00695
X0223Y0084
X0211Y01045
X01975Y01035
X0193Y0104
X0188Y0087
Y01265
X0203
X02415Y01235
X0247Y00725
X02585Y0071
Y0081
T02
X00547Y0047
Y00549
T03
X0121Y001
X01308
X01407
T04
X02631Y00451
Y00551
Y00651
Y00751
Y00851
Y00951
Y01051
Y01151
T05
X00378Y01041
X02178Y01041
T06
X02419Y00135
X00136
Y0104
X02419
M30
